<?xml version="1.0" encoding="iso-8859-1"?>
<!-- Generator: Adobe Illustrator 16.0.0, SVG Export Plug-In . SVG Version: 6.00 Build 0)  -->
<!DOCTYPE svg PUBLIC "-//W3C//DTD SVG 1.1//EN" "http://www.w3.org/Graphics/SVG/1.1/DTD/svg11.dtd">
<svg version="1.1" xmlns="http://www.w3.org/2000/svg" xmlns:xlink="http://www.w3.org/1999/xlink" x="0px" y="0px" width="128px"
	 height="128px" viewBox="0 0 128 128" style="enable-background:new 0 0 128 128;" xml:space="preserve">
<g id="_x30_2-hotels">
	<path style="fill:#59595C;" d="M18.377,87h92.243c1.062,0,1.845-0.826,1.845-1.888C112.465,61.53,96,41.948,73,37.877V33.25
		c0-1.056-0.717-2.25-1.778-2.25H67v-5h3.263c1.587,0,2.884-1.407,2.884-3c0-1.581-1.31-3-2.884-3H58.735
		c-1.587,0-2.884,1.413-2.884,3c0,1.58,1.303,3,2.884,3H62v5h-4.23C56.714,31,56,32.194,56,33.25v4.627
		C33,41.948,16.533,61.53,16.533,85.112C16.533,86.161,17.321,87,18.377,87z M120.953,101.314l-7.324-7.279
		c-0.735-0.742-1.615-1.035-2.678-1.035h-92.9c-1.061,0-1.966,0.293-2.715,1.035l-7.78,7.323C6.808,102.1,6,102.973,6,104.022v2.257
		C6,107.341,7.699,108,8.768,108h111.462c1.062,0,1.771-0.659,1.771-1.721v-2.257C122,102.973,121.7,102.057,120.953,101.314z"/>
</g>
<g id="Layer_1">
</g>
</svg>
