<?xml version="1.0" encoding="iso-8859-1"?>
<!-- Generator: Adobe Illustrator 16.0.0, SVG Export Plug-In . SVG Version: 6.00 Build 0)  -->
<!DOCTYPE svg PUBLIC "-//W3C//DTD SVG 1.1//EN" "http://www.w3.org/Graphics/SVG/1.1/DTD/svg11.dtd">
<svg version="1.1" xmlns="http://www.w3.org/2000/svg" xmlns:xlink="http://www.w3.org/1999/xlink" x="0px" y="0px" width="128px"
	 height="128px" viewBox="0 0 128 128" style="enable-background:new 0 0 128 128;" xml:space="preserve">
<g id="_x30_3-packages">
	<g>
		<path style="fill:#5E5E5E;" d="M63.844,18.591c8.137,0,11.582,4.922,11.582,11h7.373c0-10.379-8.42-18.805-18.803-18.805
			c-10.382,0-18.8,8.426-18.8,18.805h7.891C53.086,24.047,55.707,18.591,63.844,18.591z"/>
		<path style="fill:#5E5E5E;" d="M105.891,34.065H19.939c-7.891,0-12.36,8.028-12.36,15.914v57.312c0,7.865,4.469,9.922,12.36,9.922
			h85.951c7.873,0,14.529-2.057,14.529-9.922V49.979C120.42,42.094,113.764,34.065,105.891,34.065z M100.52,64.595
			c0,7.943-6.434,14.381-14.377,14.381c-7.941,0-14.373-6.438-14.373-14.381c0-7.936,6.432-14.373,14.373-14.373
			C94.086,50.222,100.52,56.659,100.52,64.595z M21.361,74.427l34.064-8.942l-9.29,33.964L21.361,74.427z"/>
	</g>
</g>
<g id="Layer_1">
</g>
</svg>
