<?xml version="1.0" encoding="iso-8859-1"?>
<!-- Generator: Adobe Illustrator 16.0.0, SVG Export Plug-In . SVG Version: 6.00 Build 0)  -->
<!DOCTYPE svg PUBLIC "-//W3C//DTD SVG 1.1//EN" "http://www.w3.org/Graphics/SVG/1.1/DTD/svg11.dtd">
<svg version="1.1" xmlns="http://www.w3.org/2000/svg" xmlns:xlink="http://www.w3.org/1999/xlink" x="0px" y="0px" width="128px"
	 height="128px" viewBox="0 0 128 128" style="enable-background:new 0 0 128 128;" xml:space="preserve">
<g id="_x30_5-cars">
	<g>
		<g>
			<path style="fill:#59595C;" d="M108.7,96.877l-15.629,0.414v15.653c0,1.037,1.006,1.896,2.235,1.896h12.799
				c1.218,0,2.224-0.859,2.224-1.896V96.763c0-0.045-0.017-0.066-0.017-0.127C109.379,96.813,108.7,96.877,108.7,96.877z"/>
			<path style="fill:#59595C;" d="M19.3,96.877l15.624,0.414v15.653c0,1.037-0.999,1.896-2.223,1.896H19.908
				c-1.231,0-2.225-0.859-2.225-1.896V96.763c0-0.045,0.011-0.066,0.011-0.127C18.615,96.813,19.3,96.877,19.3,96.877z"/>
		</g>
		<path style="fill:#59595C;" d="M106.752,36.047c0,0-0.663-3.473-2.006-7.429c-0.948-2.78-1.296-6.394-4.083-7.877
			c-10.95-5.747-23.968-7.458-35.992-7.575c-8.789-0.098-17.656,1.056-26.221,3.052c-3.329,0.778-7.536,1.495-10.545,3.392
			c-2.871,1.806-3.415,5.117-4.489,8.16c-1.702,4.824-2.689,9.494-2.689,9.494c-1.988,5.953,6.952,8.817,9.311,2.76
			c2.325-6.003,1.573-5.857,3.898-11.844c9.781-3.567,20.53-4.58,30.735-4.678c9.542-0.076,21.369,1.578,29.758,5.512
			c1.943,5.706,1.067,4.075,3.011,9.789C99.562,45.018,108.897,42.34,106.752,36.047z"/>
		<path style="fill:#59595C;" d="M110.256,49.836c0,0-21.255-2.415-46.645-2.415s-45.866,2.415-45.866,2.415
			C12.382,49.836,8,54.633,8,60.552v22.369c0,5.924,4.376,9.675,9.739,9.675c0,0,29.652,1.068,45.685,1.068
			c16.027,0,46.827-1.068,46.827-1.068c5.363,0,9.749-3.751,9.749-9.675V60.552C120,54.633,115.619,49.836,110.256,49.836z
			 M41,71.278C41,74.12,39.062,76,36.227,76H23.367C20.519,76,18,74.12,18,71.278v-1.487C18,66.943,20.519,65,23.367,65h12.859
			C39.062,65,41,66.943,41,69.791V71.278z M110,71.278c0,2.842-2.519,4.722-5.36,4.722H91.773C88.949,76,87,74.12,87,71.278v-1.487
			C87,66.943,88.949,65,91.773,65h12.866c2.842,0,5.36,1.943,5.36,4.791V71.278z"/>
	</g>
</g>
<g id="Layer_1">
</g>
</svg>
