<?xml version="1.0" encoding="iso-8859-1"?>
<!-- Generator: Adobe Illustrator 16.0.0, SVG Export Plug-In . SVG Version: 6.00 Build 0)  -->
<!DOCTYPE svg PUBLIC "-//W3C//DTD SVG 1.1//EN" "http://www.w3.org/Graphics/SVG/1.1/DTD/svg11.dtd">
<svg version="1.1" xmlns="http://www.w3.org/2000/svg" xmlns:xlink="http://www.w3.org/1999/xlink" x="0px" y="0px" width="128px"
	 height="128px" viewBox="0 0 128 128" style="enable-background:new 0 0 128 128;" xml:space="preserve">
<g id="_x30_6-getaways">
	<path style="fill:#59595C;" d="M45.938,64.887C44.938,41.314,50.094,33,50.094,33h-0.025c0.025,0-3.25-5.666-9.422-1.057
		c-4.5,3.364-15.932,24.412-17.555,41.822C22.152,83.902,47.003,90.021,45.938,64.887z M104.068,39.093
		c-1.605-2.414-4.85-3.081-7.277-1.478c-0.086,0.064-2.733,1.796-5.909,3.449c-1.578,0.821-3.306,1.627-4.803,2.174
		c-0.757,0.279-1.449,0.493-2.01,0.622c-0.271,0.055-0.52,0.1-0.697,0.13c-1.689-0.757-3.454-1.732-5.166-2.827
		c-3.037-1.922-5.863-4.142-7.896-5.853c-0.607-0.513-1.134-0.98-1.583-1.374c-2.229-2.847-6.589-6.217-13.149-1.802
		c-7.949,5.35-8.89,40.873-2.976,45.143c1.651,1.19,13.936,10.391,16.026,12.383c1.658,1.567,3.137,3.126,4.062,4.266
		c0.397,0.507,0.695,0.926,0.847,1.15c0.063,0.374,0.158,0.87,0.258,1.479c0.149,0.845,0.308,1.86,0.478,2.995
		c0.34,2.271,0.712,4.978,1.075,7.694c0.746,5.44,1.424,10.915,1.691,13.066c0.062,0.607,0.1,0.96,0.1,0.96
		c0.448,3.578,3.703,6.127,7.272,5.679c3.578-0.423,6.136-3.674,5.694-7.257c0-0.03-1.176-9.646-2.296-17.693
		c-0.367-2.698-0.746-5.227-1.084-7.203c-0.169-1.134-0.354-2.096-0.533-2.937c-0.234-1.045-0.582-1.82-0.94-2.538
		c-0.358-0.721-0.762-1.353-1.154-1.945c-0.851-1.2-1.778-2.311-2.803-3.43c-2.03-2.25-6.664-6.407-9.023-8.526
		c-0.507-0.452-2.229-12.916-2.131-27.025c0.787,0.547,1.595,1.09,2.438,1.627c2.39,1.513,4.988,2.956,7.726,4.082
		c0.442,0.179,0.951,0.313,1.444,0.358c0.383,0.045,0.785,0.06,1.154,0.06c1.273-0.005,2.439-0.189,3.563-0.458
		c1.99-0.458,3.888-1.18,5.712-1.976c2.718-1.205,5.287-2.618,7.184-3.738c1.896-1.115,3.16-1.946,3.22-1.991
		C104.993,44.777,105.659,41.507,104.068,39.093z M65.703,27.113c7.206,0,13.054-5.848,13.054-13.06
		c0-7.217-5.848-13.06-13.054-13.06c-7.218,0-13.066,5.843-13.066,13.06C52.637,21.265,58.485,27.113,65.703,27.113z
		 M43.594,118.862c-0.916,3.479,1.194,7.033,4.688,7.938c3.499,0.896,7.047-1.209,7.948-4.707l7.66-32.045
		c-1.085-0.98-9.078-6.932-11.039-8.621L43.594,118.862z"/>
</g>
<g id="Layer_1">
</g>
</svg>
