<?xml version="1.0" encoding="iso-8859-1"?>
<!-- Generator: Adobe Illustrator 16.0.0, SVG Export Plug-In . SVG Version: 6.00 Build 0)  -->
<!DOCTYPE svg PUBLIC "-//W3C//DTD SVG 1.1//EN" "http://www.w3.org/Graphics/SVG/1.1/DTD/svg11.dtd">
<svg version="1.1" xmlns="http://www.w3.org/2000/svg" xmlns:xlink="http://www.w3.org/1999/xlink" x="0px" y="0px" width="128px"
	 height="128px" viewBox="0 0 128 128" style="enable-background:new 0 0 128 128;" xml:space="preserve">
<g id="_x30_7-disney">
	<path style="fill:#5A5A5D;" d="M126.415,37.017c0-13.53-11.237-24.487-25.099-24.487c-13.879,0-25.119,10.957-25.119,24.487
		c0,1.472,0.167,2.892,0.413,4.306c-3.89-1.273-8.044-2-12.397-2c-4.359,0-8.536,0.742-12.456,2.031
		c0.26-1.415,0.419-2.866,0.419-4.338c0-13.53-11.246-24.487-25.115-24.487c-13.87,0-25.108,10.957-25.108,24.487
		c0,13.52,11.238,24.498,25.108,24.498c0.58,0,1.185-0.046,1.754-0.089c-2.328,4.875-3.66,10.262-3.66,15.999
		c0,21.023,17.499,38.081,39.058,38.081c21.574,0,39.066-17.058,39.066-38.081c0-5.736-1.335-11.123-3.665-15.999
		c0.575,0.042,1.118,0.089,1.702,0.089C115.178,61.515,126.415,50.537,126.415,37.017z"/>
</g>
<g id="Layer_1">
</g>
</svg>
