<?xml version="1.0" encoding="iso-8859-1"?>
<!-- Generator: Adobe Illustrator 16.0.0, SVG Export Plug-In . SVG Version: 6.00 Build 0)  -->
<!DOCTYPE svg PUBLIC "-//W3C//DTD SVG 1.1//EN" "http://www.w3.org/Graphics/SVG/1.1/DTD/svg11.dtd">
<svg version="1.1" xmlns="http://www.w3.org/2000/svg" xmlns:xlink="http://www.w3.org/1999/xlink" x="0px" y="0px" width="128px"
	 height="128px" viewBox="0 0 128 128" style="enable-background:new 0 0 128 128;" xml:space="preserve">
<g id="_x30_8-trains">
	<g>
		<g>
			<path style="fill:#59595C;" d="M114.595,120.059l-15.301-15.729c-0.607,0.087-1.241,0.145-1.876,0.145h-7.614l5.432,5.646H32.169
				l5.227-5.666h-8.562c-0.343,0-0.676-0.032-1.005-0.055l-14.427,15.659c-1.033,1.118-0.732,3.124,0.66,4.475
				c1.393,1.364,3.357,1.559,4.4,0.451l6.748-7.319c0.291,0.06,0.563,0.162,0.871,0.162h75.457c0.333,0,0.64-0.114,0.951-0.178
				l7.061,7.335c1.031,1.107,2.99,0.913,4.389-0.451C115.341,123.183,115.625,121.177,114.595,120.059z"/>
		</g>
		<path style="fill:#59595C;" d="M93.073,2H34.944C26.072,2,18,9.179,18,18.035V83.2C18,92.051,26.072,99,34.944,99h58.129
			C101.925,99,109,92.051,109,83.2V18.035C109,9.179,101.925,2,93.073,2z M39.746,85.846c-5.012,0-9.072-4.071-9.072-9.089
			c0-5.022,4.061-9.061,9.072-9.061c5.016,0,9.082,4.038,9.082,9.061C48.828,81.774,44.761,85.846,39.746,85.846z M60,40.68
			c0,4.425-2.594,8.32-7.022,8.32H32.931C28.501,49,24,45.105,24,40.68V27.973C24,23.553,28.501,20,32.931,20h20.047
			C57.406,20,60,23.553,60,27.973V40.68z M88.261,85.846c-5.019,0-9.084-4.071-9.084-9.089c0-5.022,4.065-9.061,9.084-9.061
			c5.016,0,9.071,4.038,9.071,9.061C97.332,81.774,93.276,85.846,88.261,85.846z M103,40.68c0,4.425-3.495,8.32-7.921,8.32H75.032
			C70.602,49,66,45.105,66,40.68V27.973C66,23.553,70.602,20,75.032,20h20.047c4.426,0,7.921,3.553,7.921,7.973V40.68z"/>
	</g>
</g>
<g id="Layer_1">
</g>
</svg>
