<?xml version="1.0" encoding="iso-8859-1"?>
<!-- Generator: Adobe Illustrator 16.0.0, SVG Export Plug-In . SVG Version: 6.00 Build 0)  -->
<!DOCTYPE svg PUBLIC "-//W3C//DTD SVG 1.1//EN" "http://www.w3.org/Graphics/SVG/1.1/DTD/svg11.dtd">
<svg version="1.1" xmlns="http://www.w3.org/2000/svg" xmlns:xlink="http://www.w3.org/1999/xlink" x="0px" y="0px" width="128px"
	 height="128px" viewBox="0 0 128 128" style="enable-background:new 0 0 128 128;" xml:space="preserve">
<g id="_x30_9-excursions">
	<path style="fill:#5E5E5E;" d="M64.879,9.425c7.222,0,9.787,4.253,9.787,9.154l7.037,0.093c0-9.223-7.469-16.668-16.686-16.668
		c-9.221,0-16.689,7.445-16.689,16.668l7.51-0.211C55.838,13.631,57.66,9.425,64.879,9.425z"/>
	<path style="fill:#5E5E5E;" d="M64.001,22.808c-28.497,0-51.592,23.102-51.592,51.588c0,28.496,23.095,51.6,51.592,51.6
		c28.487,0,51.588-23.104,51.588-51.6C115.59,45.91,92.488,22.808,64.001,22.808z M76.008,87.012l-12.206,32.947l-9.978-33.795
		L21.169,75.172l33.746-11.096l12.261-33.033l9.92,33.674l33.035,11.099L76.008,87.012z"/>
	<path style="fill:#5E5E5E;" d="M63.992,66.191c-4.525,0-8.213,3.67-8.213,8.182c0,4.58,3.688,8.246,8.213,8.246
		c4.547,0,8.221-3.666,8.221-8.246C72.213,69.861,68.539,66.191,63.992,66.191z"/>
</g>
<g id="Layer_1">
</g>
</svg>
