<?xml version="1.0" encoding="iso-8859-1"?>
<!-- Generator: Adobe Illustrator 16.0.0, SVG Export Plug-In . SVG Version: 6.00 Build 0)  -->
<!DOCTYPE svg PUBLIC "-//W3C//DTD SVG 1.1//EN" "http://www.w3.org/Graphics/SVG/1.1/DTD/svg11.dtd">
<svg version="1.1" xmlns="http://www.w3.org/2000/svg" xmlns:xlink="http://www.w3.org/1999/xlink" x="0px" y="0px" width="128px"
	 height="128px" viewBox="0 0 128 128" style="enable-background:new 0 0 128 128;" xml:space="preserve">
<g id="_x31_0-assistance">
	<path style="fill:#5C5C5C;" d="M52.253,11.141L40.507,22.887v11.747h-17.62c-6.754,0-11.041,5.874-11.747,11.747l-5.873,58.732
		c-0.706,5.874,3.172,11.746,11.747,11.746h93.973c8.575,0,12.453-5.872,11.747-11.746l-5.874-58.732
		c-0.705-5.873-5.517-11.747-11.746-11.747H87.494V22.887L75.746,11.141H52.253 M52.253,22.887h23.493v11.747H52.253V22.887
		 M58.127,52.254h11.746v17.62h17.621V81.62H69.873v17.621H58.127V81.62h-17.62V69.874h17.62V52.254z"/>
</g>
<g id="Layer_1">
</g>
</svg>
