<?xml version="1.0" encoding="iso-8859-1"?>
<!-- Generator: Adobe Illustrator 16.0.0, SVG Export Plug-In . SVG Version: 6.00 Build 0)  -->
<!DOCTYPE svg PUBLIC "-//W3C//DTD SVG 1.1//EN" "http://www.w3.org/Graphics/SVG/1.1/DTD/svg11.dtd">
<svg version="1.1" xmlns="http://www.w3.org/2000/svg" xmlns:xlink="http://www.w3.org/1999/xlink" x="0px" y="0px" width="128px"
	 height="128px" viewBox="0 0 128 128" style="enable-background:new 0 0 128 128;" xml:space="preserve">
<g id="_x31_02-contact">
	<path style="fill:#5C5C5C;" d="M114.833,18H13.167C7.575,18,3,22.827,3,28.417v71.166C3,105.173,7.575,110,13.167,110h101.667
		c5.59,0,10.117-4.702,10.117-10.292L125,28.354C125,22.765,120.423,18,114.833,18z M43.667,33.5c8.439,0,15.25,6.811,15.25,15.25
		S52.106,64,43.667,64c-8.439,0-15.25-6.811-15.25-15.25S35.228,33.5,43.667,33.5z M74,95H13v-5.583
		C13,79.25,33.333,73.66,43.5,73.66S74,79.25,74,89.417V95z M93.735,74h8.34l7.675,10.25L99.633,94.408
		c-6.657-4.983-11.586-12.081-13.88-20.262c-0.913-3.257-1.42-6.652-1.42-10.157c0-3.505,0.507-6.905,1.42-10.162
		c2.294-8.235,7.223-15.297,13.88-20.28l10.117,10.202L102.075,54h-8.34c-1.117,3-1.777,6.44-1.777,10S92.618,71,93.735,74z"/>
</g>
<g id="Layer_1">
</g>
</svg>
