<?xml version="1.0" encoding="iso-8859-1"?>
<!-- Generator: Adobe Illustrator 16.0.0, SVG Export Plug-In . SVG Version: 6.00 Build 0)  -->
<!DOCTYPE svg PUBLIC "-//W3C//DTD SVG 1.1//EN" "http://www.w3.org/Graphics/SVG/1.1/DTD/svg11.dtd">
<svg version="1.1" xmlns="http://www.w3.org/2000/svg" xmlns:xlink="http://www.w3.org/1999/xlink" x="0px" y="0px" width="128px"
	 height="128px" viewBox="0 0 128 128" style="enable-background:new 0 0 128 128;" xml:space="preserve">
<g id="_x31_03-whatsapp">
	<path style="fill:#5C5C5C;" d="M92.975,75.956l-10.187-5.367c-1.405-0.489-2.383-0.858-3.538,0.667l-4.944,5.736
		c-0.911,0.977-1.823,1.103-3.288,0.244c-1.466-0.792-6.351-2.562-11.896-7.929c-4.271-4.212-7.321-9.275-8.054-10.859
		c-0.852-1.525,0-2.317,0.732-3.05l2.383-2.562l1.645-2.502c0.548-0.978,0.304-1.889-0.06-2.681l-4.212-11.158
		C50.394,33.381,49.119,34,48.202,34h-2.872c-1.037-1-2.681-0.25-4.146,1.335c-1.584,1.465-5.492,4.879-5.79,12.319
		c-0.25,7.506,4.873,14.823,5.611,15.86c0.727,1.036,9.877,17.232,25.067,23.88c15.19,6.648,15.25,4.56,18.056,4.44
		c2.806-0.125,9.15-3.427,10.371-6.847c1.525-3.473,1.645-6.526,1.281-7.2C95.477,77.181,94.5,76.748,92.975,75.956z M64,3
		C30.307,3,3,30.307,3,64c0,12.016,3.476,23.179,9.454,32.633L3,125l28.367-9.454C40.821,121.521,51.979,125,64,125
		c33.693,0,61-27.307,61-61S97.693,3,64,3z M64,112.8c-10.496,0-20.194-3.294-28.117-8.905L18.25,109.75l5.856-17.633
		C18.494,84.194,15.2,74.49,15.2,64c0-26.949,21.85-48.8,48.8-48.8c26.949,0,48.8,21.851,48.8,48.8S90.949,112.8,64,112.8z"/>
</g>
<g id="Layer_1">
</g>
</svg>
