<?xml version="1.0" encoding="iso-8859-1"?>
<!-- Generator: Adobe Illustrator 16.0.0, SVG Export Plug-In . SVG Version: 6.00 Build 0)  -->
<!DOCTYPE svg PUBLIC "-//W3C//DTD SVG 1.1//EN" "http://www.w3.org/Graphics/SVG/1.1/DTD/svg11.dtd">
<svg version="1.1" xmlns="http://www.w3.org/2000/svg" xmlns:xlink="http://www.w3.org/1999/xlink" x="0px" y="0px" width="128px"
	 height="128px" viewBox="0 0 128 128" style="enable-background:new 0 0 128 128;" xml:space="preserve">
<g id="_x31_04-skype">
	<path style="fill:#5C5C5C;" d="M120.658,74.504c3.322-18.023-1.959-37.344-15.991-51.171C90.84,9.301,71.52,4.02,53.496,7.342
		C48.618,4.562,42.925,3,36.889,3C18.17,3,3,18.171,3,36.889c0,6.037,1.559,11.729,4.339,16.607
		C4.016,71.52,9.305,90.84,23.333,104.667c13.827,14.032,33.147,19.313,51.17,15.991c4.879,2.779,10.57,4.342,16.607,4.342
		C109.829,125,125,109.829,125,91.111C125,85.074,123.438,79.383,120.658,74.504z M64.271,98.975
		c-20.605,0-29.62-10.034-29.62-17.554c0-3.865,2.846-6.579,6.778-6.579c8.743,0,6.506,12.543,22.842,12.543
		c8.333,0,12.946-4.541,12.946-9.154c0-2.846-1.356-5.891-6.851-7.247l-18.229-4.614c-14.641-3.653-17.282-11.583-17.282-19.042
		c0-15.455,14.568-21.28,28.19-21.28c12.615,0,27.455,6.977,27.455,16.263c0,4.005-3.389,6.308-7.32,6.308
		c-7.52,0-6.103-10.371-21.214-10.371c-7.459,0-11.523,3.389-11.523,8.267c0,4.812,5.825,6.367,10.98,7.525l13.483,2.979
		c14.707,3.323,18.506,11.935,18.506,19.996C93.414,89.622,83.725,98.975,64.271,98.975z"/>
</g>
<g id="Layer_1">
</g>
</svg>
