<?xml version="1.0" encoding="iso-8859-1"?>
<!-- Generator: Adobe Illustrator 16.0.0, SVG Export Plug-In . SVG Version: 6.00 Build 0)  -->
<!DOCTYPE svg PUBLIC "-//W3C//DTD SVG 1.1//EN" "http://www.w3.org/Graphics/SVG/1.1/DTD/svg11.dtd">
<svg version="1.1" xmlns="http://www.w3.org/2000/svg" xmlns:xlink="http://www.w3.org/1999/xlink" x="0px" y="0px" width="128px"
	 height="128px" viewBox="0 0 128 128" style="enable-background:new 0 0 128 128;" xml:space="preserve">
<g id="_x31_05-callcenter">
	<path style="fill-rule:evenodd;clip-rule:evenodd;fill:#5C5C5C;" d="M114.11,44h-4.403c-1.201,0-1.244-0.323-1.287-0.719
		C106.113,21.536,87.661,5,65.311,5h-4.142C38.985,5,20.642,21.283,18.114,42.8c-0.064,0.553-0.098,1.2-1.113,1.2h-4.63
		C9.333,44,3,48.859,3,65.006v8.473C3,85.455,9.333,88,12.371,88H27.1c3.04,0,5.9-2.269,5.9-5.31V51.185
		c0-3.036-2.674-5.523-5.714-5.523c0,0-0.785,0.345-0.608-0.889C29.108,27.77,43.521,15,61.169,15h4.142
		c17.527,0,32.077,12.574,34.541,29.43c0.076,0.543,1.443,1.434,0.605,1.434c-3.041,0-4.457,2.285-4.457,5.321V82.69
		c0,3.041,0.344,5.31,3.385,5.31h2.764c0.763,0,0.629,1.797,0.562,2.102C100.461,100.271,95.4,113,84.044,113h-8.411
		c-0.858,0-1.067-0.574-1.229-0.879C73.04,109.633,70.396,108,67.359,108H59.61c-4.432,0-8.03,3.062-8.03,7.5
		c0,4.432,3.598,7.5,8.03,7.5h7.749c3.078,0,5.747-1.756,7.096-4.301c0.119-0.219,0.215-0.699,1.12-0.699h8.469
		c7.716,0,18.038-4.42,23.404-22.678c0.571-1.944,1.038-4.283,1.42-6.156c0.048-0.257,0.081-1.166,0.886-1.166h4.356
		c3.04,0,10.89-2.545,10.89-14.521v-8.473C125,49.088,117.15,44,114.11,44z"/>
</g>
<g id="Layer_1">
</g>
</svg>
