<?xml version="1.0" encoding="iso-8859-1"?>
<!-- Generator: Adobe Illustrator 16.0.0, SVG Export Plug-In . SVG Version: 6.00 Build 0)  -->
<!DOCTYPE svg PUBLIC "-//W3C//DTD SVG 1.1//EN" "http://www.w3.org/Graphics/SVG/1.1/DTD/svg11.dtd">
<svg version="1.1" xmlns="http://www.w3.org/2000/svg" xmlns:xlink="http://www.w3.org/1999/xlink" x="0px" y="0px" width="128px"
	 height="128px" viewBox="0 0 128 128" style="enable-background:new 0 0 128 128;" xml:space="preserve">
<g id="_x31_06-alarm">
	<path style="fill:#5C5C5C;" d="M124.575,26.383L96.713,2.999l-7.82,9.275l27.868,23.379L124.575,26.383z M39.042,12.274
		l-7.755-9.275L3.425,26.324l7.814,9.27L39.042,12.274z M67,40h-9v36.541l28.744,17.262l4.515-7.447L67,71.998V40z M64,15.965
		c-30.11,0-54.518,24.414-54.518,54.519c0,30.104,24.349,54.518,54.518,54.518c30.11,0,54.518-24.414,54.518-54.518
		C118.518,40.379,94.11,15.965,64,15.965z M64,112.887c-23.443,0-42.402-18.959-42.402-42.402c0-23.444,18.959-42.404,42.402-42.404
		s42.403,18.96,42.403,42.404C106.403,93.928,87.443,112.887,64,112.887z"/>
</g>
<g id="Layer_1">
</g>
</svg>
