<?xml version="1.0" encoding="iso-8859-1"?>
<!-- Generator: Adobe Illustrator 16.0.0, SVG Export Plug-In . SVG Version: 6.00 Build 0)  -->
<!DOCTYPE svg PUBLIC "-//W3C//DTD SVG 1.1//EN" "http://www.w3.org/Graphics/SVG/1.1/DTD/svg11.dtd">
<svg version="1.1" xmlns="http://www.w3.org/2000/svg" xmlns:xlink="http://www.w3.org/1999/xlink" x="0px" y="0px" width="128px"
	 height="128px" viewBox="0 0 128 128" style="enable-background:new 0 0 128 128;" xml:space="preserve">
<g id="_x31_09-many-cities">
	<path style="fill:#59595C;" d="M63.94,3C30.271,3,3,30.331,3,64s27.271,61,60.94,61C97.669,125,125,97.669,125,64S97.669,3,63.94,3
		z M106.212,40h-17.99c-1.954-8-4.766-14.945-8.424-21.719C91.021,22.129,100.355,30,106.212,40z M64,15.845
		C69.063,23.166,73.031,31,75.652,40H52.348C54.969,31,58.937,23.166,64,15.845z M16.785,76c-0.974-4-1.584-7.794-1.584-12
		s0.61-8,1.584-12h20.623c-0.488,4-0.858,7.854-0.858,12s0.37,8,0.858,12H16.785z M21.789,88h17.99
		c1.954,8,4.766,14.945,8.423,21.719C36.979,105.871,27.644,99,21.789,88z M39.779,40h-17.99c5.855-11,15.19-17.871,26.414-21.719
		C44.544,25.055,41.732,32,39.779,40z M64,112.155C58.937,104.834,54.969,97,52.348,88h23.304C73.031,97,69.063,104.834,64,112.155z
		 M78.273,76H49.727c-0.548-4-0.977-7.854-0.977-12s0.429-8,0.977-12h28.546c0.548,4,0.977,7.854,0.977,12S78.821,72,78.273,76z
		 M79.798,109.719C83.456,102.945,86.268,96,88.222,88h17.99C100.355,98,91.021,105.871,79.798,109.719z M90.592,76
		c0.489-4,0.858-7.854,0.858-12s-0.369-8-0.858-12h20.624c0.977,4,1.584,7.794,1.584,12s-0.607,8-1.584,12H90.592z"/>
</g>
<g id="Layer_1">
</g>
</svg>
