<?xml version="1.0" encoding="iso-8859-1"?>
<!-- Generator: Adobe Illustrator 16.0.0, SVG Export Plug-In . SVG Version: 6.00 Build 0)  -->
<!DOCTYPE svg PUBLIC "-//W3C//DTD SVG 1.1//EN" "http://www.w3.org/Graphics/SVG/1.1/DTD/svg11.dtd">
<svg version="1.1" xmlns="http://www.w3.org/2000/svg" xmlns:xlink="http://www.w3.org/1999/xlink" x="0px" y="0px" width="128px"
	 height="128px" viewBox="0 0 128 128" style="enable-background:new 0 0 128 128;" xml:space="preserve">
<g id="_x31_1-destinations">
	<path style="fill:#59595C;" d="M109.266,18.854C121.344,30.94,128,47.019,128,64.112c0,17.102-6.656,33.172-18.734,45.266
		C97.172,121.456,81.094,128.112,64,128.112c-17.094,0-33.164-6.656-45.25-18.734C6.657,97.284,0,81.214,0,64.112
		C0,47.019,6.657,30.94,18.75,18.854C30.836,6.769,46.907,0.112,64,0.112C81.094,0.112,97.172,6.769,109.266,18.854z
		 M103.594,103.722c7.891-7.891,13.125-17.719,15.297-28.391c-1.688,2.484-3.297,3.406-4.297-2.156
		c-1.031-9.047-9.344-3.266-14.562-6.477c-5.5,3.703-17.859-7.211-15.766,5.102c3.25,5.547,17.5-7.43,10.391,4.32
		c-4.531,8.195-16.578,26.367-15,35.773c0.188,13.719-14.031,2.859-18.929-1.688c-3.297-9.109-1.125-25.047-9.734-29.5
		c-9.352-0.406-17.375-1.266-21-11.719c-2.18-7.477,2.32-18.609,10.336-20.328c11.734-7.367,15.922,8.633,26.921,8.93
		c3.422-3.578,12.734-4.711,13.5-8.719c-7.219-1.273,9.156-6.07-0.688-8.797c-5.438,0.641-8.938,5.633-6.047,9.867
		c-10.531,2.461-10.867-15.242-20.992-9.656c-0.258,8.82-16.523,2.859-5.633,1.07c3.75-1.633-6.102-6.375-0.781-5.516
		c2.617-0.141,11.414-3.227,9.039-5.297c4.898-3.047,9.016,7.281,13.812-0.234c3.461-5.789-1.453-6.852-5.789-3.922
		c-2.453-2.742,4.32-8.656,10.296-11.219c1.984-0.852,3.891-1.32,5.344-1.188c3,3.477,8.562,4.078,8.859-0.414
		C80.719,9.995,72.5,8.112,64,8.112c-12.203,0-23.805,3.883-33.406,11.047c2.578,1.188,4.039,2.656,1.555,4.539
		c-1.93,5.758-9.773,13.484-16.656,12.391c-3.57,6.164-5.922,12.953-6.93,20.07c5.766,1.906,7.094,5.68,5.859,6.938
		c-2.938,2.562-4.75,6.195-5.672,10.172c1.875,11.484,7.266,22.062,15.656,30.453C34.985,114.284,49.04,120.112,64,120.112
		C78.953,120.112,93.031,114.284,103.594,103.722z"/>
</g>
<g id="Layer_1">
</g>
</svg>
