<?xml version="1.0" encoding="iso-8859-1"?>
<!-- Generator: Adobe Illustrator 16.0.0, SVG Export Plug-In . SVG Version: 6.00 Build 0)  -->
<!DOCTYPE svg PUBLIC "-//W3C//DTD SVG 1.1//EN" "http://www.w3.org/Graphics/SVG/1.1/DTD/svg11.dtd">
<svg version="1.1" xmlns="http://www.w3.org/2000/svg" xmlns:xlink="http://www.w3.org/1999/xlink" x="0px" y="0px" width="128px"
	 height="128px" viewBox="0 0 128 128" style="enable-background:new 0 0 128 128;" xml:space="preserve">
<g id="_x31_13-foreign">
	<path style="fill:#5C5C5C;" d="M64,3C30.331,3,3,30.331,3,64s27.331,61,61,61s61-27.331,61-61S97.669,3,64,3z M58,112.371
		C34,109.381,15.25,88.889,15.25,64c0-3.783,0.613-7.381,1.406-10.919L46,82.3V88.4c0,6.707,5,12.199,12,12.199V112.371z
		 M99.992,96.683C98.408,91.738,93.893,88,88.4,88H82V70.1c0-3.354-2.446-6.1-5.8-6.1H40V52h11.8c3.354,0,6.2-2.946,6.2-6.3V34h12.1
		C76.808,34,82,28.008,82,21.3v-2.502c18,7.262,30.65,24.669,30.65,45.102C112.65,76.588,107.921,88.015,99.992,96.683z"/>
</g>
<g id="Layer_1">
</g>
</svg>
