<?xml version="1.0" encoding="iso-8859-1"?>
<!-- Generator: Adobe Illustrator 16.0.0, SVG Export Plug-In . SVG Version: 6.00 Build 0)  -->
<!DOCTYPE svg PUBLIC "-//W3C//DTD SVG 1.1//EN" "http://www.w3.org/Graphics/SVG/1.1/DTD/svg11.dtd">
<svg version="1.1" xmlns="http://www.w3.org/2000/svg" xmlns:xlink="http://www.w3.org/1999/xlink" x="0px" y="0px" width="128px"
	 height="128px" viewBox="0 0 128 128" style="enable-background:new 0 0 128 128;" xml:space="preserve">
<g id="_x31_15-clubalmundo">
	<path style="fill:#5C5C5C;" d="M116.521,64v42.018c0,5.802-4.701,10.505-10.504,10.505H21.981c-5.801,0-10.504-4.703-10.504-10.505
		V64c-2.903,0-5.252-2.35-5.252-5.252V42.991c0-5.801,4.703-10.505,10.504-10.505h16.649c-0.574-1.631-0.892-3.416-0.892-5.252
		c0-8.699,7.057-15.757,15.757-15.757c5.252,0,9.873,2.626,12.761,6.514V17.94L64,21.981l2.996-4.041v0.051
		c2.887-3.888,7.508-6.514,12.76-6.514c8.701,0,15.758,7.058,15.758,15.757c0,1.836-0.318,3.621-0.893,5.252h16.65
		c5.801,0,10.504,4.704,10.504,10.505v15.757C121.775,61.65,119.426,64,116.521,64 M21.981,106.018h36.766V64H21.981V106.018
		 M106.018,106.018V64H69.252v42.018H106.018 M48.244,21.981c-2.904,0-5.253,2.35-5.253,5.253s2.349,5.252,5.253,5.252
		c2.902,0,5.252-2.349,5.252-5.252S51.146,21.981,48.244,21.981 M79.756,21.981c-2.902,0-5.252,2.35-5.252,5.253
		s2.35,5.252,5.252,5.252c2.904,0,5.254-2.349,5.254-5.252S82.66,21.981,79.756,21.981 M16.729,42.991v10.505h42.019V42.991H16.729
		 M69.252,42.991v10.505h42.02V42.991H69.252z"/>
</g>
<g id="Layer_1">
</g>
</svg>
