<?xml version="1.0" encoding="iso-8859-1"?>
<!-- Generator: Adobe Illustrator 16.0.0, SVG Export Plug-In . SVG Version: 6.00 Build 0)  -->
<!DOCTYPE svg PUBLIC "-//W3C//DTD SVG 1.1//EN" "http://www.w3.org/Graphics/SVG/1.1/DTD/svg11.dtd">
<svg version="1.1" xmlns="http://www.w3.org/2000/svg" xmlns:xlink="http://www.w3.org/1999/xlink" x="0px" y="0px" width="128px"
	 height="128px" viewBox="0 0 128 128" style="enable-background:new 0 0 128 128;" xml:space="preserve">
<g id="_x31_16-explore">
	<path style="fill:#5C5C5C;" d="M64,70.707c3.706,0,6.707-3.002,6.707-6.707c0-3.706-3.001-6.71-6.707-6.71
		c-3.706,0-6.708,3.005-6.708,6.71C57.292,67.705,60.294,70.707,64,70.707z M64,3C30.307,3,3,30.31,3,64c0,33.693,27.307,61,61,61
		c33.693,0,61-27.307,61-61C125,30.31,97.693,3,64,3z M77.355,77.356L27.4,100.6l23.245-49.958L100.6,27.4L77.355,77.356z"/>
</g>
<g id="Layer_1">
</g>
</svg>
