<?xml version="1.0" encoding="iso-8859-1"?>
<!-- Generator: Adobe Illustrator 16.0.0, SVG Export Plug-In . SVG Version: 6.00 Build 0)  -->
<!DOCTYPE svg PUBLIC "-//W3C//DTD SVG 1.1//EN" "http://www.w3.org/Graphics/SVG/1.1/DTD/svg11.dtd">
<svg version="1.1" xmlns="http://www.w3.org/2000/svg" xmlns:xlink="http://www.w3.org/1999/xlink" x="0px" y="0px" width="128px"
	 height="128px" viewBox="0 0 128 128" style="enable-background:new 0 0 128 128;" xml:space="preserve">
<g id="_x31_17-suggestions">
	<path style="fill:#5C5C5C;" d="M84.697,91.749L64,78.453L43.302,91.749l6.245-23.819L30.526,52.438l24.57-1.502L64,28.155
		l8.903,22.781l24.57,1.502L78.453,67.93 M110.25,64c0-6.417,5.206-11.562,11.562-11.562V29.312c0-6.417-5.206-11.562-11.562-11.562
		h-92.5c-6.386,0-11.562,5.177-11.562,11.562v23.125c6.414,0,11.562,5.203,11.562,11.562c0,6.386-5.177,11.562-11.562,11.562v23.125
		c0,6.386,5.177,11.562,11.562,11.562h92.5c6.386,0,11.562-5.177,11.562-11.562V75.562C115.427,75.562,110.25,70.386,110.25,64z"/>
</g>
<g id="Layer_1">
</g>
</svg>
