<?xml version="1.0" encoding="iso-8859-1"?>
<!-- Generator: Adobe Illustrator 16.0.0, SVG Export Plug-In . SVG Version: 6.00 Build 0)  -->
<!DOCTYPE svg PUBLIC "-//W3C//DTD SVG 1.1//EN" "http://www.w3.org/Graphics/SVG/1.1/DTD/svg11.dtd">
<svg version="1.1" xmlns="http://www.w3.org/2000/svg" xmlns:xlink="http://www.w3.org/1999/xlink" x="0px" y="0px" width="128px"
	 height="128px" viewBox="0 0 128 128" style="enable-background:new 0 0 128 128;" xml:space="preserve">
<g id="_x31_18-mic">
	<path style="fill:#5C5C5C;" d="M64.001,3c10.634,0,19.265,8.628,19.265,19.263V60.79c0,10.635-8.631,19.262-19.265,19.262
		c-10.636,0-19.264-8.627-19.264-19.262V22.263C44.737,11.628,53.365,3,64.001,3 M108.947,60.79
		c0,22.668-16.755,41.348-38.524,44.496V125H57.579v-19.715c-21.771-3.147-38.526-21.827-38.526-44.496h12.842
		c0,17.733,14.373,32.105,32.106,32.105c17.732,0,32.104-14.372,32.104-32.105H108.947z"/>
</g>
<g id="Layer_1">
</g>
</svg>
