<?xml version="1.0" encoding="iso-8859-1"?>
<!-- Generator: Adobe Illustrator 16.0.0, SVG Export Plug-In . SVG Version: 6.00 Build 0)  -->
<!DOCTYPE svg PUBLIC "-//W3C//DTD SVG 1.1//EN" "http://www.w3.org/Graphics/SVG/1.1/DTD/svg11.dtd">
<svg version="1.1" xmlns="http://www.w3.org/2000/svg" xmlns:xlink="http://www.w3.org/1999/xlink" x="0px" y="0px" width="128px"
	 height="128px" viewBox="0 0 128 128" style="enable-background:new 0 0 128 128;" xml:space="preserve">
<g id="_x31_2-facebook">
	<g>
		<g>
			<path style="fill:#59595C;" d="M64,0.112c-35.346,0-64,28.653-64,64c0,35.346,28.654,64,64,64c35.347,0,64-28.654,64-64
				C128,28.766,99.348,0.112,64,0.112z M77.238,64H68v32H56V64h-6V54h6v-7.4C56,37.686,59.465,32,69.98,32H78v12h-5.137
				c-4.094,0-4.363,1.596-4.363,4.447L68.48,54h9.918L77.238,64z"/>
		</g>
	</g>
</g>
<g id="Layer_1">
</g>
</svg>
