<?xml version="1.0" encoding="iso-8859-1"?>
<!-- Generator: Adobe Illustrator 16.0.0, SVG Export Plug-In . SVG Version: 6.00 Build 0)  -->
<!DOCTYPE svg PUBLIC "-//W3C//DTD SVG 1.1//EN" "http://www.w3.org/Graphics/SVG/1.1/DTD/svg11.dtd">
<svg version="1.1" xmlns="http://www.w3.org/2000/svg" xmlns:xlink="http://www.w3.org/1999/xlink" x="0px" y="0px" width="128px"
	 height="128px" viewBox="0 0 128 128" style="enable-background:new 0 0 128 128;" xml:space="preserve">
<g id="_x31_21-case">
	<path style="fill:#5D5D5D;" d="M48.727,13.091c-5.62,0-10.182,4.562-10.182,10.182v10.182h10.182v-7.637
		c0-1.404,1.141-2.545,2.546-2.545h25.454c1.402,0,2.547,1.141,2.547,2.545v7.637h10.181V23.273c0-5.621-4.563-10.182-10.181-10.182
		H48.727z M104.727,38.545H23.272C14.836,38.545,8,45.384,8,53.818v45.818c0,8.433,6.836,15.273,15.272,15.273h81.454
		c8.438,0,15.273-6.841,15.273-15.273V53.818C120,45.384,113.164,38.545,104.727,38.545z"/>
</g>
<g id="Layer_1">
</g>
</svg>
