<?xml version="1.0" encoding="iso-8859-1"?>
<!-- Generator: Adobe Illustrator 16.0.0, SVG Export Plug-In . SVG Version: 6.00 Build 0)  -->
<!DOCTYPE svg PUBLIC "-//W3C//DTD SVG 1.1//EN" "http://www.w3.org/Graphics/SVG/1.1/DTD/svg11.dtd">
<svg version="1.1" xmlns="http://www.w3.org/2000/svg" xmlns:xlink="http://www.w3.org/1999/xlink" x="0px" y="0px" width="128px"
	 height="128px" viewBox="0 0 128 128" style="enable-background:new 0 0 128 128;" xml:space="preserve">
<g id="_x31_22-info">
	<path id="info-4-icon_5_" style="fill:#59595C;" d="M64,4C30.865,4,4,30.863,4,64c0,33.138,26.865,60,60,60s60-26.862,60-60
		C124,30.863,97.135,4,64,4z M65.47,25.199c5.386,0,9.751,4.365,9.751,9.751s-4.365,9.751-9.751,9.751s-9.751-4.365-9.751-9.751
		S60.084,25.199,65.47,25.199z M82.809,98.817H50.152v-4.275l4.087-1.509c2.29-0.845,3.813-3.024,3.813-5.466V64.511
		c0-2.442-1.523-4.622-3.813-5.467l-4.087-1.509v-4.368h24.746v34.4c0,2.438,1.523,4.621,3.813,5.466l4.097,1.509V98.817z"/>
</g>
<g id="Layer_1">
</g>
</svg>
