<?xml version="1.0" encoding="iso-8859-1"?>
<!-- Generator: Adobe Illustrator 16.0.0, SVG Export Plug-In . SVG Version: 6.00 Build 0)  -->
<!DOCTYPE svg PUBLIC "-//W3C//DTD SVG 1.1//EN" "http://www.w3.org/Graphics/SVG/1.1/DTD/svg11.dtd">
<svg version="1.1" xmlns="http://www.w3.org/2000/svg" xmlns:xlink="http://www.w3.org/1999/xlink" x="0px" y="0px" width="128px"
	 height="128px" viewBox="0 0 128 128" style="enable-background:new 0 0 128 128;" xml:space="preserve">
<g id="_x31_23-VR">
	<path style="fill-rule:evenodd;clip-rule:evenodd;fill:#5D5D5D;" d="M124.55,58.992c-1.695-5.223-5.935-8.537-10.795-10.771
		c-0.64-0.292-1.293-0.564-1.945-0.83l-0.049,0.273l-8.479,0.972c2.14,0.973,4.211,2.08,6.165,3.348
		c2.379,1.542,4.851,3.397,6.351,5.856c0.628,1.028,0.763,1.964,0.938,3.105c-0.096-0.622-0.197,0.508-0.277,0.7
		c-0.224,0.53-0.553,1.006-0.937,1.432c-0.732,0.813-1.621,1.482-2.54,2.065c-1.925,1.22-4.031,2.129-6.171,2.896
		c-4.757,1.707-9.745,2.731-14.729,3.514c-6.702,1.056-13.497,1.64-20.283,1.904l7.752,7.708l-7.586,7.538
		c10.27-0.644,20.461-2.324,30.175-5.849c5.97-2.162,12.037-5.08,16.75-9.412C122.699,69.936,126.287,64.351,124.55,58.992z
		 M71.454,79.644l-18.95-12.477C51.248,66.329,50,66.875,50,68.386v4.992c-2-0.139-5.422-0.333-8.24-0.605
		c-6.749-0.648-13.46-1.625-19.951-3.641c-3.016-0.939-6.021-2.077-8.617-3.911c-1.156-0.815-2.957-2.192-3.118-3.774
		c0.015,0.071,0.029,0.143,0.048,0.213c-0.013-0.082-0.026-0.161-0.032-0.243c0,0.011,0.007,0.023,0.009,0.03
		c-0.505-2.413,0.997-4.545,2.63-6.217c1.827-1.875,4.066-3.368,6.331-4.662c1.381-0.787,2.807-1.497,4.258-2.151l-0.256-2.953
		c-0.535,0.146-1.074,0.266-1.607,0.423C15.663,47.562,9.044,50.05,5.29,55.042c-3.197,4.249-2.883,9.524-0.077,13.835
		c3.337,5.122,9.002,8.553,14.404,11.125c6.025,2.878,12.213,4.847,18.726,6.26C42.253,87.111,46,87.768,50,88.223v5.717
		c0,1.512,1.248,2.059,2.504,1.221l18.835-12.478C72.596,81.844,72.711,80.485,71.454,79.644z M105.504,46.41
		c3.855,0,6.981-3.124,6.981-6.981c0-3.857-3.126-6.981-6.981-6.981c-3.854,0-6.983,3.125-6.983,6.981
		C98.521,43.286,101.649,46.41,105.504,46.41z M105.504,36.328c1.71,0,3.103,1.391,3.103,3.101s-1.393,3.101-3.103,3.101
		c-1.711,0-3.103-1.391-3.103-3.101S103.793,36.328,105.504,36.328z M78.019,61.829c0.706,0.804,1.683,1.406,2.901,1.792
		c1.277,0.409,2.925,0.614,4.897,0.614c1.472,0,2.812-0.2,3.994-0.584c1.129-0.37,2.106-0.979,2.904-1.821
		c0.797-0.838,1.482-1.744,1.729-2.694C94.71,58.124,95,56.441,95,54.14V43.664c0-2.305-0.28-3.992-0.527-5.01
		c-0.229-0.958-0.757-1.83-1.407-2.593c-0.653-0.763-1.712-1.425-3.077-1.976c-1.389-0.562-3.015-0.845-4.793-0.845
		c-2.175,0-4.048,0.408-5.55,1.208c-1.463,0.775-2.402,1.766-2.883,3.023C76.254,38.808,76,40.892,76,43.664v10.962
		c0,2.114,0.146,3.654,0.461,4.583C76.765,60.114,77.282,60.998,78.019,61.829z M83,41.022c0-2.309,0.19-3.049,0.37-3.438
		c0.197-0.427,0.714-1.141,2.003-1.141c1.326,0,1.971,0.708,2.148,1.13C87.676,37.939,88,38.662,88,41.022v15.564
		c0,2.204-0.351,2.926-0.522,3.308c-0.195,0.426-0.784,1.141-2.079,1.141c-1.205,0-1.763-0.55-1.999-1.011
		C83.213,59.662,83,58.94,83,56.354V41.022z M53.979,61.177c0.708,0.961,1.74,1.717,3.067,2.237
		c1.379,0.544,3.196,0.816,5.403,0.816c1.759,0,3.316-0.236,4.621-0.708c1.266-0.456,2.266-1.093,2.973-1.897
		c0.7-0.793,1.336-1.661,1.492-2.578C71.711,58.024,72,56.418,72,54.278v-2.503c0-1.762-0.353-3.165-0.656-4.171
		c-0.271-0.901-1.014-1.669-2.063-2.342c-1.073-0.688-2.379-1.036-3.793-1.036c-1.119,0-1.846,0.188-2.585,0.55
		C62.203,45.119,60,45.935,60,45.935v-5.009c0-1.22-0.218-2.017-0.171-2.435c0.064-0.592,0.208-1.104,0.646-1.482
		c0.438-0.374,0.921-0.565,1.563-0.565c0.722,0,1.291,0.195,1.746,0.58c0.469,0.396,0.729,1.139,0.783,1.73
		C64.599,39.086,64.602,40,64.609,41h6.969c-0.077-2-0.377-2.928-0.889-3.919c-0.588-1.137-1.552-2.112-2.947-2.752
		c-1.435-0.659-3.323-1.051-5.614-1.051c-1.857,0-3.508,0.241-4.91,0.765c-1.351,0.505-2.427,1.254-3.196,2.253
		c-0.769,0.995-0.975,2.051-1.079,3.155C52.825,40.673,53,43.167,53,46.866v4.344c0,3.423-0.169,5.75-0.038,6.914
		C53.08,59.183,53.265,60.208,53.979,61.177z M60,51.173c0-1.354-0.062-2.242,0.324-2.789c0.302-0.429,0.769-0.938,1.86-0.938
		c1.125,0,1.848,0.539,2.144,0.988C64.695,48.999,65,49.867,65,51.173v5.877c0,1.774-0.471,2.787-1.088,3.3
		c-0.547,0.453-1.207,0.685-1.772,0.685c-1.135,0-1.525-0.561-1.814-1.029C59.967,59.426,60,58.458,60,56.859V51.173z
		 M32.819,63.096c1.429,0.767,3.464,1.157,6.05,1.157c2.271,0,4.145-0.338,5.567-1.003c1.368-0.64,2.299-1.534,2.847-2.743
		c0.576-1.265,0.866-3.108,0.866-5.478c0-4.168-0.508-5.515-0.812-5.948c-0.538-0.767-1.353-1.31-2.496-1.662l-1.978-0.605
		l1.859-0.906c1.188-0.58,2.013-1.208,2.456-1.867c0.296-0.441,0.651-1.38,0.651-3.352c0-2.398-0.642-4.198-1.96-5.515
		c-1.298-1.295-3.921-1.953-7.791-1.953c-3.1,0-5.584,0.482-6.944,1.436C29.863,35.545,29,37.367,29,40.072V42h7v-1.831
		c0-1.403,0.352-2.26,0.663-2.776c0.258-0.434,0.909-0.951,2.032-0.951c1,0,1.523,0.468,1.804,0.864
		c0.364,0.509,0.5,1.329,0.5,2.649v1.747c0,1.148-0.049,1.995-0.313,2.586c-0.311,0.691-0.806,1.171-1.517,1.38
		C38.82,45.77,38,45.89,36,45.912v2.948c1,0.045,2.254,0.15,2.807,0.318c0.797,0.24,1.325,0.741,1.729,1.49
		C40.902,51.353,41,52.343,41,53.694v2.175c0,2.772-0.133,3.587-0.317,3.988c-0.2,0.441-0.698,1.179-2.025,1.179
		c-1.183,0-1.891-0.554-2.114-1.018C36.381,59.684,36,59.044,36,57.073V53h-7v1.454c0,2.865,0.445,4.882,0.895,5.989
		C30.31,61.464,31.438,62.359,32.819,63.096z"/>
</g>
<g id="Layer_1">
</g>
</svg>
