<?xml version="1.0" encoding="iso-8859-1"?>
<!-- Generator: Adobe Illustrator 16.0.0, SVG Export Plug-In . SVG Version: 6.00 Build 0)  -->
<!DOCTYPE svg PUBLIC "-//W3C//DTD SVG 1.1//EN" "http://www.w3.org/Graphics/SVG/1.1/DTD/svg11.dtd">
<svg version="1.1" xmlns="http://www.w3.org/2000/svg" xmlns:xlink="http://www.w3.org/1999/xlink" x="0px" y="0px" width="128px"
	 height="128px" viewBox="0 0 128 128" style="enable-background:new 0 0 128 128;" xml:space="preserve">
<g id="_x31_24-nature">
	<path style="fill:#5D5D5D;" d="M95.45,33h0.024c5.168,0,9.344-3.848,9.344-9.005c0-5.148-4.176-8.995-9.323-8.995H95.45
		c-5.142,0-9.288,3.861-9.288,8.995C86.162,29.134,90.309,33,95.45,33z M95.45,13h0.024C96.353,13,98,12.809,98,11.928V8.853
		C98,7.982,96.354,7,95.49,7h-0.04C94.607,7,94,7.986,94,8.848v3.076C94,12.784,94.6,13,95.45,13z M105.393,16.677l2.185-2.175
		c0.608-0.613,0.618-1.596,0.016-2.214c-0.614-0.608-1.597-0.608-2.221,0.015l-2.168,2.18c-0.619,0.614-0.623,1.597-0.016,2.205
		C103.797,17.296,104.779,17.296,105.393,16.677z M105.393,32.098c-0.604-0.613-1.591-0.623-2.204-0.01
		c-0.607,0.608-0.607,1.587,0.016,2.209l2.168,2.175c0.624,0.618,1.602,0.618,2.221,0.005c0.603-0.598,0.603-1.581-0.016-2.199
		L105.393,32.098z M106.381,23.998c0,0.856,0.696,2.002,1.571,2.002h3.075c0.86,0,1.576-1.141,1.576-2.002
		c0-0.856-0.696-1.998-1.576-1.998h-3.075C107.082,22,106.381,23.131,106.381,23.998z M85.577,16.677
		c0.614,0.608,1.597,0.619,2.21,0.005c0.612-0.603,0.612-1.581-0.011-2.209l-2.165-2.17c-0.617-0.619-1.601-0.623-2.223-0.015
		c-0.604,0.613-0.604,1.592,0.019,2.214L85.577,16.677z M124.206,102.461c-4.564-7.969-9.325-16.164-14.143-24.369
		c-4.564-7.773-9.416-15.936-14.422-24.266c-0.575-0.954-1.179-1.61-1.859-2c-0.185-0.106-0.403-0.165-0.632-0.165
		c-1.705,0-3.865,3.29-5.928,6.667l-0.098,0.165c-1.713,2.803-3.641,5.756-5.897,9.036l0.004,0.59l0.502,0.711l0.847-0.006
		c2.374-3.465,4.273-6.389,5.986-9.187l0.106-0.16c0.798-1.334,1.669-2.726,2.56-3.903c1.139-1.498,1.696-1.83,1.867-1.897
		c0.36,0.243,0.722,0.662,1.091,1.275c3.781,6.287,7.601,12.71,11.386,19.123c-1.663-1.586-3.375-3.217-5.182-4.607
		c-0.116-0.092-0.247-0.141-0.393-0.141l-0.546,0.301c-0.136,0.215-0.165,0.498-0.058,0.74c1.604,3.723,2.792,7.514,4.047,11.52
		c0.103,0.314,0.206,0.646,0.302,0.967c-2.472-3.777-4.935-7.693-7.347-11.678c-0.123-0.205-0.331-0.332-0.56-0.332l-0.482,0.215
		c-0.137,0.146-0.204,0.35-0.185,0.545l0.301,6.102l-3.04-5.387c-0.25-0.463-0.983-0.408-1.192,0.062l-2.511,5.811l0.063,0.02
		l-0.025,0.486l2.968,4.111c1.569,2.188,3.173,4.406,4.735,6.623c2.476,3.475,4.74,6.695,6.896,9.807l0.896-0.102
		c0.389-0.945,0.749-1.578,1.167-2.07c0.269-0.316,0.38-0.316,0.4-0.316c0.034,0.01,0.136,0.061,0.495,0.43
		c0.623,0.408,1.256,1.188,1.879,1.938c0.302,0.373,0.604,0.744,0.896,1.055c0.213,0.229,0.437,0.541,0.671,0.881
		c0.681,0.953,1.383,1.941,2.276,1.941c0.546,0,1.003-0.363,1.363-1.084c0.138-0.27,0.259-0.574,0.375-0.881
		c0.185-0.492,0.379-0.988,0.647-1.279c0.107-0.117,0.176-0.117,0.215-0.117c0.272,0,0.729,0.365,1.089,0.656
		c0.194,0.15,0.38,0.307,0.556,0.424c1.041,0.68,2.054,1.527,3.026,2.346l0.126,0.105c0.084,0.068,0.196,0.166,0.332,0.291
		c1.383,1.234,2.822,2.367,3.921,2.367c0.487,0,0.867-0.199,1.12-0.594C125.281,104.525,124.778,103.453,124.206,102.461z
		 M109.781,113.742l-0.38-0.564c-4.549-6.803-9.23-13.693-13.911-20.486c-2.438-3.537-5.026-7.223-7.684-10.957
		c-2.157-3.029-4.322-6.035-6.482-9.045c-1.343-1.855-2.687-3.711-4.02-5.574c-5.372-7.514-11.094-15.66-16.438-24.399l-0.131-0.224
		c-3.002-4.924-6.424-10.18-8.92-10.18c-0.301,0-0.584,0.078-0.837,0.224c-0.993,0.57-1.898,1.537-2.764,2.978
		c-7.412,12.33-14.891,24.914-22.228,37.41C18.827,85.109,11.493,97.742,4.15,110.539c-0.757,1.324-1.552,2.959-0.923,3.924
		c0.341,0.516,0.852,0.787,1.495,0.787c1.822,0,4.438-2.324,5.847-3.582c0.219-0.184,0.399-0.35,0.581-0.504
		c1.557-1.305,3.17-2.654,4.837-3.748c0.266-0.18,0.548-0.408,0.842-0.643c0.624-0.506,1.326-1.07,1.856-1.07
		c0.12,0,0.307,0.023,0.524,0.264c0.459,0.486,0.766,1.293,1.063,2.078c0.175,0.461,0.35,0.92,0.552,1.326
		c0.509,1.002,1.129,1.52,1.856,1.52c1.229,0,2.273-1.469,3.282-2.881c0.377-0.535,0.74-1.047,1.056-1.383
		c0.449-0.484,0.915-1.051,1.393-1.635c0.959-1.164,1.946-2.375,3.026-3.104c0.244-0.254,0.57-0.613,0.852-0.627
		c0.141,0,0.403,0.102,0.813,0.588c1.226,1.439,1.971,3.537,2.686,5.566c0.749,2.16,1.538,4.379,2.939,5.977
		c0.856,0.977,1.776,1.404,2.647,1.221c0.803-0.18,1.401-0.861,1.879-1.406l7.815-8.895c0.282-0.322,0.7-0.801,1.045-0.809
		c0.404,0,0.881,0.652,1.12,0.963c0.915,1.217,1.737,2.656,2.53,4.049c0.414,0.721,0.817,1.436,1.241,2.121
		c0.156,0.254,0.297,0.584,0.447,0.926c0.428,0.982,0.91,2.096,1.913,2.305c1.303,0.279,2.467-1,3.284-1.908l0.127-0.125
		c1.255-1.373,2.609-2.598,3.927-3.775c0.939-0.842,1.902-1.713,2.817-2.619c0.375-0.332,0.832-0.738,1.256-0.738
		c0.54,0.016,1.069,0.729,1.537,1.4l6.637,9.641c0.896,1.299,1.913,1.508,3.066,0.629c1.46-1.111,2.779-2.504,3.912-4.127
		l0.336-0.488c0.676-0.992,1.377-2.014,2.244-2.355c0.913-0.34,2.043,0.146,3.187,0.75l15.504,8.195
		c0.199,0.096,0.52,0.32,0.91,0.584c1.333,0.904,2.417,1.596,3.134,1.596c0.125,0,0.244-0.02,0.345-0.059
		c1.133-0.43,0.716-1.771,0.461-2.578C111.543,116.32,110.613,114.949,109.781,113.742z M66.843,59.694l-0.413-0.136
		c-0.424,0-0.754,0.354-0.765,0.816l-0.097,6.254c-0.462-0.789-0.915-1.592-1.377-2.395c-0.969-1.713-1.975-3.484-3.109-5.099
		c-0.35-0.517-1.202-0.303-1.329,0.34c-0.822,4.087-1.445,8.257-1.873,12.427l-3.381-7.814c-0.229-0.556-1.037-0.608-1.33-0.088
		l-5.264,9.324l0.515-10.56c0.02-0.253-0.068-0.487-0.224-0.651c-0.32-0.341-0.915-0.272-1.158,0.137
		c-4.02,6.667-8.194,13.274-12.418,19.668c0.35-1.119,0.69-2.221,1.031-3.301c1.947-6.213,3.786-12.088,6.287-17.877
		c0.117-0.271,0.087-0.603-0.077-0.856c-0.147-0.219-0.365-0.341-0.604-0.341l-0.428,0.146c-2.812,2.17-5.489,4.726-8.083,7.192
		c-0.442,0.424-0.891,0.846-1.338,1.275c5.941-10.092,12.18-20.564,18.568-31.197c0.643-1.08,1.285-1.795,1.85-2.136
		c0,0,0.866,0.039,3.163,3.066c1.503,1.991,2.988,4.423,3.98,6.034l0.146,0.258c3.503,5.722,7.415,11.635,12.535,18.9L66.843,59.694
		z M79.947,26h3.09c0.861,0,1.567-1.141,1.567-2.002c0-0.856-0.69-1.998-1.567-1.998h-3.09c-0.86,0-1.572,1.131-1.572,1.998
		C78.375,24.854,79.076,26,79.947,26z M85.577,32.098l-2.17,2.18c-0.613,0.613-0.628,1.596-0.019,2.205
		c0.611,0.608,1.596,0.608,2.218-0.005l2.17-2.18c0.614-0.613,0.623-1.596,0.011-2.209C87.174,31.485,86.2,31.475,85.577,32.098z
		 M95.489,35.28C94.642,35.3,94,35.976,94,36.847v3.08C94,40.779,94.6,41,95.455,41h0.02C96.353,41,98,40.809,98,39.927v-3.08
		c0-0.875-1.154-1.571-2.014-1.571L95.489,35.28z"/>
</g>
<g id="Layer_1">
</g>
</svg>
