<?xml version="1.0" encoding="iso-8859-1"?>
<!-- Generator: Adobe Illustrator 16.0.0, SVG Export Plug-In . SVG Version: 6.00 Build 0)  -->
<!DOCTYPE svg PUBLIC "-//W3C//DTD SVG 1.1//EN" "http://www.w3.org/Graphics/SVG/1.1/DTD/svg11.dtd">
<svg version="1.1" xmlns="http://www.w3.org/2000/svg" xmlns:xlink="http://www.w3.org/1999/xlink" x="0px" y="0px" width="128px"
	 height="128px" viewBox="0 0 128 128" style="enable-background:new 0 0 128 128;" xml:space="preserve">
<g id="_x31_25-city">
	<path style="fill:#5D5D5D;" d="M38,18h-5v-7h-8v7h-5v15h-6v88h30V33h-6V18z M21,103h-4v-7h4V103z M21,91h-4v-7h4V91z M21,79h-4v-7
		h4V79z M21,67h-4v-7h4V67z M21,55h-4v-7h4V55z M21,43h-4v-7h4V43z M27,103h-4v-7h4V103z M27,91h-4v-7h4V91z M27,79h-4v-7h4V79z
		 M27,67h-4v-7h4V67z M27,55h-4v-7h4V55z M27,43h-4v-7h4V43z M27,29h-4v-7h4V29z M34,103h-4v-7h4V103z M34,91h-4v-7h4V91z M34,79h-4
		v-7h4V79z M34,67h-4v-7h4V67z M34,55h-4v-7h4V55z M34,43h-4v-7h4V43z M34,29h-4v-7h4V29z M40,103h-4v-7h4V103z M40,91h-4v-7h4V91z
		 M40,79h-4v-7h4V79z M40,67h-4v-7h4V67z M40,55h-4v-7h4V55z M40,36v7h-4v-7H40z M49,121h35V33H49V121z M74,38h4v8h-4V38z M74,52h4
		v7h-4V52z M74,65h4v7h-4V65z M74,78h4v7h-4V78z M74,91h4v7h-4V91z M74,104h4v7h-4V104z M68,38h4v8h-4V38z M68,52h4v7h-4V52z M68,65
		h4v7h-4V65z M68,78h4v7h-4V78z M68,91h4v7h-4V91z M68,104h4v7h-4V104z M61,38h4v8h-4V38z M61,52h4v7h-4V52z M61,65h4v7h-4V65z
		 M61,78h4v7h-4V78z M61,91h4v7h-4V91z M61,104h4v7h-4V104z M55,38h4v8h-4V38z M55,52h4v7h-4V52z M55,65h4v7h-4V65z M55,78h4v7h-4
		V78z M55,91h4v7h-4V91z M55,104h4v7h-4V104z M94,20V7H69v22h20v92h25V20H94z M90,25H73v-5h17V25z M90,15H73v-4h17V15z M110,105H93
		v-5h17V105z M110,94H93v-5h17V94z M110,83H93v-5h17V83z M110,71H93v-5h17V71z M110,60H93v-5h17V60z M110,49H93v-5h17V49z M110,38
		H93v-5h17V38z"/>
</g>
<g id="Layer_1">
</g>
</svg>
