<?xml version="1.0" encoding="iso-8859-1"?>
<!-- Generator: Adobe Illustrator 16.0.0, SVG Export Plug-In . SVG Version: 6.00 Build 0)  -->
<!DOCTYPE svg PUBLIC "-//W3C//DTD SVG 1.1//EN" "http://www.w3.org/Graphics/SVG/1.1/DTD/svg11.dtd">
<svg version="1.1" xmlns="http://www.w3.org/2000/svg" xmlns:xlink="http://www.w3.org/1999/xlink" x="0px" y="0px" width="128px"
	 height="128px" viewBox="0 0 128 128" style="enable-background:new 0 0 128 128;" xml:space="preserve">
<g id="_x31_26-ballon">
	<path style="fill:#5D5D5D;" d="M79.176,95.064c-0.607-0.306-1.346-0.051-1.647,0.561l-6.617,13.456
		c-0.034,0.068-0.06,0.136-0.077,0.213c-1.379,0.606-3.247,1.095-5.977,1.205l0.564-8.308c0.047-0.675-0.467-1.265-1.142-1.312
		c-0.68-0.042-1.467,0.467-1.514,1.146L62,110.432v0.021c-1-0.123-2.88-0.411-3.966-0.776l-6.485-11.699
		c-0.336-0.59-1.038-0.798-1.627-0.467s-0.778,1.082-0.447,1.677l4.529,8.015c-1.002-0.769-1.845-1.257-3.433-0.866
		c-1.299,0.322,0.488,10.103,1.481,14.997c0.331,1.664-0.404,3.668-0.404,3.668h24.773c0,0-0.765-2.105-0.441-3.668
		c0.977-4.83,2.818-14.67,1.503-14.997c-1.155-0.284-1.919-0.098-2.637,0.318l4.895-9.941
		C80.037,96.101,79.787,95.361,79.176,95.064z M66.402,3.085C92.865,4.554,97.866,27.604,97.866,41.79
		c0,12.149-10.323,42.479-24.511,50.634C85.42,79.596,94.49,53.939,94.49,41.79C94.49,27.298,90,3.849,65,3.008V3l0,0v0.008
		c17,0.841,20.088,24.349,20.088,38.84C85.088,53.488,78.034,86,70.206,93h-1.485c5.798-7,11.087-39.512,11.087-51.151
		c0-14.492-2.808-38-14.808-38.84V3c0,0-0.483,0-0.5,0.004C64.488,3,64,3,64,3v0.008c-12,0.841-14.806,24.349-14.806,38.84
		C49.194,53.488,54.482,86,60.281,93h-1.478c-7.836-7-14.889-39.512-14.889-51.151c0-14.492,3.085-38,20.085-38.84V3l0,0l0,0l0,0
		l0,0c0,0,0.042,0,0,0.004C63.958,3,64,3,64,3v0.008C27,3.849,20.591,27.298,20.591,41.79c0,12.808,17.638,47.714,36.363,52.909
		l4.543,1.588c0.578,1.1,1.754,1.851,3.125,1.851c1.389,0,2.578-0.769,3.147-1.88l6.123-2.501c0.009-0.004,0.024,0.142,0.042,0.132
		L74.026,94h-0.008c17.595-8,33.45-39.928,33.45-52.061C107.469,27.752,100.939,4.554,66.402,3.085z M31.254,41.79
		c0-14.373,5.141-37.669,32.542-38.756C39.312,4.129,34.718,27.417,34.718,41.79c0,12.149,6.614,35.522,19.782,50.049
		C36.348,78.857,31.254,53.939,31.254,41.79z"/>
</g>
<g id="Layer_1">
</g>
</svg>
