<?xml version="1.0" encoding="iso-8859-1"?>
<!-- Generator: Adobe Illustrator 16.0.0, SVG Export Plug-In . SVG Version: 6.00 Build 0)  -->
<!DOCTYPE svg PUBLIC "-//W3C//DTD SVG 1.1//EN" "http://www.w3.org/Graphics/SVG/1.1/DTD/svg11.dtd">
<svg version="1.1" xmlns="http://www.w3.org/2000/svg" xmlns:xlink="http://www.w3.org/1999/xlink" x="0px" y="0px" width="128px"
	 height="128px" viewBox="0 0 128 128" style="enable-background:new 0 0 128 128;" xml:space="preserve">
<g id="_x31_27-culture">
	<path style="fill:#5D5D5D;" d="M116.29,108H11.431C10.087,108,9,109.443,9,110.783v5.014c0,1.344,1.087,2.203,2.431,2.203H116.29
		c1.344,0,2.71-0.859,2.71-2.203v-5.014C119,109.443,117.634,108,116.29,108z M116.393,21.411L65.733,9.943
		c-0.509-0.117-1.052-0.174-1.592-0.174c-0.533,0-1.06,0.057-1.589,0.174L11.755,21.411C10.201,21.762,9,22.835,9,24.047v4.461
		C9,30.019,10.927,31,12.965,31H17v3.718C17,36.244,18.69,37,20.726,37h86.836c2.031,0,3.438-0.756,3.438-2.282V31h4.33
		c2.027,0,3.67-0.97,3.67-2.492v-4.461C119,22.835,117.933,21.762,116.393,21.411z M19.715,94c-2.811,0-5.081,2.193-5.081,5.002
		c0,2.799,2.27,4.998,5.081,4.998h88.86c2.809,0,5.08-2.199,5.08-4.998c0-2.809-2.271-5.002-5.08-5.002H107V48h1.575
		c1.406,0,2.535-1.101,2.535-2.5s-1.129-2.5-2.535-2.5h-88.86c-1.404,0-2.536,1.1-2.536,2.5s1.134,2.5,2.536,2.5H21v46H19.715z
		 M82,48h15v46H82V48z M57,48h15v46H57V48z M31,48h15v46H31V48z"/>
</g>
<g id="Layer_1">
</g>
</svg>
