<?xml version="1.0" encoding="iso-8859-1"?>
<!-- Generator: Adobe Illustrator 16.0.0, SVG Export Plug-In . SVG Version: 6.00 Build 0)  -->
<!DOCTYPE svg PUBLIC "-//W3C//DTD SVG 1.1//EN" "http://www.w3.org/Graphics/SVG/1.1/DTD/svg11.dtd">
<svg version="1.1" xmlns="http://www.w3.org/2000/svg" xmlns:xlink="http://www.w3.org/1999/xlink" x="0px" y="0px" width="128px"
	 height="128px" viewBox="0 0 128 128" style="enable-background:new 0 0 128 128;" xml:space="preserve">
<g id="_x31_28-food">
	<path style="fill:#5D5D5D;" d="M32.213,105.451c4.177,2.763,7.729,8.841,6.086,14.917c-0.081,0.314-0.018,0.83,0.171,1.077
		c0.103,0.14,0.341,0.555,0.745,0.555h36.172c0.404,0,0.638-0.485,0.741-0.626c0.193-0.247,0.256-0.702,0.166-1.016
		c-1.635-6.077,1.918-12.078,6.09-14.841C91.862,99.242,98.315,92,101.644,86H12.959C16.278,92,22.732,99.177,32.213,105.451z
		 M11.67,83h91.258c0.278-2,0.512-3,0.695-3h-92.65C11.163,80,11.387,81,11.67,83z M24.003,43.159L6.672,42.809
		c-1.383-0.041-2.578,0.912-2.668,2.153c-0.081,1.251,1.006,2.331,2.412,2.401l17.116,0.847L24.003,43.159z M28.149,56.105
		c-1.109,0.952-2.636,2.259-2.636,4.909c0,1.028,0.691,1.859,1.549,1.859c0.849,0,1.545-0.832,1.545-1.859
		c0-0.651,0.301-1.006,1.339-1.896c1.118-0.952,2.645-2.259,2.645-4.917c0-2.659-1.527-3.959-2.645-4.911
		c-1.038-0.894-1.339-1.251-1.339-1.904c0-0.654,0.301-1.013,1.347-1.904c1.11-0.948,2.637-2.255,2.637-4.902
		c0-2.659-1.527-3.963-2.645-4.916c-1.038-0.898-1.339-1.253-1.339-1.904c0-0.653,0.301-1.013,1.339-1.899
		c1.118-0.957,2.645-2.264,2.645-4.916c0-1.026-0.696-1.855-1.545-1.855c-0.858,0-1.55,0.829-1.55,1.855
		c0,0.647-0.296,1.006-1.347,1.898c-1.109,0.952-2.636,2.259-2.636,4.917c0,2.659,1.527,3.959,2.636,4.911
		c1.051,0.892,1.347,1.251,1.347,1.909c0,0.645-0.296,1.001-1.343,1.891c-1.114,0.95-2.641,2.252-2.641,4.916
		c0,2.659,1.527,3.963,2.636,4.916c1.051,0.892,1.347,1.25,1.347,1.9C29.496,54.854,29.2,55.213,28.149,56.105z M46.204,56.105
		c-1.119,0.952-2.641,2.259-2.641,4.909c0,1.028,0.692,1.859,1.545,1.859c0.853,0,1.545-0.832,1.545-1.859
		c0-0.651,0.305-1.006,1.347-1.896c1.114-0.952,2.637-2.259,2.637-4.917c0-2.659-1.522-3.959-2.637-4.911
		c-1.042-0.894-1.347-1.251-1.347-1.904c0-0.654,0.305-1.013,1.347-1.904c1.114-0.948,2.637-2.255,2.637-4.902
		c0-2.659-1.522-3.963-2.637-4.916c-1.042-0.898-1.347-1.253-1.347-1.904c0-0.653,0.305-1.013,1.347-1.899
		c1.114-0.957,2.637-2.264,2.637-4.916c0-1.026-0.687-1.855-1.544-1.855c-0.859,0-1.546,0.829-1.546,1.855
		c0,0.647-0.3,1.006-1.342,1.898c-1.119,0.952-2.641,2.259-2.641,4.917c0,2.659,1.522,3.959,2.641,4.911
		c1.042,0.892,1.342,1.251,1.342,1.909c0,0.645-0.3,1.001-1.342,1.891c-1.114,0.95-2.641,2.252-2.641,4.916
		c0,2.659,1.522,3.963,2.641,4.916c1.042,0.892,1.342,1.25,1.342,1.9C47.546,54.854,47.246,55.213,46.204,56.105z M119.887,52
		c2.183,0,4.025-1.272,4.11-3.212c0.081-1.936-1.621-3.476-3.8-3.545l-22.47-0.37L65.597,25.589L48.809,15.114L35.12,6.859
		c-1.015-0.631-2.309-0.425-2.893,0.459c-0.602,0.891-0.26,2.157,0.754,2.81l21.531,13.868l17.489,11.217l15.081,9.507L52.285,44.08
		l-0.512,5.5l8.785,0.42l37.245,1.479l17.121,10.793c0.022,0.009,0.049,0.027,0.066,0.036c1.591,0.984,3.603,0.646,4.492-0.755
		c0.897-1.401,0.322-3.341-1.259-4.32l-8.808-5.469L119.802,52H119.887z M11.396,69c-0.467,2-1.172,5-0.898,8h93.598
		c0.277-3-0.432-6-0.895-8H11.396z M36.799,56.105c-1.105,0.952-2.632,2.259-2.632,4.909c0,1.028,0.688,1.859,1.545,1.859
		c0.849,0,1.545-0.832,1.545-1.859c0-0.651,0.301-1.006,1.348-1.896c1.114-0.952,2.632-2.259,2.632-4.917
		c0-2.659-1.518-3.959-2.632-4.911c-1.047-0.894-1.348-1.251-1.348-1.904c0-0.654,0.301-1.013,1.348-1.904
		c1.114-0.948,2.632-2.255,2.632-4.902c0-2.659-1.518-3.963-2.632-4.916c-1.047-0.898-1.348-1.253-1.348-1.904
		c0-0.653,0.301-1.013,1.348-1.899c1.114-0.957,2.632-2.264,2.632-4.916c0-1.026-0.692-1.855-1.545-1.855
		c-0.853,0-1.544,0.829-1.544,1.855c0,0.647-0.297,1.006-1.348,1.898c-1.105,0.952-2.632,2.259-2.632,4.917
		c0,2.659,1.527,3.959,2.632,4.911c1.051,0.892,1.348,1.251,1.348,1.909c0,0.645-0.297,1.001-1.343,1.891
		c-1.109,0.95-2.637,2.252-2.637,4.916c0,2.659,1.527,3.963,2.632,4.916c1.051,0.892,1.348,1.25,1.348,1.9
		C38.147,54.854,37.85,55.213,36.799,56.105z"/>
</g>
<g id="Layer_1">
</g>
</svg>
