<?xml version="1.0" encoding="iso-8859-1"?>
<!-- Generator: Adobe Illustrator 16.0.0, SVG Export Plug-In . SVG Version: 6.00 Build 0)  -->
<!DOCTYPE svg PUBLIC "-//W3C//DTD SVG 1.1//EN" "http://www.w3.org/Graphics/SVG/1.1/DTD/svg11.dtd">
<svg version="1.1" xmlns="http://www.w3.org/2000/svg" xmlns:xlink="http://www.w3.org/1999/xlink" x="0px" y="0px" width="128px"
	 height="128px" viewBox="0 0 128 128" style="enable-background:new 0 0 128 128;" xml:space="preserve">
<g id="_x31_29-ride">
	<path style="fill:#5D5D5D;" d="M31.868,17.175c2.077-0.599,4.303-0.912,6.579-0.912c3.975,0,8.02,0.999,11.542,2.802
		c0.78,0.397,1.649-0.231,1.704-1.202l0.249-4.571c0-4.772-5.376-8.63-10.996-8.63c-5.47,0-10.026,3.687-10.3,8.258l-0.298,2.745
		C30.248,16.606,31.023,17.437,31.868,17.175z M77.957,19.066c3.553-1.798,7.577-2.802,11.547-2.802
		c2.306,0,4.502,0.315,6.579,0.912c0.824,0.229,1.619-0.569,1.495-1.542L97.28,12.89c-0.244-4.569-4.82-8.26-10.301-8.26
		c-5.619,0-10.99,3.86-10.99,8.633l0.243,4.571C76.308,18.835,77.182,19.463,77.957,19.066z M124.801,97.683l-0.129-0.83
		c0-0.055-0.02-0.114-0.02-0.174l-4.631-26.855c-0.597-6.203-4.552-11.609-10.295-14.948l-2.196-19.517
		c0-8.288-8.193-15.06-18.026-15.06c-9.818,0-19.169,6.715-19.169,15.033c0,0.397,0.02,0.827,0.069,1.229l0.13,2.114
		c-1.948-0.805-4.169-1.26-6.529-1.26c-2.37,0-4.591,0.455-6.568,1.285l0.119-2.144c0.06-0.4,0.079-0.8,0.079-1.227
		c0-8.291-9.37-15.033-19.168-15.033c-9.823,0-18.021,6.77-18.021,15.058l-2.201,19.519c-5.753,3.316-9.708,8.745-10.295,14.946
		l-4.621,26.86c0,0.06-0.03,0.114-0.03,0.169l-0.12,0.83C3.08,98.532,3,99.392,3,100.276c0,12.749,11.631,23.094,26,23.094
		c14.375,0,26-10.345,26-23.094V89.703c3,1.376,5.74,2.146,9.005,2.146c3.284,0,5.995-0.771,8.995-2.117v10.544
		c0,12.749,11.631,23.094,26,23.094c14.35,0,26.022-10.345,26.022-23.094C124.992,99.392,124.9,98.537,124.801,97.683z
		 M29.045,115.053c-10.17,0-18.771-6.768-18.771-14.776c0-8.02,8.596-14.768,18.771-14.768c10.166,0,18.772,6.777,18.772,14.768
		C47.817,108.285,39.211,115.053,29.045,115.053z M64.005,84.535c-4.263,0-7.741-2.772-7.741-6.171c0-3.403,3.479-6.176,7.741-6.176
		c4.283,0,7.756,2.772,7.756,6.176C71.761,81.763,68.288,84.535,64.005,84.535z M98.93,115.053
		c-10.176,0-18.767-6.768-18.767-14.776c0-8.02,8.591-14.768,18.767-14.768c10.171,0,18.776,6.777,18.776,14.768
		C117.706,108.285,109.101,115.053,98.93,115.053z"/>
</g>
<g id="Layer_1">
</g>
</svg>
