<?xml version="1.0" encoding="iso-8859-1"?>
<!-- Generator: Adobe Illustrator 16.0.0, SVG Export Plug-In . SVG Version: 6.00 Build 0)  -->
<!DOCTYPE svg PUBLIC "-//W3C//DTD SVG 1.1//EN" "http://www.w3.org/Graphics/SVG/1.1/DTD/svg11.dtd">
<svg version="1.1" xmlns="http://www.w3.org/2000/svg" xmlns:xlink="http://www.w3.org/1999/xlink" x="0px" y="0px" width="128px"
	 height="128px" viewBox="0 0 128 128" style="enable-background:new 0 0 128 128;" xml:space="preserve">
<g id="_x31_3-twitter">
	<g>
		<g>
			<path style="fill:#59595C;" d="M64,0.112c-35.346,0-64,28.653-64,64c0,35.346,28.654,64,64,64c35.347,0,64-28.654,64-64
				C128,28.766,99.348,0.112,64,0.112z M91.13,52.185c0.027,0.604,0.056,1.207,0.056,1.819c0,18.515-14.081,39.854-39.837,39.854
				c-7.912,0-15.269-2.32-21.472-6.299c1.095,0.137,2.215,0.205,3.351,0.205c6.556,0,12.602-2.238,17.406-6.002
				c-6.137-0.109-11.282-4.162-13.065-9.73c0.865,0.164,1.784,0.254,2.683,0.254c1.277,0,2.619-0.174,3.788-0.486
				C37.64,70.511,33,64.848,33,58.058v-0.179c1,1.053,3.85,1.682,6.146,1.75c-3.756-2.509-6.411-6.798-6.411-11.653
				c0-2.568,0.683-4.974,1.886-7.046c6.914,8.475,17.225,14.053,28.869,14.638c-0.244-1.027-0.365-2.098-0.365-3.2
				c0-7.733,6.262-14.001,14.004-14.001c4.023,0,7.664,1.703,10.219,4.426c3.188-0.633,6.188-1.801,8.891-3.405
				c-1.039,3.267-3.27,6.021-6.164,7.746c2.84-0.326,5.543-1.091,8.055-2.198C96.238,47.745,93.888,50.216,91.13,52.185z"/>
		</g>
	</g>
</g>
<g id="Layer_1">
</g>
</svg>
