<?xml version="1.0" encoding="iso-8859-1"?>
<!-- Generator: Adobe Illustrator 16.0.0, SVG Export Plug-In . SVG Version: 6.00 Build 0)  -->
<!DOCTYPE svg PUBLIC "-//W3C//DTD SVG 1.1//EN" "http://www.w3.org/Graphics/SVG/1.1/DTD/svg11.dtd">
<svg version="1.1" xmlns="http://www.w3.org/2000/svg" xmlns:xlink="http://www.w3.org/1999/xlink" x="0px" y="0px" width="128px"
	 height="128px" viewBox="0 0 128 128" style="enable-background:new 0 0 128 128;" xml:space="preserve">
<g id="_x31_30-beach">
	<path style="fill:#5D5D5D;" d="M117.066,110.516c-2.402-1.196-4.883-1.797-7.451-1.797s-5.063,0.601-7.461,1.797
		c-2.222,1.025-4.57,1.543-7.061,1.543s-4.839-0.518-7.07-1.543c-2.393-1.196-4.834-1.797-7.324-1.797
		c-1.27,0-2.524,0.161-3.77,0.474c-1.191,0.298-2.378,0.742-3.545,1.323c-2.393,1.025-4.795,1.543-7.192,1.543
		c-2.402,0-4.8-0.518-7.197-1.543c-2.402-1.196-4.844-1.797-7.324-1.797c-2.485,0-4.927,0.601-7.329,1.797
		c-2.222,1.025-4.575,1.543-7.061,1.543s-4.844-0.518-7.07-1.543c-2.393-1.196-4.883-1.797-7.441-1.797
		c-2.578,0-5.256,0.601-7.644,1.797C12.899,111.541,11,112.059,8,112.059v10.791c3,0,4.899-0.513,7.126-1.543
		c2.388-1.196,4.972-1.802,7.55-1.802c2.563,0,5.096,0.605,7.488,1.802c2.227,1.03,4.608,1.543,7.094,1.543s4.851-0.513,7.072-1.543
		c2.402-1.196,4.889-1.802,7.467-1.802c2.563,0,4.964,0.605,7.195,1.802c2.397,1.03,4.796,1.543,7.199,1.543
		c2.396,0,4.79-0.513,7.192-1.543c1.167-0.586,2.354-1.025,3.546-1.323c1.245-0.312,2.5-0.479,3.77-0.479
		c2.49,0,4.932,0.605,7.324,1.802c2.231,1.03,4.58,1.543,7.07,1.543s4.839-0.513,7.061-1.543c2.397-1.196,4.893-1.802,7.461-1.802
		s5.049,0.605,7.451,1.802c2.231,1.03,4.531,1.543,6.934,1.543v-10.791C121.598,112.059,119.293,111.541,117.066,110.516z
		 M83.009,88.284c-2.388-1.201-4.878-1.797-7.441-1.797c-2.573,0-5.152,0.596-7.55,1.797C65.796,89.31,64,89.827,61,89.827v10.791
		c3,0,4.796-0.513,7.018-1.543c2.397-1.201,4.932-1.797,7.506-1.797c2.562,0,5.075,0.596,7.463,1.797
		c2.236,1.025,4.606,1.543,7.082,1.543c2.485,0,4.854-0.513,7.07-1.543c2.397-1.201,4.891-1.797,7.454-1.797
		c2.568,0,4.963,0.596,7.199,1.797c2.402,1.025,4.967,1.543,7.369,1.543c1.221,0,1.839-0.137,3.839-0.4V89.422
		c-2,0.269-2.617,0.405-3.838,0.405c-2.402,0-4.881-0.518-7.283-1.543c-2.393-1.201-4.877-1.797-7.367-1.797
		c-2.48,0-4.948,0.596-7.346,1.797c-2.217,1.025-4.586,1.543-7.076,1.543C87.614,89.827,85.245,89.31,83.009,88.284z M4,51.067
		l11.948-3.137c0,0,1.011-5.779,3.022-8.911c0,0,0.01,5.171,1.387,7.734l11.895-3.301c0.127-1.941-1.157-4.583-2.856-7.634
		c0,0,3.746,1.802,6.549,6.458L47,39.581V100h7V39.581l11.064,2.695c2.812-4.656,6.68-6.458,6.68-6.458
		c-1.709,3.052-3.032,5.693-2.905,7.634l11.872,3.301c1.383-2.566,1.371-7.734,1.371-7.734c2.017,3.132,3.018,8.911,3.018,8.911
		l11.945,3.137c-4.644-21.077-20.939-23.213-32.76-21.748l0.497-0.425c-2.09-5.017-1.201-9.275-1.201-9.275
		c1.45,3.181,2.822,5.781,4.462,6.831l9.697-7.634c-1.25-2.634-5.4-5.703-5.4-5.703c3.701,0.232,8.955,2.839,8.955,2.839l9.6-7.773
		C66.061-2.797,54.483,18.819,50.528,29.114C46.573,18.819,34.986-2.797,10.143,8.179l9.609,7.773c0,0,5.254-2.605,8.97-2.837
		c0,0-4.155,3.069-5.42,5.703l9.712,7.632c1.641-1.05,3.008-3.647,4.463-6.831c0,0,0.879,4.258-1.211,9.277l0.508,0.425
		C24.942,27.854,8.648,29.991,4,51.067z"/>
</g>
<g id="Layer_1">
</g>
</svg>
