<?xml version="1.0" encoding="iso-8859-1"?>
<!-- Generator: Adobe Illustrator 16.0.0, SVG Export Plug-In . SVG Version: 6.00 Build 0)  -->
<!DOCTYPE svg PUBLIC "-//W3C//DTD SVG 1.1//EN" "http://www.w3.org/Graphics/SVG/1.1/DTD/svg11.dtd">
<svg version="1.1" xmlns="http://www.w3.org/2000/svg" xmlns:xlink="http://www.w3.org/1999/xlink" x="0px" y="0px" width="128px"
	 height="128px" viewBox="0 0 128 128" style="enable-background:new 0 0 128 128;" xml:space="preserve">
<g id="_x31_31-play">
	<path style="fill:#5D5D5D;" d="M52,91l36-27L52,37V91z M106.428,21.574C95.175,10.321,79.914,4,64,4C30.862,4,4,30.862,4,64
		c0,15.914,6.322,31.175,17.572,42.428C32.825,117.678,48.086,124,64,124s31.175-6.322,42.428-17.572
		C117.678,95.175,124,79.914,124,64C124,48.087,117.678,32.825,106.428,21.574z M64,112c-26.461,0-48-21.539-48-48
		c0-26.459,21.539-48,48-48s48,21.541,48,48C112,90.461,90.461,112,64,112z"/>
</g>
<g id="Layer_1">
</g>
</svg>
