<?xml version="1.0" encoding="iso-8859-1"?>
<!-- Generator: Adobe Illustrator 16.0.0, SVG Export Plug-In . SVG Version: 6.00 Build 0)  -->
<!DOCTYPE svg PUBLIC "-//W3C//DTD SVG 1.1//EN" "http://www.w3.org/Graphics/SVG/1.1/DTD/svg11.dtd">
<svg version="1.1" xmlns="http://www.w3.org/2000/svg" xmlns:xlink="http://www.w3.org/1999/xlink" x="0px" y="0px" width="128px"
	 height="128px" viewBox="0 0 128 128" style="enable-background:new 0 0 128 128;" xml:space="preserve">
<g id="_x31_33-relax">
	<path style="fill-rule:evenodd;clip-rule:evenodd;fill:#5D5D5D;" d="M85.392,80.258c1.002,0.042,1.207-0.376,1.299-0.913
		c0.095-0.552,0.144-1.12,0.144-1.697c-0.004-3.894-2.262-7.525-6.175-10.59c-1.157-0.93-2.35-1.109-3.883-0.749
		c-4.248,1.046-9.038,1.637-14.109,1.637c-8.406,0-16.042-1.62-21.717-4.261c1.846,0.167,3.749,0.047,5.692,0.047
		c7.599,0,14.569-0.731,20.029-3.731h-0.004c4.852-2,11.706-5.684,11.662-11.938c-0.022-3.327-2.104-6.312-5.68-8.849
		c-1.067-0.761-2.01-0.888-3.441-0.624c-2.839,0.578-5.952,0.923-9.213,0.923c-4.958,0-9.569-0.725-13.409-1.99l0.056,0.008
		c6.833,0,24.23-2.566,24.207-11.967c-0.016-6.612-10.839-11.97-24.207-11.97s-24.206,5.36-24.206,11.972
		c0,3.641,3.286,6.9,8.475,9.096c-9.536,2.702-15.958,7.782-15.958,13.606c0,4.898,4.546,9.271,11.664,12.144
		C14.566,63.842,6.451,70.275,6.451,77.647c0,10.977,17.995,19.874,40.191,19.874c9.027,0,17.361-1.472,24.068-3.957
		c1.479-0.593,1.415-1.433,1.092-2.771C70.611,85.676,75.207,79.877,85.392,80.258z M104.816,92.257
		c29.214-6.075,16.71-27.563-2.344-3.203c2.614-30.301-20.453-24.454-3.72,0.944c-28.355-12.342-29.118,12.506-0.534,3.931
		C79.128,116.862,101.927,125.872,102,95C116.779,122.107,132.524,103.322,104.816,92.257z"/>
</g>
<g id="Layer_1">
</g>
</svg>
