<?xml version="1.0" encoding="iso-8859-1"?>
<!-- Generator: Adobe Illustrator 16.0.0, SVG Export Plug-In . SVG Version: 6.00 Build 0)  -->
<!DOCTYPE svg PUBLIC "-//W3C//DTD SVG 1.1//EN" "http://www.w3.org/Graphics/SVG/1.1/DTD/svg11.dtd">
<svg version="1.1" xmlns="http://www.w3.org/2000/svg" xmlns:xlink="http://www.w3.org/1999/xlink" x="0px" y="0px" width="128px"
	 height="128px" viewBox="0 0 128 128" style="enable-background:new 0 0 128 128;" xml:space="preserve">
<g id="_x31_34-packages">
	<path style="fill:#5E5E5E;" d="M63.844,19c8.137,0,11.582,5,11.582,11h7.373c0-11-8.42-18.805-18.803-18.805
		C53.614,11.195,45.195,19,45.195,30h7.891C53.086,24,55.707,19,63.844,19z M105.891,34H19.939C12.049,34,8,42.094,8,49.979v57.312
		C8,115.157,12.049,117,19.939,117h85.951c7.873,0,14.109-1.843,14.109-9.708V49.979C120,42.094,113.764,34,105.891,34z
		 M46.135,99.448L21.361,74.427l34.064-8.942L46.135,99.448z M86.143,78.976c-7.941,0-14.373-6.438-14.373-14.381
		c0-7.936,6.432-14.373,14.373-14.373c7.943,0,14.377,6.438,14.377,14.373C100.52,72.538,94.086,78.976,86.143,78.976z"/>
</g>
<g id="Layer_1">
</g>
</svg>
