<?xml version="1.0" encoding="iso-8859-1"?>
<!-- Generator: Adobe Illustrator 16.0.0, SVG Export Plug-In . SVG Version: 6.00 Build 0)  -->
<!DOCTYPE svg PUBLIC "-//W3C//DTD SVG 1.1//EN" "http://www.w3.org/Graphics/SVG/1.1/DTD/svg11.dtd">
<svg version="1.1" xmlns="http://www.w3.org/2000/svg" xmlns:xlink="http://www.w3.org/1999/xlink" x="0px" y="0px" width="128px"
	 height="128px" viewBox="0 0 128 128" style="enable-background:new 0 0 128 128;" xml:space="preserve">
<g id="_x31_35-excursions">
	<path style="fill:#5E5E5E;" d="M64.879,9.425c7.223,0,9.787,4.254,9.787,9.154l7.037,0.094c0-9.224-7.469-16.669-16.686-16.669
		c-9.221,0-16.689,7.445-16.689,16.669l7.51-0.211C55.838,13.631,57.66,9.425,64.879,9.425z M64.002,22.808
		c-28.497,0-51.592,23.103-51.592,51.589c0,28.496,23.095,51.6,51.592,51.6c28.486,0,51.588-23.104,51.588-51.6
		C115.59,45.91,92.488,22.808,64.002,22.808z M76.008,87.012l-12.205,32.947l-9.979-33.795L21.17,75.172l33.745-11.097
		l12.261-33.032l9.92,33.674l33.035,11.1L76.008,87.012z M63.992,66.191c-4.525,0-8.213,3.67-8.213,8.182
		c0,4.58,3.688,8.246,8.213,8.246c4.547,0,8.221-3.666,8.221-8.246C72.213,69.861,68.539,66.191,63.992,66.191z"/>
</g>
<g id="Layer_1">
</g>
</svg>
