<?xml version="1.0" encoding="iso-8859-1"?>
<!-- Generator: Adobe Illustrator 16.0.0, SVG Export Plug-In . SVG Version: 6.00 Build 0)  -->
<!DOCTYPE svg PUBLIC "-//W3C//DTD SVG 1.1//EN" "http://www.w3.org/Graphics/SVG/1.1/DTD/svg11.dtd">
<svg version="1.1" xmlns="http://www.w3.org/2000/svg" xmlns:xlink="http://www.w3.org/1999/xlink" x="0px" y="0px" width="128px"
	 height="128px" viewBox="0 0 128 128" style="enable-background:new 0 0 128 128;" xml:space="preserve">
<g id="_x31_36-bus">
	<path style="fill:#59595C;" d="M107.453,21.335c-1.305-6.522-5.404-9.126-11.666-11.737c-6.168-2.572-20.918-5.638-31.83-5.729
		c-10.91,0.092-25.68,3.157-31.842,5.729c-6.27,2.611-10.28,5.215-11.59,11.737L16,57.49V107h6v8c0,12,16,12,16,0v-8h25.451h0.078
		H90v8c0,12,16,12,16,0v-8h6V57.49L107.453,21.335z M46,11h17.529H82c4,0,4,8,0,8H63.482H46C42,19,42,11,46,11z M30.754,91.672
		c-3.689,0-6.68-2.994-6.68-6.68c0-3.695,2.99-6.686,6.68-6.686c3.693,0,6.682,2.99,6.682,6.686
		C37.436,88.678,34.447,91.672,30.754,91.672z M63.529,63H28.066c-3.469,0-4.199-3.348-3.855-5.859l3.654-26.533
		C28.367,27.418,29.447,25,33.574,25h29.908H94.42c4.135,0,5.215,1.991,5.717,5.183l3.648,27.011
		C104.129,59.706,103.41,63,99.934,63H63.529z M97.238,91.672c-3.695,0-6.686-2.994-6.686-6.68c0-3.695,2.99-6.686,6.686-6.686
		c3.699,0,6.688,2.99,6.688,6.686C103.926,88.678,100.938,91.672,97.238,91.672z"/>
</g>
<g id="Layer_1">
</g>
</svg>
