<?xml version="1.0" encoding="iso-8859-1"?>
<!-- Generator: Adobe Illustrator 16.0.0, SVG Export Plug-In . SVG Version: 6.00 Build 0)  -->
<!DOCTYPE svg PUBLIC "-//W3C//DTD SVG 1.1//EN" "http://www.w3.org/Graphics/SVG/1.1/DTD/svg11.dtd">
<svg version="1.1" xmlns="http://www.w3.org/2000/svg" xmlns:xlink="http://www.w3.org/1999/xlink" x="0px" y="0px" width="128px"
	 height="128px" viewBox="0 0 128 128" style="enable-background:new 0 0 128 128;" xml:space="preserve">
<g id="_x31_37-vh">
	<path style="fill:#59595C;" d="M56.647,108.707c-24.513,0-44.451-20.053-44.451-44.707c0-2.852,0.296-5.648,0.805-8.355
		c1.314,5.739,4.429,9.453,8.257,11.57c5.119,2.82,4.989,9.632,7.031,15.028c1.394,3.671,4.888,7.649,8.556,10.605
		c0.873,0.704,2.072,0.871,3.111,0.429c1.029-0.439,1.742-1.425,1.847-2.551c0.678-7.07,4.181-14.683,9.479-19.409
		c6.709-5.978,8.239-13.099,5.365-21.192c-2.878-8.1-9.963-12.331-18.97-10.986c-9.002,1.35,7.806-9.884-3.01-13.958
		c6.495-3.728,13.98-5.893,21.98-5.893c21.6,0,39.575,15.594,43.572,36.15l9.422,0.537c-3.863-25.989-26.083-45.936-52.994-45.936
		C27.014,10.039,3,34.194,3,64c0,29.802,24.014,53.961,53.647,53.961c1.884,0,3.74-0.104,5.568-0.286l-5.155-8.971
		C56.918,108.704,56.788,108.707,56.647,108.707z M112.178,90.727l-7.052,0.041c-0.731,0-1.411-0.396-1.778-1.041l-7.249-12.636
		L125,71.1l-2.405-4.201c-0.343-0.605-0.968-0.988-1.672-1.026L88.608,64.05l-9.794-17.062c-1.694-2.958-5.458-3.964-8.399-2.266
		c-2.932,1.719-3.936,5.486-2.237,8.441l9.786,17.069l-14.599,29.07c-0.309,0.62-0.296,1.354,0.054,1.955l2.399,4.203l19.637-22.188
		l7.258,12.633c0.367,0.648,0.357,1.439-0.015,2.072l-3.56,6.126c-0.37,0.648-0.37,1.436,0,2.083l1.458,2.521l24.822-14.417
		l-1.449-2.53C113.6,91.121,112.913,90.727,112.178,90.727z"/>
</g>
<g id="Layer_1">
</g>
</svg>
