<?xml version="1.0" encoding="iso-8859-1"?>
<!-- Generator: Adobe Illustrator 16.0.0, SVG Export Plug-In . SVG Version: 6.00 Build 0)  -->
<!DOCTYPE svg PUBLIC "-//W3C//DTD SVG 1.1//EN" "http://www.w3.org/Graphics/SVG/1.1/DTD/svg11.dtd">
<svg version="1.1" xmlns="http://www.w3.org/2000/svg" xmlns:xlink="http://www.w3.org/1999/xlink" x="0px" y="0px" width="128px"
	 height="128px" viewBox="0 0 128 128" style="enable-background:new 0 0 128 128;" xml:space="preserve">
<g id="_x31_38-clock">
	<path style="fill:#59595C;" d="M63.976,1.171c17.352,0,33.086,7.062,44.438,18.412c11.398,11.354,18.416,27.09,18.416,44.44
		c0,17.347-7.018,33.035-18.416,44.44c-11.352,11.354-27.086,18.366-44.438,18.366c-17.347,0-33.039-7.013-44.392-18.366
		C8.188,97.058,1.171,81.369,1.171,64.022c0-17.35,7.018-33.086,18.413-44.44C30.937,8.233,46.629,1.171,63.976,1.171L63.976,1.171z
		 M59.213,38.592c0-2.68,2.128-4.806,4.763-4.806c2.682,0,4.805,2.126,4.805,4.806l1.915,18.668
		c1.743,1.698,2.806,4.125,2.806,6.763c0,0.127,0,0.212,0,0.341l18.71,21.092c1.873,1.869,1.873,4.887,0,6.807
		c-1.869,1.869-4.887,1.869-6.759,0l-21.9-18.716c-5.06-0.253-9.101-4.421-9.101-9.523c0-2.682,1.105-5.064,2.85-6.806
		L59.213,38.592z M13.883,55.514c4.338,0.258,7.784,3.828,7.784,8.25c0,4.426-3.489,8.042-7.868,8.254
		c1.701,10.841,6.848,20.541,14.245,27.938c7.356,7.349,16.968,12.463,27.726,14.204c0.339-4.215,3.869-7.577,8.206-7.577
		c4.339,0,7.911,3.362,8.251,7.577c10.715-1.741,20.37-6.855,27.724-14.204c7.404-7.448,12.549-17.139,14.249-27.982
		c-4.13-0.427-7.358-3.956-7.358-8.21c0-4.252,3.19-7.734,7.269-8.203c-1.78-10.634-6.845-20.158-14.159-27.472
		c-7.354-7.399-17.009-12.502-27.724-14.248c-0.34,4.253-3.912,7.616-8.251,7.616c-4.337,0-7.867-3.363-8.206-7.616
		C45.012,15.587,35.4,20.69,28.044,28.089C20.775,35.363,15.671,44.888,13.883,55.514L13.883,55.514z"/>
</g>
<g id="Layer_1">
</g>
</svg>
