<?xml version="1.0" encoding="iso-8859-1"?>
<!-- Generator: Adobe Illustrator 16.0.0, SVG Export Plug-In . SVG Version: 6.00 Build 0)  -->
<!DOCTYPE svg PUBLIC "-//W3C//DTD SVG 1.1//EN" "http://www.w3.org/Graphics/SVG/1.1/DTD/svg11.dtd">
<svg version="1.1" xmlns="http://www.w3.org/2000/svg" xmlns:xlink="http://www.w3.org/1999/xlink" x="0px" y="0px" width="128px"
	 height="128px" viewBox="0 0 128 128" style="enable-background:new 0 0 128 128;" xml:space="preserve">
<g id="_x31_39-van">
	<path style="fill:#59595C;" d="M24.004,102.685c0.162,5.836,5.673,11.069,11.426,10.847c6.086-0.231,10.879-5.312,10.75-11.402
		c-0.135-6.095-5.179-10.865-11.329-10.718C28.765,91.569,23.824,96.7,24.004,102.685z M81.477,102.166
		c-0.144,5.983,4.821,11.199,10.833,11.365c6.109,0.167,11.051-4.631,11.171-10.855c0.121-6.341-4.386-11.106-10.661-11.265
		C86.752,91.254,81.62,96.117,81.477,102.166z M4,93.037c-0.019,5.535,2.732,8.693,7.929,9.244c1.635,0.177,4.507-1.292,5.091-2.714
		c4.575-11.176,10.041-15.835,18.989-15.446c8.776,0.395,14.385,5.817,17.706,17.109c0.061,0.186,0.223,0.352,0.843,1.297
		c3.006,0,6.113-0.111,9.203,0.023c5.831,0.254,10.837,0.939,12.537-7.508c1.455-7.221,9.615-11.218,17.008-10.912
		c7.35,0.306,13.996,5.196,16.451,12.213c0.676,1.913,1.144,3.9,1.662,5.721c10.606,0.973,14.256-3.09,11.89-12.95
		c-5.358-22.324-10.801-44.625-16.164-66.936c-1.228-5.113-4.058-7.744-9.597-7.716c-28.002,0.111-56.009,0.028-84.016,0.074
		c-6.623,0.009-9.457,2.797-9.467,9.42C3.996,46.976,4.083,70.01,4,93.037z M85,25.8c12-1.246,12.437-1.246,14.858,10.231
		c0.557,2.621,0.873,5.275,1.476,7.883c4.455,19.049,5.147,17.082-14.588,16.863C86.195,60.769,86,60.361,85,60.055V25.8z M51,26h24
		v35H51V26z M15.112,30.668c0.093-1.802,2.285-4.905,3.72-5.007C26.164,25.152,34,25.43,41,25.43v35.45
		c-7,0-14.217-0.023-21.033,0.014c-3.678,0.023-5.022-1.792-4.981-5.386C15.07,47.226,14.705,38.931,15.112,30.668z"/>
</g>
<g id="Layer_1">
</g>
</svg>
