<?xml version="1.0" encoding="iso-8859-1"?>
<!-- Generator: Adobe Illustrator 16.0.0, SVG Export Plug-In . SVG Version: 6.00 Build 0)  -->
<!DOCTYPE svg PUBLIC "-//W3C//DTD SVG 1.1//EN" "http://www.w3.org/Graphics/SVG/1.1/DTD/svg11.dtd">
<svg version="1.1" xmlns="http://www.w3.org/2000/svg" xmlns:xlink="http://www.w3.org/1999/xlink" x="0px" y="0px" width="128px"
	 height="128px" viewBox="0 0 128 128" style="enable-background:new 0 0 128 128;" xml:space="preserve">
<g id="_x31_4-googleplus">
	<path style="fill:#59595C;" d="M64,0C28.655,0,0,28.653,0,64c0,35.346,28.654,64,64,64c35.347,0,64-28.654,64-64
		C128,28.653,99.348,0,64,0z M69.611,81.6c-6.94,9.764-20.874,12.615-31.744,8.433c-10.91-4.156-18.636-15.68-17.716-27.428
		c0.239-14.373,13.453-26.961,27.827-26.482c6.887-0.32,13.361,2.677,18.636,6.887c-2.251,2.557-4.582,5.021-7.074,7.327
		c-6.34-4.383-15.359-5.635-21.7-0.573c-9.071,6.274-9.485,21.086-0.759,27.84c8.485,7.699,24.523,3.876,26.868-7.913
		c-5.315-0.08-10.644,0-15.959-0.173c-0.013-3.17-0.026-6.34-0.013-9.511c8.885-0.026,17.77-0.04,26.668,0.027
		C75.18,67.493,74.194,75.433,69.611,81.6z M108,67.945c-3,0.026-5.342,0.051-8.006,0.077C99.969,70.687,99.916,73,99.903,76h-7.939
		c-0.027-3,0.001-5.313-0.024-7.963C89.287,68.01,87,67.972,84,67.945v-7.925c3-0.027,5.275-0.041,7.939-0.054
		C91.951,57.303,91.951,55,91.977,52h7.927c0.013,3,0.065,5.316,0.091,7.967c2.652,0.026,5.006,0.027,8.006,0.054V67.945z"/>
</g>
<g id="Layer_1">
</g>
</svg>
