<?xml version="1.0" encoding="iso-8859-1"?>
<!-- Generator: Adobe Illustrator 16.0.0, SVG Export Plug-In . SVG Version: 6.00 Build 0)  -->
<!DOCTYPE svg PUBLIC "-//W3C//DTD SVG 1.1//EN" "http://www.w3.org/Graphics/SVG/1.1/DTD/svg11.dtd">
<svg version="1.1" xmlns="http://www.w3.org/2000/svg" xmlns:xlink="http://www.w3.org/1999/xlink" x="0px" y="0px" width="128px"
	 height="128px" viewBox="0 0 128 128" style="enable-background:new 0 0 128 128;" xml:space="preserve">
<g id="_x31_40-parking">
	<g id="_x32_-parking">
		<path style="fill:#595858;" d="M64,4C30.918,4,4,30.918,4,64c0,33.088,26.918,60,60,60s60-26.912,60-60C124,30.918,97.082,4,64,4z
			 M64,113.09c-27.07,0-49.09-22.02-49.09-49.09c0-27.064,22.02-49.09,49.09-49.09S113.096,36.936,113.096,64
			C113.096,91.07,91.07,113.09,64,113.09z M58.129,68.928h23.49V57.18h-23.49V43.914h24.914V32.078H43.639v63.844h40.723V84.086
			H58.129V68.928z"/>
	</g>
</g>
<g id="Layer_1">
</g>
</svg>
