<?xml version="1.0" encoding="iso-8859-1"?>
<!-- Generator: Adobe Illustrator 16.0.0, SVG Export Plug-In . SVG Version: 6.00 Build 0)  -->
<!DOCTYPE svg PUBLIC "-//W3C//DTD SVG 1.1//EN" "http://www.w3.org/Graphics/SVG/1.1/DTD/svg11.dtd">
<svg version="1.1" xmlns="http://www.w3.org/2000/svg" xmlns:xlink="http://www.w3.org/1999/xlink" x="0px" y="0px" width="128px"
	 height="128px" viewBox="0 0 128 128" style="enable-background:new 0 0 128 128;" xml:space="preserve">
<g id="_x31_41-band">
	<path style="fill:#58585B;" d="M104.062,60.025c0.438-3.98,0.781-8.85,0.607-14.517c-0.088-2.832-0.315-5.864-0.77-9.08
		c-0.112-0.803-0.244-1.618-0.393-2.444c-0.146-0.826-0.309-1.663-0.494-2.512c-0.372-1.693-0.818-3.432-1.381-5.207
		c-0.564-1.772-1.23-3.587-2.064-5.418c-0.828-1.834-1.822-3.689-3.042-5.532c-1.221-1.839-2.682-3.667-4.463-5.374
		c-0.894-0.851-1.865-1.671-2.921-2.435c-1.059-0.763-2.201-1.467-3.418-2.088c-0.609-0.31-1.236-0.596-1.881-0.859
		c-0.321-0.132-0.648-0.258-0.979-0.377c-0.164-0.06-0.33-0.119-0.495-0.172l-0.251-0.085c-0.038-0.013-0.085-0.028-0.136-0.043
		l-0.147-0.045L81.54,3.75L81.401,3.71l-0.085-0.027L81.148,3.63l-0.085-0.026c-0.216-0.052-0.115-0.03-0.188-0.048
		c-0.256-0.073-0.514-0.145-0.771-0.217c-0.261-0.071-0.523-0.141-0.785-0.211c-0.268-0.068-0.535-0.136-0.802-0.204
		c-2.159-0.531-4.496-0.982-7.064-1.187c-1.281-0.099-2.62-0.134-4.005-0.075c-1.386,0.058-2.816,0.214-4.261,0.49
		c-1.445,0.275-2.906,0.665-4.33,1.185c-1.426,0.516-2.816,1.15-4.137,1.877c-1.321,0.728-2.567,1.551-3.733,2.43
		c-1.166,0.878-2.249,1.817-3.259,2.788c-1.014,0.973-1.947,1.973-2.813,2.998c-0.443,0.511-0.849,1.027-1.264,1.546
		c-0.395,0.519-0.802,1.042-1.173,1.566c-1.516,2.104-2.828,4.239-4.015,6.393c-0.304,0.539-0.577,1.076-0.865,1.617
		c-0.28,0.54-0.547,1.081-0.819,1.623c-0.258,0.54-0.521,1.083-0.775,1.625c-0.247,0.542-0.501,1.086-0.736,1.629
		c-0.964,2.174-1.83,4.357-2.633,6.545c-0.802,2.188-1.532,4.381-2.208,6.575c-0.675,2.195-1.302,4.392-1.881,6.591
		c-0.569,2.16-1.137,4.516-1.602,6.551l-0.376,1.705c-0.122,0.553-0.239,1.109-0.354,1.668c-0.233,1.109-0.449,2.232-0.662,3.353
		c-0.419,2.247-0.79,4.515-1.114,6.802c-0.638,4.577-1.076,9.238-1.145,14.029c-0.063,4.79,0.22,9.715,1.251,14.812
		c0.271,1.276,0.584,2.561,0.956,3.848c0.382,1.294,0.83,2.588,1.35,3.88c1.035,2.584,2.423,5.165,4.181,7.551
		c0.881,1.188,1.855,2.325,2.906,3.375c1.049,1.053,2.177,2.015,3.342,2.875c1.167,0.86,2.373,1.617,3.587,2.271
		c1.214,0.657,2.434,1.213,3.638,1.687c2.413,0.944,4.755,1.569,6.981,2.02c0.28,0.055,0.559,0.109,0.837,0.162
		c0.292,0.054,0.584,0.108,0.876,0.16c0.234,0.035,0.469,0.072,0.701,0.107c0.061,0.012-0.011-0.006,0.158,0.028l0.131,0.02
		l0.261,0.041c0.175,0.029,0.35,0.05,0.524,0.073c1.397,0.18,2.794,0.241,4.159,0.189c1.366-0.053,2.698-0.213,3.979-0.461
		c1.278-0.25,2.504-0.587,3.671-0.984c2.333-0.803,4.426-1.85,6.308-3.007c1.88-1.161,3.559-2.429,5.082-3.745
		c1.525-1.313,2.889-2.68,4.146-4.053c1.255-1.375,2.389-2.766,3.439-4.147c0.523-0.691,1.021-1.384,1.5-2.072
		c0.482-0.688,0.942-1.372,1.383-2.055c1.761-2.729,3.238-5.385,4.507-7.919c2.533-5.07,4.268-9.636,5.539-13.431
		c1.269-3.797,2.978-6.828,3.495-8.899c0.255-1.036,0.439-1.825,0.567-2.386c0.114-0.515,0.174-0.78,0.174-0.78l0.004-0.017
		l0.176-0.818c0.198-1.086-0.63-1.341-0.428-2.388C103.076,67.09,103.621,64.002,104.062,60.025z M43.241,77.507
		c-0.277,1.265-1.529,2.066-2.794,1.789l-12.679-2.775c-1.267-0.277-2.068-1.529-1.791-2.794l6.909-31.56
		c0.277-1.266,1.528-2.067,2.795-1.792l12.678,2.776c1.266,0.278,2.069,1.529,1.791,2.795L43.241,77.507z M90.851,69.365
		c-0.106,0.44-0.148,0.688-0.156,0.73c-0.012,0.054-0.069,0.31-0.169,0.753c-0.108,0.462-0.276,1.185-0.517,2.111
		c-0.478,1.854-0.327,4.563-1.571,7.899c-0.622,1.667-1.367,3.489-2.272,5.42c-0.904,1.931-1.963,3.973-3.215,6.062
		c-1.255,2.087-2.698,4.224-4.368,6.306c-0.415,0.521-0.846,1.037-1.289,1.551c-0.444,0.511-0.904,1.015-1.377,1.51
		c-0.473,0.498-0.956,0.989-1.456,1.465c-0.503,0.476-1.016,0.938-1.543,1.388c-1.05,0.904-2.163,1.737-3.309,2.484
		c-1.147,0.739-2.331,1.387-3.523,1.889c-1.192,0.504-2.386,0.864-3.525,1.045c-1.139,0.187-2.212,0.188-3.191,0.034
		c-0.491-0.078-0.961-0.197-1.416-0.352c-0.057-0.02-0.113-0.037-0.169-0.06l-0.084-0.03l-0.043-0.016
		c0.022,0.005,0.035,0.007,0.041,0.007c-0.015-0.005-0.056-0.017-0.056-0.018c-0.228-0.068-0.453-0.138-0.68-0.207
		c-0.169-0.059-0.338-0.117-0.507-0.176c-0.182-0.065-0.363-0.131-0.546-0.196c-1.452-0.53-2.781-1.134-3.915-1.81
		c-1.141-0.671-2.074-1.409-2.826-2.194c-0.753-0.791-1.343-1.631-1.844-2.61c-0.504-0.977-0.919-2.097-1.254-3.392
		c-0.165-0.646-0.304-1.334-0.43-2.049c-0.119-0.725-0.215-1.478-0.292-2.258c-0.299-3.139-0.216-6.695,0.095-10.397
		c0.316-3.709,0.869-7.577,1.562-11.502c0.345-1.964,0.727-3.942,1.13-5.935c0.211-0.994,0.41-1.991,0.632-2.992
		c0.108-0.499,0.212-0.999,0.326-1.501l0.324-1.459c0.494-2.178,0.931-4.025,1.421-6.048c0.49-1.983,0.99-3.948,1.515-5.887
		c0.134-0.481,0.266-0.965,0.397-1.447c0.136-0.48,0.271-0.959,0.406-1.438c0.139-0.475,0.277-0.948,0.417-1.422
		c0.142-0.469,0.284-0.939,0.425-1.408c0.575-1.869,1.178-3.695,1.812-5.463c0.634-1.769,1.305-3.476,2.015-5.087l0.267-0.603
		l0.273-0.588c0.177-0.397,0.365-0.773,0.55-1.155c0.374-0.75,0.756-1.482,1.148-2.166c0.191-0.354,0.395-0.674,0.59-1.011
		c0.203-0.315,0.399-0.645,0.604-0.94c0.203-0.312,0.408-0.594,0.609-0.885l0.307-0.415c0.103-0.138,0.206-0.262,0.308-0.395
		c0.827-1.031,1.64-1.874,2.46-2.518c0.82-0.65,1.643-1.136,2.623-1.511c0.976-0.371,2.128-0.621,3.461-0.732
		c1.66-0.136,3.31-0.112,4.421,0.077c0.198,0.034,0.4,0.041,0.601,0.06c0.203,0.023,0.405,0.047,0.607,0.07
		c0.204,0.026,0.411,0.054,0.615,0.079c0,0,0,0,0.001,0c0.011-0.001,0.128,0.023-0.016-0.009l0.087,0.012l0.176,0.027l0.087,0.014
		c0.029,0.003,0.022,0.001,0.035,0.002l0.047-0.001l0.021-0.001c0.007-0.002,0.017-0.002,0.035,0.002l0.088,0.011
		c0.061,0.006,0.12,0.014,0.18,0.024c0.119,0.016,0.238,0.038,0.357,0.06c0.237,0.047,0.477,0.102,0.715,0.17
		c0.954,0.272,1.929,0.724,2.885,1.369c0.957,0.644,1.89,1.47,2.761,2.426c0.873,0.957,1.674,2.043,2.409,3.195
		c0.724,1.158,1.385,2.379,1.96,3.642c0.288,0.629,0.562,1.266,0.816,1.908c0.255,0.643,0.488,1.291,0.709,1.939
		c0.221,0.649,0.427,1.3,0.616,1.95c0.188,0.651,0.36,1.302,0.52,1.949c0.644,2.589,1.056,5.135,1.319,7.555
		c0.262,2.422,0.366,4.721,0.375,6.852c0.011,2.133-0.075,4.1-0.21,5.874c-0.271,3.551-0.718,6.33-1.062,8.214
		C92.011,68.162,91.133,68.216,90.851,69.365z M96.371,76.465c-1.882,0-3.409-1.527-3.409-3.409c0-1.885,1.527-3.411,3.409-3.411
		c1.885,0,3.412,1.526,3.412,3.411C99.783,74.938,98.256,76.465,96.371,76.465z"/>
</g>
<g id="Layer_1">
</g>
</svg>
