<?xml version="1.0" encoding="iso-8859-1"?>
<!-- Generator: Adobe Illustrator 16.0.0, SVG Export Plug-In . SVG Version: 6.00 Build 0)  -->
<!DOCTYPE svg PUBLIC "-//W3C//DTD SVG 1.1//EN" "http://www.w3.org/Graphics/SVG/1.1/DTD/svg11.dtd">
<svg version="1.1" xmlns="http://www.w3.org/2000/svg" xmlns:xlink="http://www.w3.org/1999/xlink" x="0px" y="0px" width="128px"
	 height="128px" viewBox="0 0 128 128" style="enable-background:new 0 0 128 128;" xml:space="preserve">
<g id="_x31_42-magic-kingdom">
	<path style="fill:#5C5C5C;" d="M64.002,4C30.86,4,4,30.861,4,64c0,33.14,26.86,60,60.002,60C97.142,124,124,97.14,124,64
		C124,30.861,97.142,4,64.002,4z M68.638,9.58c6.092,3.202,9.672-1.432,13.997,1.36c-5.086-0.252-6.349,4.537-14.293,2.401
		C68.204,12.139,68.301,10.89,68.638,9.58z M69.043,14.021c1.209,6.029,4.518,15.054,9.903,27.081
		c-3.527-2.876-6.637-6.003-9.351-9.377c-3.293,4.427-6.572,7.917-9.831,10.458C63.844,36.262,67.438,26.494,69.043,14.021z
		 M80.754,67.203l3.906-0.387l-1.3,7.885L72.88,73.87l-0.574-19.438l2.383-4.539l4.055,0.147l-2.837,5.329l-0.282,16.529
		l5.697-0.729L80.754,67.203z M81.27,65.049c2.137-2.55,4.046-5.549,5.738-9.018c0.85,2.718,2.354,5.646,4.539,8.779L81.27,65.049z
		 M49.436,76.971l-0.603-12.857l3.688,0.285l-1.562,15.175l-9.72-0.092l-0.664-6.201l3.462-0.179l-0.184,4.481L49.436,76.971z
		 M61.669,49.726l3.901,0.167l3.049,7.893l-1.256,13.988l-10.601,0.811l-0.612-7.438l3.777-0.983l-0.658,5.111l5.679,0.459
		l0.503-12.317L61.669,49.726z M76.969,45.799l-1.005,2.35l-12.102-0.088l-1.265-3.642L76.969,45.799z M63.788,43.129
		c1.937-2.368,3.964-5.506,6.103-9.401c1.597,3.177,3.416,6.175,5.499,8.979L63.788,43.129z M57.312,99.722
		c-11.38-28.489,23.805-31.925,13.201-0.634C74.29,73.116,54.354,73.856,57.312,99.722z M48.562,62.731
		c1.94-2.841,3.651-5.601,5.151-8.242c1.532,2.768,3.298,5.329,5.282,7.685L48.562,62.731z M53.771,52.232
		c-2.109,2.499-4.251,4.734-6.399,6.719c2.342-5.944,4.251-13.208,5.726-21.789c0.774,4.444,3.069,11.86,6.905,22.271
		C57.581,57.421,55.514,55.01,53.771,52.232z M49.385,93.894l-3.563,0.962l1.084-10.571l2.082-0.109L49.385,93.894z M82.735,100.299
		l-0.263,3.158l-37.206-0.647l-0.145-1.511L82.735,100.299z M76.734,88.581l2.064-10.424l1.241,0.024l1.135,10.495L76.734,88.581z
		 M86.08,106.078l-0.127,1.467l-46.276-0.157l0.134-3.778L86.08,106.078z M62.047,32.943c-1.752,4.109-7.43,1.622-8.939,3.259
		c-0.35-0.93-0.584-1.943-0.694-3.032C55.988,31.153,58.323,35.31,62.047,32.943z M47.724,42.171
		c-2.425,5.646-8.44,3.161-10.336,5.186c-0.197-0.926-0.661-2.189-1.385-3.78C37.277,41.881,44.222,45.499,47.724,42.171z
		 M37.594,48.139c2.159,7.219,4.92,14.718,8.082,21.568c-2.548-1.959-5.136-5.187-7.116-8.514c-3.11,3.168-5.976,5.703-8.62,7.562
		C33.349,61.658,35.897,54.783,37.594,48.139z M38.457,62.832c0.804,1.828,2.431,4.63,4.871,8.411l-10.623-1.034
		C35.006,67.707,36.919,65.242,38.457,62.832z M32.8,72.181l3.754,0.019l-0.63,5.183l4.731,3.921l1.641,19.094l-4.421,1.457
		l0.669-17.498l-5.459-5.142L32.8,72.181z M37.354,111.379l0.108-1.507l52.667-1.058l0.111,3.543L37.354,111.379z M92.135,78.862
		l-3.149,2.901l0.689,19.282l-4.326-1.084l0.753-19.597l3.598-2.883L88.87,67.123l4.546-0.623L92.135,78.862z M87.086,54.031
		c-2.788,3.455-5.398,6.064-7.859,7.808c3.224-6.505,5.89-15.026,7.977-25.545c1.62,8.862,3.849,17.738,6.702,26.609
		C91.295,60.159,89.013,57.201,87.086,54.031z M86.959,35.443c-0.251-0.999-0.407-2.407-0.461-4.223
		c4.189-1.069,7.474,2.22,11.568-0.091C96.089,34.748,88.256,32.815,86.959,35.443z"/>
</g>
<g id="Layer_1">
</g>
</svg>
