<?xml version="1.0" encoding="iso-8859-1"?>
<!-- Generator: Adobe Illustrator 16.0.0, SVG Export Plug-In . SVG Version: 6.00 Build 0)  -->
<!DOCTYPE svg PUBLIC "-//W3C//DTD SVG 1.1//EN" "http://www.w3.org/Graphics/SVG/1.1/DTD/svg11.dtd">
<svg version="1.1" xmlns="http://www.w3.org/2000/svg" xmlns:xlink="http://www.w3.org/1999/xlink" x="0px" y="0px" width="128px"
	 height="128px" viewBox="0 0 128 128" style="enable-background:new 0 0 128 128;" xml:space="preserve">
<g id="_x31_44-hollywood-studio">
	<g>
		<path style="fill:#5C5C5C;" d="M63.998,4C30.864,4,4.001,30.865,4.001,64.002C4.001,97.138,30.864,124,63.998,124
			c33.138,0,60.001-26.862,60.001-59.998C123.999,30.865,97.136,4,63.998,4z M84.178,62.594c-0.105,0.096-0.233,0.122-0.384,0.104
			c-0.899-0.124-2.565-2.075-3.833-3.113c-0.215-0.169-0.413-0.322-0.597-0.43c0.211-2.54-0.145-4.746-0.926-6.627
			c-2.347-5.631-8.529-8.31-14.771-8.227c-8.317,0.107-16.73,5.102-16.275,14.509c7.559-0.61,18.471-1.751,26.817,0
			c-0.062,0.404-0.628,0.291-1.033,0.345c-2.597-0.244-5.209-0.318-7.789-0.248c-7.73,0.203-15.17,1.69-21.087,3.688
			c-0.89-8.434,2.819-14.267,8.286-17.469c3.284-1.916,7.199-2.888,11.139-2.906C74.233,42.174,84.916,48.923,84.178,62.594z
			 M85.205,68.099c-0.262,0.302-0.367,0.772-0.343,1.37c-1.566,0.196-2.14-0.607-3.778-0.343v-1.722
			c0.909,0.051,1.662,0.258,2.438,0.444c0.521,0.124,1.034,0.252,1.683,0.243V68.099L85.205,68.099z M72.663,69.915
			c3.429,0.083,6.846,0.383,10.137,0.926c-2.514,15.968-32.393,16.806-38.5,3.439C51.955,71.381,62.369,69.671,72.663,69.915z
			 M42.236,68.092c-0.022-1.281,1.527-0.992,2.749-1.027C45.609,68.882,42.453,69.237,42.236,68.092z M45.674,70.498
			c0.812-2.968-0.031-7.586,3.434-7.908v0.004h0.004v7.908h-3.438V70.498L45.674,70.498z M75.581,67.753
			c-1.416,0.022-3.127,0.062-4.971,0.104c-6.183,0.148-14.078,0.277-19.618-0.368c-0.274-0.028-0.591-0.05-0.852-0.084
			c0.122-1.46,1.414-1.247,2.486-1.094c0.358,0.05,0.692,0.095,0.951,0.062c4.26-0.471,10.112-0.55,14.785-0.345
			c2.625,0.117,6.069-0.233,7.218,1.722h-0.006L75.581,67.753z M76.27,69.121c1.226-2.864,0.007-8.934,4.471-7.561v0.004l0,0
			c-0.028,2.936-0.884,5.052-0.69,8.206c0,0.017,0,0.029,0,0.043c-1.17,0.081-2.054-0.126-2.875-0.398
			c-0.304-0.1-0.622-0.178-0.905-0.289V69.121L76.27,69.121z M34.797,36.992c1.619-6.325,8.419-11.118,14.687-11.787
			c0.566-0.064,1.133-0.092,1.69-0.082c4.47,0.067,8.335,3.329,8.597,7.561c0.11,1.77-0.082,3.196-0.51,4.407
			c-1.288,3.624-4.733,5.24-8.771,7.971c0-0.004,0.006-0.004,0.006-0.009l-0.006,0.005c1.605-3.349,6.281-4.614,6.422-9.403
			c0.021-0.685-0.05-1.44-0.235-2.282c-0.818-3.685-4.105-5.219-7.908-4.816c-3.456,0.367-7.197,3.715-8.707,7.578
			c-0.082,0.213-0.2,0.411-0.267,0.626c-0.072,0.228-0.082,0.457-0.14,0.683c-0.114,0.467-0.246,0.935-0.281,1.405
			c-0.056,0.703-0.023,1.401,0.113,2.084c0.389,1.972,1.468,2.799,2.753,2.984c0.092,0.015,0.166,0.064,0.253,0.074
			c0.028,0,0.062-0.01,0.091-0.01c2.325,0.117,5.207-1.755,6.185-3.388c1.401,5.68-2.253,8.041-6.147,7.958
			c-0.435-0.004-0.87-0.046-1.298-0.111c-2.597-0.405-5.057-1.849-5.966-4.068C34.299,41.791,34.208,39.286,34.797,36.992z
			 M42.58,106.251c-1.332,0.105-2.464,0.401-3.556,0.742s-2.146,0.715-3.321,0.979l0,0H35.7c2.613-5.274,5.466-10.31,8.139-15.527
			c1.907-3.73,3.743-7.53,5.272-11.633c0.279,0.182,0.554,0.359,1.029,0.343c-1.633,5.505-4.58,11.36-6.321,18.074
			C43.241,101.466,42.799,103.804,42.58,106.251z M58.706,91.185c-0.983,0.984-2.188,1.886-2.718,3.036
			c0.733,3.417,3.648,6.399,3.776,9.281c-2.309-0.589-3.398-5.279-4.814-7.906c-0.473,0.192-0.928,0.437-1.366,0.709
			c-2.265,1.429-4.071,3.793-6.203,5.148c-0.841,0.546-1.744,0.927-2.738,1.021c0,0,0-0.006,0.004-0.006c-0.004,0-0.004,0-0.004,0
			c1.344-3.365,6.836-5.525,9.28-8.936c-0.81-2.443-2.982-5.48-3.46-8.019c-0.056-0.291-0.119-0.581-0.124-0.854
			c-0.008-0.385,0.037-0.752,0.145-1.1h1.03v0.004h0.004c0.355,1.815,1,3.349,1.683,4.844c0.611,1.337,1.254,2.644,1.757,4.09
			c0.165-0.109,0.293-0.248,0.446-0.367c1.724-1.332,2.817-3.283,4.707-4.444c0.089,0.363,0.104,0.707,0.063,1.025
			C60.061,89.674,59.444,90.453,58.706,91.185z M62.171,108.316c-0.552-0.166-0.872-0.447-1.05-0.803
			c-0.35-0.711-0.085-1.715,0.136-2.679c0.114-0.467,0.213-0.926,0.226-1.333c0.163-3.9,0.097-8.725-0.089-13.006
			c-0.07-1.61-0.157-3.152-0.252-4.524c0.056-0.401-0.074-0.616-0.344-0.69c1.149-0.665,2.41-0.062,3.754-0.141
			c0.346-0.017,0.701-0.048,1.059-0.202l0,0h0.004C63.765,92.036,64.019,101.218,62.171,108.316z M80.734,103.157
			c-3.719-3.041-6.447-7.073-9.965-10.311c-1.179,1.318-1.831,3.104-2.749,4.812c-0.798,1.464-1.437,3.936-3.439,4.126
			c1.155-3.778,3.042-6.812,5.157-9.628c-0.668-2.195-3.119-2.608-3.783-4.812c2.177-0.789,3.111,1.989,4.472,3.093
			c2.311-1.606,3.266-6.321,6.187-6.187c-1.292,2.61-3.357,4.436-4.814,6.875c1.033,2.292,3.645,3.815,5.502,5.846
			C78.909,98.728,81.636,100.792,80.734,103.157z M90.016,108.316c-1.408-0.005-2.536-0.294-3.674-0.566
			c-0.893-0.211-1.794-0.422-2.852-0.466c-0.096-0.655-0.24-1.254-0.346-1.899c-1.444-8.691-3.932-16.348-6.531-23.886
			c-0.251-0.937,0.684-0.692,0.688-1.377c4.479,9.157,8.141,19.132,12.721,28.189c-0.006,0-0.006,0-0.013,0
			C90.016,108.312,90.016,108.316,90.016,108.316z M85.894,48.151c-0.905,0.068-1.833,0.023-2.775-0.122
			c-6.578-0.988-13.607-6.668-15.098-11.562c-2.112-6.924,2.362-10.568,6.316-10.483c2.377,0.055,4.564,1.449,5.027,4.295
			c-1.888-3.584-7.975-3.814-8.938,0.343c-0.199,0.835-0.232,1.677-0.133,2.516c0.1,0.837,0.329,1.672,0.674,2.482v0.004
			c0.267,0.625,0.649,1.218,1.038,1.807c0.115,0.178,0.182,0.372,0.31,0.544c0.089,0.122,0.215,0.226,0.316,0.354
			c2.738,3.497,7.373,5.961,11.424,5.357c0.04-0.004,0.083,0.006,0.116,0c3.171-0.525,4.093-3.569,3.239-6.383
			c-0.416-1.366-1.209-2.679-2.438-3.623c-0.539-0.412-1.145-0.751-1.829-0.995c-0.911-3.104-2.41-5.608-4.471-7.561h0.004
			l-0.004-0.005c2.988,1.346,6.453,2.551,9.304,4.552c2.742,1.927,4.907,4.585,5.479,8.855
			C94.164,43.796,91.092,47.777,85.894,48.151z"/>
		<path style="fill:#5C5C5C;" d="M77.175,69.415c0.821,0.272,1.705,0.479,2.875,0.398c0-0.014,0-0.026,0-0.043
			c0,0.017,0,0.024,0,0.039C78.88,69.891,77.996,69.684,77.175,69.415z"/>
		<path style="fill:#5C5C5C;" d="M80.74,61.564v-0.004c-4.464-1.373-3.245,4.696-4.471,7.561l0,0
			C77.495,66.248,76.276,60.192,80.74,61.564z"/>
		<polygon style="fill:#5C5C5C;" points="49.111,70.502 49.111,62.594 49.107,62.594 49.107,70.498 45.674,70.498 45.674,70.502 		
			"/>
		<path style="fill:#5C5C5C;" d="M68.363,66.027c-4.673-0.205-10.525-0.126-14.785,0.345c-0.259,0.033-0.593-0.012-0.951-0.062
			c0.358,0.05,0.692,0.095,0.951,0.066c4.26-0.482,10.112-0.55,14.781-0.344c2.629,0.111,6.064-0.239,7.216,1.716h0.006
			C74.433,65.794,70.988,66.145,68.363,66.027z"/>
		<path style="fill:#5C5C5C;" d="M50.992,67.488c5.54,0.646,13.436,0.517,19.618,0.368C64.432,68.001,56.536,68.134,50.992,67.488z"
			/>
		<path style="fill:#5C5C5C;" d="M44.985,67.064c0.622,1.817-2.532,2.169-2.749,1.027C42.453,69.237,45.609,68.882,44.985,67.064z"
			/>
		<path style="fill:#5C5C5C;" d="M44.985,67.064c-1.222,0.035-2.771-0.254-2.749,1.027C42.216,66.814,43.766,67.1,44.985,67.064z"/>
		<path style="fill:#5C5C5C;" d="M83.522,67.849c0.521,0.124,1.034,0.252,1.683,0.25v-0.007
			C84.557,68.101,84.044,67.973,83.522,67.849z"/>
		<path style="fill:#5C5C5C;" d="M72.663,69.915c3.429,0.083,6.846,0.383,10.137,0.926C79.509,70.298,76.092,69.998,72.663,69.915z"
			/>
		<path style="fill:#5C5C5C;" d="M83.145,105.385c0.105,0.646,0.25,1.244,0.346,1.899c1.058,0.044,1.959,0.255,2.852,0.466
			c-0.893-0.211-1.794-0.422-2.852-0.472C83.395,106.629,83.25,106.03,83.145,105.385z"/>
		<path style="fill:#5C5C5C;" d="M77.301,80.122c-0.004,0.685-0.938,0.44-0.688,1.377c-0.251-0.937,0.684-0.692,0.688-1.371
			c4.479,9.151,8.141,19.126,12.708,28.184c0.007,0,0.007,0,0.013,0C85.441,99.254,81.78,89.279,77.301,80.122z"/>
		<path style="fill:#5C5C5C;" d="M35.7,107.973h0.003c2.618-5.274,5.463-10.314,8.136-15.527
			C41.166,97.663,38.313,102.698,35.7,107.973z"/>
		<path style="fill:#5C5C5C;" d="M39.024,106.993c1.092-0.341,2.224-0.637,3.556-0.742c0.219-2.447,0.661-4.785,1.239-7.021
			c-0.578,2.236-1.024,4.574-1.244,7.021C41.248,106.356,40.116,106.652,39.024,106.993z"/>
		<path style="fill:#5C5C5C;" d="M51.514,83.565v-0.004h-1.03c-0.107,0.348-0.152,0.715-0.145,1.1
			c-0.008-0.385,0.037-0.752,0.145-1.096H51.514z"/>
		<path style="fill:#5C5C5C;" d="M55.403,92.132c-0.153,0.119-0.281,0.258-0.446,0.367c-0.503-1.446-1.146-2.753-1.757-4.09
			c0.611,1.337,1.248,2.644,1.75,4.095C55.118,92.396,55.25,92.251,55.403,92.132z"/>
		<path style="fill:#5C5C5C;" d="M53.923,93.533c-2.444,3.41-7.937,5.57-9.28,8.936c0,0,0,0,0.004,0
			C45.992,99.093,51.479,96.947,53.923,93.533z"/>
		<path style="fill:#5C5C5C;" d="M53.584,96.305c-2.265,1.429-4.071,3.793-6.203,5.148C49.513,100.098,51.319,97.733,53.584,96.305z
			"/>
		<path style="fill:#5C5C5C;" d="M53.923,93.533c-0.81-2.447-2.982-5.482-3.46-8.019C50.94,88.053,53.113,91.09,53.923,93.533z"/>
		<path style="fill:#5C5C5C;" d="M60.174,88.713c-0.113,0.961-0.729,1.74-1.468,2.472C59.444,90.453,60.061,89.674,60.174,88.713z"
			/>
		<path style="fill:#5C5C5C;" d="M64.581,101.784c1.155-3.778,3.042-6.812,5.157-9.628C67.623,94.972,65.736,98.006,64.581,101.784z
			"/>
		<path style="fill:#5C5C5C;" d="M65.61,84.938c-1.846,7.092-1.596,16.279-3.439,23.373c-0.552-0.161-0.872-0.442-1.05-0.798
			c0.178,0.355,0.498,0.637,1.05,0.803c1.848-7.099,1.594-16.28,3.443-23.378H65.61z"/>
		<path style="fill:#5C5C5C;" d="M61.394,90.496c0.186,4.281,0.252,9.105,0.089,13.006c-0.013,0.407-0.111,0.866-0.226,1.333
			c0.114-0.467,0.213-0.926,0.231-1.333C61.652,99.602,61.579,94.773,61.394,90.496z"/>
		<path style="fill:#5C5C5C;" d="M64.552,85.141c-1.344,0.079-2.604-0.524-3.754,0.141C61.947,84.62,63.208,85.22,64.552,85.141z"/>
		<path style="fill:#5C5C5C;" d="M78.674,25.123c2.061,1.952,3.56,4.457,4.471,7.561c-0.911-3.099-2.404-5.608-4.467-7.561H78.674z"
			/>
		<path style="fill:#5C5C5C;" d="M84.056,43.685c-4.051,0.604-8.686-1.86-11.424-5.357C75.37,41.824,80.005,44.292,84.056,43.685z"
			/>
		<path style="fill:#5C5C5C;" d="M87.411,37.302c-0.416-1.366-1.209-2.679-2.438-3.623C86.202,34.623,86.995,35.936,87.411,37.302z"
			/>
		<path style="fill:#5C5C5C;" d="M72.006,37.43c0.115,0.178,0.182,0.372,0.31,0.544C72.188,37.802,72.121,37.607,72.006,37.43z"/>
		<path style="fill:#5C5C5C;" d="M74.337,25.983c-3.954-0.085-8.429,3.56-6.316,10.483C65.908,29.55,70.383,25.898,74.337,25.983z"
			/>
		<path style="fill:#5C5C5C;" d="M70.427,30.617c-0.199,0.833-0.232,1.681-0.133,2.52c-0.1-0.839-0.066-1.681,0.133-2.516
			c0.963-4.157,7.05-3.927,8.938-0.343C77.481,26.689,71.39,26.459,70.427,30.617z"/>
		<path style="fill:#5C5C5C;" d="M87.978,29.67c2.742,1.927,4.902,4.585,5.476,8.855c0.711,5.271-2.361,9.248-7.56,9.626
			c5.198-0.374,8.271-4.355,7.563-9.626C92.885,34.255,90.72,31.597,87.978,29.67z"/>
		<path style="fill:#5C5C5C;" d="M70.968,35.619v0.004V35.619z"/>
		<path style="fill:#5C5C5C;" d="M49.483,25.205c-6.268,0.669-13.067,5.462-14.687,11.787C36.42,30.667,43.216,25.874,49.483,25.205
			z"/>
		<path style="fill:#5C5C5C;" d="M48.769,40.593c-0.978,1.633-3.859,3.505-6.185,3.388C44.909,44.098,47.793,42.229,48.769,40.593z"
			/>
		<path style="fill:#5C5C5C;" d="M39.374,38.848c0.035-0.471,0.167-0.938,0.281-1.405C39.541,37.909,39.409,38.377,39.374,38.848z"
			/>
		<path style="fill:#5C5C5C;" d="M42.493,43.99c-0.087-0.01-0.161-0.06-0.253-0.074C42.332,43.931,42.406,43.98,42.493,43.99z"/>
		<path style="fill:#5C5C5C;" d="M40.062,36.134c-0.082,0.213-0.2,0.411-0.267,0.626C39.861,36.545,39.979,36.347,40.062,36.134z"/>
		<path style="fill:#5C5C5C;" d="M56.912,35.654c-0.141,4.789-4.816,6.055-6.422,9.403l0.006-0.005
			C52.106,41.709,56.771,40.438,56.912,35.654z"/>
		<path style="fill:#5C5C5C;" d="M42.621,48.551c-0.435-0.004-0.87-0.046-1.298-0.111C41.751,48.505,42.187,48.547,42.621,48.551z"
			/>
		<path style="fill:#5C5C5C;" d="M47.392,58.81c-0.455-9.407,7.958-14.401,16.275-14.509C55.35,44.402,46.935,49.402,47.392,58.81z"
			/>
		<path style="fill:#5C5C5C;" d="M84.172,62.594c-0.1,0.091-0.231,0.122-0.378,0.104c0.15,0.019,0.278-0.008,0.384-0.104
			c0.738-13.671-9.944-20.42-20.453-20.375C74.233,42.174,84.912,48.923,84.172,62.594z"/>
		<path style="fill:#5C5C5C;" d="M65.387,58.906c2.58-0.07,5.192,0.004,7.789,0.248C70.579,58.91,67.967,58.836,65.387,58.906z"/>
		<path style="fill:#5C5C5C;" d="M80.74,61.564L80.74,61.564c-0.028,2.939-0.889,5.048-0.69,8.206
			C79.856,66.616,80.712,64.5,80.74,61.564z"/>
		<path style="fill:#5C5C5C;" d="M77.175,69.415c-0.304-0.1-0.622-0.182-0.905-0.294v0.005
			C76.553,69.237,76.871,69.315,77.175,69.415z"/>
		<path style="fill:#5C5C5C;" d="M49.107,62.594V62.59c-3.465,0.322-2.621,4.94-3.434,7.908l0,0
			C46.486,67.521,45.651,62.914,49.107,62.594z"/>
		<path style="fill:#5C5C5C;" d="M52.627,66.311c-1.072-0.153-2.364-0.366-2.486,1.094c0.261,0.034,0.577,0.056,0.852,0.084
			c-0.274-0.028-0.585-0.05-0.848-0.084C50.263,65.944,51.555,66.161,52.627,66.311z"/>
		<path style="fill:#5C5C5C;" d="M75.581,67.753l-0.006-0.004c-1.414,0.021-3.125,0.066-4.965,0.107
			C72.454,67.815,74.165,67.775,75.581,67.753z"/>
		<path style="fill:#5C5C5C;" d="M85.205,68.099L85.205,68.099c-0.262,0.306-0.367,0.772-0.343,1.37
			C84.838,68.871,84.943,68.4,85.205,68.099z"/>
		<path style="fill:#5C5C5C;" d="M81.084,69.126c1.639-0.265,2.212,0.539,3.778,0.343C83.296,69.665,82.723,68.859,81.084,69.126z"
			/>
		<path style="fill:#5C5C5C;" d="M81.084,67.404c0.909,0.051,1.662,0.262,2.438,0.444C82.746,67.662,81.993,67.455,81.084,67.404z"
			/>
		<path style="fill:#5C5C5C;" d="M44.3,74.28c7.655-2.899,18.075-4.609,28.363-4.365C62.369,69.671,51.955,71.381,44.3,74.28z"/>
		<path style="fill:#5C5C5C;" d="M90.016,108.316c0,0,0-0.005-0.007-0.005c-1.401-0.004-2.529-0.289-3.667-0.562
			C87.479,108.022,88.607,108.312,90.016,108.316z"/>
		<path style="fill:#5C5C5C;" d="M83.145,105.385c-1.44-8.695-3.925-16.35-6.531-23.886C79.213,89.037,81.7,96.693,83.145,105.385z"
			/>
		<path style="fill:#5C5C5C;" d="M43.839,92.445c1.907-3.73,3.743-7.53,5.272-11.633C47.582,84.915,45.746,88.715,43.839,92.445z"/>
		<path style="fill:#5C5C5C;" d="M35.703,107.973c1.176-0.265,2.229-0.639,3.321-0.979
			C37.929,107.334,36.879,107.708,35.703,107.973L35.703,107.973z"/>
		<path style="fill:#5C5C5C;" d="M43.819,99.229c1.741-6.714,4.688-12.569,6.321-18.074C48.508,86.66,45.556,92.516,43.819,99.229z"
			/>
		<path style="fill:#5C5C5C;" d="M55.988,94.221c0.729,3.413,3.642,6.399,3.776,9.281C59.637,100.62,56.722,97.638,55.988,94.221z"
			/>
		<path style="fill:#5C5C5C;" d="M54.957,95.594c-0.479,0.188-0.935,0.434-1.373,0.711c0.438-0.272,0.894-0.517,1.366-0.709
			c1.416,2.627,2.506,7.317,4.814,7.906C57.456,102.909,56.366,98.223,54.957,95.594z"/>
		<path style="fill:#5C5C5C;" d="M60.11,87.688c0.089,0.365,0.104,0.707,0.063,1.025C60.215,88.395,60.199,88.051,60.11,87.688z"/>
		<path style="fill:#5C5C5C;" d="M51.518,83.565h-0.004c0.359,1.815,1.004,3.349,1.687,4.844
			C52.518,86.914,51.873,85.381,51.518,83.565z"/>
		<path style="fill:#5C5C5C;" d="M60.11,87.688c-1.89,1.161-2.983,3.112-4.707,4.444C57.127,90.805,58.217,88.849,60.11,87.688z"/>
		<path style="fill:#5C5C5C;" d="M55.988,94.221c0.529-1.15,1.734-2.052,2.718-3.036C57.723,92.169,56.518,93.07,55.988,94.221z"/>
		<path style="fill:#5C5C5C;" d="M50.463,85.515c-0.056-0.291-0.119-0.581-0.124-0.854C50.344,84.934,50.407,85.224,50.463,85.515z"
			/>
		<path style="fill:#5C5C5C;" d="M44.643,102.475c0.994-0.095,1.897-0.476,2.738-1.021c-0.841,0.538-1.738,0.922-2.734,1.016
			C44.643,102.469,44.643,102.475,44.643,102.475z"/>
		<path style="fill:#5C5C5C;" d="M61.257,104.835c-0.221,0.964-0.485,1.968-0.136,2.679
			C60.771,106.803,61.036,105.792,61.257,104.835z"/>
		<path style="fill:#5C5C5C;" d="M65.61,84.938c-0.357,0.154-0.713,0.186-1.059,0.202C64.897,85.124,65.253,85.093,65.61,84.938
			L65.61,84.938z"/>
		<path style="fill:#5C5C5C;" d="M60.798,85.281c0.27,0.074,0.399,0.289,0.344,0.69c0.095,1.372,0.182,2.914,0.252,4.524
			c-0.07-1.61-0.157-3.156-0.252-4.53C61.197,85.57,61.067,85.355,60.798,85.281z"/>
		<path style="fill:#5C5C5C;" d="M78.674,25.118l0.004,0.005c2.984,1.345,6.449,2.55,9.3,4.547
			C85.127,27.669,81.662,26.464,78.674,25.118z"/>
		<path style="fill:#5C5C5C;" d="M68.021,36.467c1.49,4.895,8.52,10.574,15.098,11.562C76.54,47.041,69.511,41.357,68.021,36.467z"
			/>
		<path style="fill:#5C5C5C;" d="M79.364,30.278c-0.463-2.846-2.65-4.24-5.027-4.295C76.714,26.038,78.896,27.433,79.364,30.278z"/>
		<path style="fill:#5C5C5C;" d="M72.315,37.974c0.089,0.122,0.215,0.226,0.316,0.354C72.53,38.199,72.404,38.096,72.315,37.974z"/>
		<path style="fill:#5C5C5C;" d="M70.968,35.619c-0.345-0.811-0.574-1.646-0.674-2.482C70.394,33.974,70.623,34.809,70.968,35.619z"
			/>
		<path style="fill:#5C5C5C;" d="M87.411,37.302c0.854,2.813-0.068,5.857-3.239,6.383c-0.033,0.006-0.076-0.004-0.116,0
			c0.04-0.004,0.083,0.006,0.122,0C87.349,43.164,88.267,40.121,87.411,37.302z"/>
		<path style="fill:#5C5C5C;" d="M70.968,35.623c0.267,0.625,0.649,1.218,1.038,1.807C71.617,36.841,71.234,36.248,70.968,35.623z"
			/>
		<path style="fill:#5C5C5C;" d="M50.496,45.053c0,0.005-0.006,0.005-0.006,0.009c4.037-2.73,7.482-4.347,8.771-7.971
			C57.973,40.708,54.529,42.324,50.496,45.053z"/>
		<path style="fill:#5C5C5C;" d="M39.795,36.76c-0.072,0.228-0.082,0.457-0.14,0.683C39.713,37.217,39.723,36.987,39.795,36.76z"/>
		<path style="fill:#5C5C5C;" d="M41.323,48.439c-2.595-0.405-5.057-1.849-5.966-4.068c-1.054-2.58-1.149-5.085-0.561-7.379
			c-0.589,2.294-0.498,4.799,0.561,7.379C36.267,46.591,38.727,48.034,41.323,48.439z"/>
		<path style="fill:#5C5C5C;" d="M42.584,43.98c-0.029,0-0.062,0.01-0.091,0.01C42.521,43.99,42.555,43.98,42.584,43.98z"/>
		<path style="fill:#5C5C5C;" d="M42.621,48.551c3.895,0.083,7.549-2.278,6.147-7.958C50.161,46.272,46.513,48.629,42.621,48.551z"
			/>
		<path style="fill:#5C5C5C;" d="M39.487,40.936c0.389,1.968,1.468,2.795,2.753,2.98c-1.285-0.186-2.364-1.013-2.753-2.984
			c-0.137-0.683-0.169-1.381-0.113-2.084C39.318,39.551,39.351,40.251,39.487,40.936z"/>
		<path style="fill:#5C5C5C;" d="M40.062,36.134c1.51-3.863,5.251-7.211,8.707-7.578C45.308,28.923,41.571,32.267,40.062,36.134z"/>
		<path style="fill:#5C5C5C;" d="M52.586,45.125c3.284-1.916,7.199-2.888,11.139-2.906C59.785,42.237,55.87,43.209,52.586,45.125z"
			/>
		<path style="fill:#5C5C5C;" d="M83.794,62.697c-0.903-0.128-2.565-2.075-3.833-3.113C81.229,60.622,82.895,62.573,83.794,62.697z"
			/>
		<path style="fill:#5C5C5C;" d="M44.3,62.594c5.917-1.997,13.356-3.484,21.087-3.688C57.656,59.109,50.217,60.597,44.3,62.594z"/>
		<path style="fill:#5C5C5C;" d="M74.203,58.81c-0.057,0.404-0.627,0.291-1.027,0.345c0.405-0.054,0.971,0.06,1.033-0.345
			c-8.347-1.751-19.259-0.61-26.817,0C54.95,58.199,65.858,57.062,74.203,58.81z"/>
		<path style="fill:#5C5C5C;" d="M63.667,44.301c6.242-0.083,12.425,2.596,14.771,8.227C76.092,46.896,69.909,44.218,63.667,44.301z
			"/>
	</g>
</g>
<g id="Layer_1">
</g>
</svg>
