<?xml version="1.0" encoding="iso-8859-1"?>
<!-- Generator: Adobe Illustrator 16.0.0, SVG Export Plug-In . SVG Version: 6.00 Build 0)  -->
<!DOCTYPE svg PUBLIC "-//W3C//DTD SVG 1.1//EN" "http://www.w3.org/Graphics/SVG/1.1/DTD/svg11.dtd">
<svg version="1.1" xmlns="http://www.w3.org/2000/svg" xmlns:xlink="http://www.w3.org/1999/xlink" x="0px" y="0px" width="128px"
	 height="128px" viewBox="0 0 128 128" style="enable-background:new 0 0 128 128;" xml:space="preserve">
<g id="_x31_45-animal-kigdom">
	<path style="fill:#5C5C5C;" d="M38.281,54.53c0.34-2.546,1.284-5.157,2.871-6.972c0.472-1.174,1.475-1.879,2.167-2.828
		c1.5-1.499,3.28-2.877,5.259-3.601c0.634-0.628-0.501-1.081-0.646-1.666c-0.148-0.339-0.333-0.852-0.637-0.963
		c-3.415,1.782-6.799,3.82-10.064,5.908c-0.182,0.265-0.539,0.442-0.779,0.645c-0.403,0.607-1.383,0.599-1.383,1.55
		c0.823,2.962,0.577,5.914-0.254,8.512c0.024,0.244,0.15,0.409,0.349,0.355c0.906-0.517,1.828-0.533,2.906-0.678
		C38.125,54.684,38.264,54.708,38.281,54.53z M43.319,49.04c-0.701,0.614-1.523,1.268-2.223,1.854
		c-0.184,1.888-0.105,3.837-0.562,5.92c0.074,0.222,0.328,0.271,0.506,0.248c2.16-0.976,4.32-1.422,6.577-2.003
		c0.054-0.031,0.218,0.159,0.226-0.019c0.672-0.12,1.544,0.182,2.094-0.265c0.007-0.074,0.011-0.178,0.013-0.246
		c-1.401-2.226-2.268-4.934-3.739-6.976c0.052-0.459-0.376-0.455-0.581-0.36c-0.824,0.645-1.577,1.188-2.301,1.74
		C43.339,48.725,43.325,49.005,43.319,49.04z M56.814,88.064c-0.428-0.513-0.517,0.312-0.622,0.5
		c-1.905,2.815-2.91,6.367-2.78,10.096c0.062,0.2-0.163,0.339,0.023,0.525c-0.061,0.648,0.004,1.341,0.068,2.038
		c0.054,0.054,0.06,0.109,0.107,0.136c1.604-0.186,3.301-0.33,4.985-0.26c0.111-0.04,0.194-0.194,0.224-0.344
		c-1.195-1.896-1.551-4.406-1.856-6.688C56.823,92.041,56.43,90.115,56.814,88.064z M58.152,45.723
		c0.013,0.178,0.172-0.012,0.226,0.013c2.273,0.523,4.443,0.909,6.63,1.827c0.176,0.017,0.426-0.045,0.496-0.267
		c-0.506-2.065-0.488-4.017-0.719-5.901c-0.715-0.566-1.552-1.191-2.27-1.794c-0.002-0.014-0.006-0.062-0.01-0.105
		c-0.74-0.529-1.51-1.054-2.345-1.68c-0.211-0.083-0.648-0.077-0.576,0.376c-1.42,2.088-2.206,4.816-3.56,7.071
		c0.01,0.068,0.017,0.178,0.022,0.246C56.608,45.946,57.474,45.615,58.152,45.723z M31.918,52.337
		c-3.386,0.894-6.773,1.311-9.87,2.737c-0.174,0.054-0.141,0.285-0.174,0.413c0.988,0.951,2.049,1.815,2.708,2.952
		c1.829,2.908,1.608,7.234,0.238,10.311c-0.061,0.239-0.196,0.566,0.043,0.748c0.966,0.085,1.788-0.337,2.732-0.444
		c0.374-0.148,0.848,0.089,1.142-0.326c0.285-0.933,0.645-1.871,1.105-2.776c1.172-4.398,3.072-8.587,2.223-13.428
		C32.022,52.486,32.012,52.412,31.918,52.337z M70.831,52.557c-0.039-0.062-0.107-0.128-0.141-0.2
		c-0.594,0.093-1.131,0.258-1.664,0.345c-0.341,0.385-0.185,1.149-0.354,1.516c-0.268,2.72-0.752,5.279-1.564,7.691
		c-0.404,0.641-0.537,1.683-1.334,1.827c-0.858,0.087-1.352-0.918-1.735-1.633c-0.072-0.1-0.063-0.311-0.145-0.302
		c-1.984-4.011-2.443-8-3.434-12.498c-0.122-0.102-0.033-0.384-0.215-0.476c-0.963,0.199-1.807,0.74-2.729,1.011
		c-2.018,0.941-4.074,1.821-5.891,3.095c-0.176,0.267,0.211,0.649,0.211,0.649c2.633,1.401,5.422,4.097,6.864,6.964
		c2.575,4.45,2.536,10.924,1.768,16.027c0.104,0.168,0.324,0.396,0.57,0.257c1.072-1.521,2.216-2.586,3.532-3.599
		c2.071-1.623,3.956-3.717,6.197-5.04c0.287-0.339,0.879-0.148,1.057-0.731c-0.279-3.088-0.691-5.949-0.834-9.048
		C70.921,56.401,70.552,54.603,70.831,52.557z M64,4c-33.137,0-60,26.865-60,60.002C3.999,97.139,30.863,124,64,124
		c33.138,0,60.001-26.861,60.001-59.998C124.001,30.865,97.138,4,64,4z M117.401,73.913c-2.857,1.311-5.504,2.854-8.002,4.97
		c-1.072-1.799-2.211-3.814-3.516-5.27c0-0.026-0.004-0.084-0.008-0.111c-1.203-1.197-2.008-2.144-3.166-3.34
		c-2.572,0.778-4.918,2.234-7.184,3.774c-0.893,0.878-1.973,1.395-2.832,2.354c-0.428-0.194-0.848-0.409-1.232-0.694
		c1.477-2.307,3.16-4.989,3.746-7.941c0.109-0.889,0.453-1.771,0.531-2.538c0.049-0.472-0.006-1.083-0.205-1.468
		c-1.471,0.083-2.84,1.009-4.156,1.724c-3.23,2.189-5.82,5.333-8.119,8.898c-2.232-0.217-4.553-0.051-6.332,1.327
		c-1.105,0.894-2.246,1.445-3.186,2.682c-0.021,0-0.068,0.004-0.102,0.012c-0.889,1.371-1.928,2.815-2.168,4.564
		c-0.242,1.513-0.764,2.559-0.609,4.213c0.145,2.09,0.344,4.262,0.701,6.333c0.516,1.468,1.992,1.468,3.066,1.973
		c0.43,0.252,1.168,0.271,1.248,0.909c0.229,0.905,0.834,1.811,1.482,2.1c0.762,0.479,1.521,0.699,2.348,1.175
		c1.531,0.578,2.994,1.479,4.029,3.134c-1,0.219-2.061-0.116-3.119-0.009c-2.406-0.205-5.102,0.004-7.482-0.022
		c-2.811-2.473-4.903-6.038-6.202-9.858c-1.143-3.803-0.773-8.4,0.592-11.894c0.885-2.807,2.647-5.109,3.132-8.142
		c-0.01-0.642,0.221-1.222,0.264-1.838c-0.033-0.087-0.088-0.17-0.158-0.187c-0.219,0.05-0.264,0.281-0.363,0.472
		c-0.582,1.224-1.17,2.86-2.112,3.743c-0.047,0.035-0.014,0.118-0.006,0.146c-2.57,2.939-5.659,5.875-7.269,9.573
		c-1.631,3.756-1.089,8.406,0.273,12.28c0.632,1.662,1.559,3.179,2.164,4.841c0.176,0.335,0.411,0.604,0.55,0.996
		c-6.453,0.405-13.089,0.011-19.653,0.947c-0.405-1.066-0.405-1.881-0.515-3.043c0.287-1.316,0.354-2.844,0.907-4.068
		c0.457-1.272,1.153-2.244,1.788-3.338c1.627-2.09,3.271-3.562,4.95-5.509c0.879-1.081,1.088-2.949,0.594-4.444
		c-0.59-1.726-1.956-2.877-3.351-3.236c-0.114-0.253-0.259,0.054-0.391-0.079c-0.651-0.111-1.396,0.105-1.821,0.649
		c-0.357,0.5-0.579,1.166-0.818,1.688c-0.368-0.083-0.73-0.163-1.133-0.155c-0.608-2.921-2.39-5.198-4.523-7.151
		c-3.402-3.289-7.73-5.323-12.166-4.031c-0.742,0.22-1.488,0.409-2.142,0.818c-0.174,0.168-0.096,0.513,0.141,0.546
		c1.374,0.185,2.757,0.428,4.049,1.001c0.096,0.198,0.25,0.065,0.372,0.141c0.892,0.351,1.708,0.913,2.555,1.326
		c-3.466,1.451-6.835,3.159-9.913,5.449c-0.827,0.579-1.647,1.213-2.503,1.768c-3.367-1.594-6.73-2.693-10.348-3.159
		c0.49-3.995,1.468-7.836,2.65-11.546c1.083-3.26,2.512-6.381,4.304-9.192c0.376-0.244,0.622-0.731,0.794-1.216
		c-1.414-0.798-3.003-0.728-4.525-0.961c-0.023-0.283-0.077-0.604-0.062-0.928c1.149-0.753,2.222-1.71,3.499-2.132
		c3.963-1.966,8.502-3.114,13.068-3.536c0.444-0.066,0.816,0.097,1.242,0.087c0.43-0.255,0.122-0.807,0.222-1.255
		c-0.085-0.399,0.313-1.255-0.344-1.366c-2.664-0.968-5.763-1.245-8.458-0.017c-0.163-0.479-0.244-1.054-0.248-1.612
		c3.354-3.192,7.532-4.602,11.695-6.007c2.071-0.612,4.339-0.72,6.466-0.461c0.527,0.035,0.352-0.536,0.798-0.662
		c1.424-1.335,3.146-2.296,4.717-3.334c2.086-1.197,4.248-2.229,6.542-2.981c2.354-0.814,4.821-1.499,7.456-1.554
		c-2.331,1.809-4.515,4.219-6.092,7.271c0.079,0.397,0.616,0.521,0.729,0.914c0.5,0.277,0.75-0.571,1.167-0.757
		c5.775-5.04,13.056-7.247,20.432-7.886c2.896-0.317,6.078,0.245,8.85,1.168c0.01,0.029,0.01,0.029,0.01,0.06
		c-1.857,1.06-3.635,1.966-5.219,3.64c-0.174,0.196-0.426,0.508-0.643,0.74c0.293,0.67,1.055,0.889,1.537,1.426
		c0.4,0.49,0.861,0.848,1.227,1.428c0.617,0.199,1.312,0.043,1.992,0.153c0.453,0.217,0.947,0.2,1.418,0.386
		c0.01,0.116,0.127,0.137,0.119,0.017c0.334-0.004,0.527,0.508,0.904,0.236c1.582-1.674,3.234-3.448,5.248-4.32
		c4.455,1.548,8.391,6.218,12.102,9.74c0.727,0.662,1.133,1.699,1.867,2.417c-0.213,0.544-0.514,0.926-0.768,1.482
		c-1.012,2.195-1.918,3.985-3.051,6.205c-0.057,0.178,0.035,0.405,0.203,0.387c3.014-1.673,6.275-3.021,9.717-3.148
		c0.676,0.579,1.424,1.259,1.742,2.138c0.793,1.583,1.107,3.162,1.848,4.696c0.742,2.995,1.477,6.197,2.18,9.194
		c0.115,1.481,0.574,3.104,0.494,4.63C117.718,72.948,118.216,73.948,117.401,73.913z M52.934,58.886
		c-0.411-0.017-0.913-1.077-1.217-0.272c1.807,3.419,2.09,7.771,2.108,11.586c-0.068,0.06,0.039,0.233-0.102,0.239
		c-1.1-0.618-2.243-0.833-3.356-1.304c-0.569-1.84-1.329-3.469-1.936-5.301c-0.335-0.678-0.628-1.486-1.062-2.092
		c-2.864-1.379-5.772-2.346-8.723-3.315c-0.715-0.223-1.449-0.622-2.188-0.55c-0.087,0.098-0.087,0.294,0.067,0.387
		c0.077,0.705,0.112,1.34,0.166,2.073c0.365,0.219,0.822,0.554,1.271,0.682c2.774,1.473,5.683,3.537,8.393,5.064
		c0.94,1.865,1.817,3.793,2.936,5.525c-0.79,0.605-1.631,0.796-2.625,1.195c-1.838-2.276-3.473-4.67-5.466-6.795
		c-0.49-0.393-1.042-1.05-1.55-1.27c-0.492,0.89-1.187,1.577-1.604,2.406c-0.004,0.072,0.013,0.166,0.029,0.265
		c3.358,2.518,6.387,5.449,9.07,8.748c0.731,0.911,1.344,1.777,2.077,2.743c0.064,0.012,0.104,0.004,0.188,0.035
		c2.207-1.464,5.085-1.966,7.447-3.134c0.733-0.455,1.649-0.711,2.094-1.39c0.056-3.675-0.389-7.153-1.089-10.802
		C56.089,61.912,54.865,60.428,52.934,58.886z M108.228,55.754c-2.713,2.189-5.586,4.1-7.881,6.464
		c-0.139,0.116-0.043,0.25-0.033,0.335c1.156,0.089,2.357,0.089,3.279,0.448c2.482,0.85,3.594,3.556,3.299,6.075
		c0.021,0.172,0,0.435,0.266,0.426c0.881-0.422,1.482-1.074,2.281-1.607c0.285-0.273,0.768-0.356,0.904-0.755
		c-0.033-0.696,0.008-1.44,0.139-2.199c-0.281-3.217,0.135-6.658-2.064-9.151C108.366,55.789,108.333,55.748,108.228,55.754z
		 M77.718,39.71c-0.008-0.391-0.396-0.209-0.602-0.224c-2.545,0.852-4.941,1.129-7.479,2.044c-0.281,0.099-0.104,0.471-0.113,0.688
		c0.609,1.629,1.545,2.956,1.928,4.62c0.121,0.375,0.346,0.918,0.43,1.19c0.287,0.966,0.461,1.229,0.574,2.175
		c0.65,1.734,0.936,3.617,1.34,5.49c0.076,0.132,0.213,0.087,0.328,0.076c0.447-0.434,1.043-0.494,1.502-0.928
		C76.017,49.71,76.911,44.774,77.718,39.71z M101.048,47.779c-1.328-0.905-2.479-2.189-3.764-3.076
		c-0.49-0.341-0.703-0.783-1.223-1.064c-2.973,3.719-5.52,7.994-9.051,11.042c-0.074,1.57-0.418,3.191-0.719,4.62
		c-1.773,1.639-4.027,3.39-5.848,4.593c-0.062-0.044-0.141,0.05-0.174-0.056c-0.5-2.31-1.031-4.986-0.289-7.012
		c0.373-0.715,0.629-1.518,1.027-2.129c1.66-3.882,4.018-7.221,5.445-11.315c-0.109-0.052-0.045-0.176-0.129-0.252
		c-2.682,0.488-5.248,1.314-7.756,2.354c-0.043,0.199-0.102,0.327,0.072,0.494c-0.26,1.53-0.225,3.274-0.436,4.727
		c-0.453,3.896-2.254,6.642-3.02,10.201c0.848,3.175,2.279,6.414,3.326,9.581c0.125,0.204,0.297,0.043,0.42-0.039
		c1.223-1.423,2.572-2.817,3.887-4.219c1.555-1.776,4.016-2.995,6.021-3.946c0.355-1.927,0.709-3.818,1.291-5.602
		c0.561-0.263,0.877-0.897,1.406-1.307c3.262-2.439,6.166-4.804,9.621-6.997C101.269,48.179,101.12,47.943,101.048,47.779z"/>
</g>
<g id="Layer_1">
</g>
</svg>
