<?xml version="1.0" encoding="iso-8859-1"?>
<!-- Generator: Adobe Illustrator 16.0.0, SVG Export Plug-In . SVG Version: 6.00 Build 0)  -->
<!DOCTYPE svg PUBLIC "-//W3C//DTD SVG 1.1//EN" "http://www.w3.org/Graphics/SVG/1.1/DTD/svg11.dtd">
<svg version="1.1" xmlns="http://www.w3.org/2000/svg" xmlns:xlink="http://www.w3.org/1999/xlink" x="0px" y="0px" width="128px"
	 height="128px" viewBox="0 0 128 128" style="enable-background:new 0 0 128 128;" xml:space="preserve">
<g id="_x31_46-water-parks">
	<path style="fill:#5C5C5C;" d="M96.407,101.41c-5.445,1.193-11.406,5.44-18.043,8.485c-6.631,3.05-18.435,1.067-24.799-2.517
		c-6.373-3.579-5.839-13.001-10.747-9.021c-3.862,3.131-16.542,6.899-21.8,8.374c0.17,0.173,0.33,0.348,0.499,0.518
		c4.509-0.199,13.056-0.603,14.799-0.799c2.386-0.258,5.963-2.651,7.831,1.327c1.855,3.978,11.011,10.87,18.7,11.935
		c7.689,1.062,23.751-9.68,25.598-11.272C90.301,106.851,101.845,100.22,96.407,101.41z M36.186,111.489
		c-2.249-0.062-5.778,0.05-9.745,0.096c7.118,5.67,15.539,9.775,24.76,11.769c-2.18-1.311-3.818-2.715-4.674-3.634
		C43.474,116.397,44.676,111.749,36.186,111.489z M66.028,71.962c4.376-1.065,13.798,2.255,17.906,6.103
		c-4.505-9.16-14.191-12.072-25.465-8.096c-11.277,3.979-19.103,20.694-19.103,20.694C49.582,77.133,61.647,73.027,66.028,71.962z
		 M75.85,122.109c-0.948,0.732-1.905,1.344-2.846,1.891c15.021-2.255,28.258-9.969,37.514-21.151
		c-2.635,0.071-5.062,0.379-6.681,1.215C100.251,105.915,89.24,111.756,75.85,122.109z M64.002,4C30.661,4,3.626,31.024,3.626,64.37
		c0,13.112,4.227,25.213,11.331,35.113c12.698-36.403,30.056-62.413,52.386-77.354c-7.207-2.415-10.467,3.982-15.67,6.052
		c-3.195-2.095,2.067-2.07,1.771-4.668c-4.037,0.357-6.132,5.002-9.383,7.116c-2.61-0.765,1.051-4.34,1.051-6.276
		c-3.752,0.985-6.566,4.057-9.383,7.117c-0.709-3.438-0.139-4.975-4.958-4.557c8.446-12.127,21.662-13.586,36.463-11.508
		c-0.175-3.168-4.451-4.456-8.453-5.905c4.63-6.999,16.492,1.255,17.518,6.661c12.678-5.282,30.616,4.057,26.053,19.295
		c-5.206-1.857-1.742-7.623-5.499-10.117c-3.569,0.136-0.146,5.125,0.112,6.723c-5.154,0.345-6.502-9.324-14.56-10.883
		c3.028,9.941,12.351,25.422,9.738,41.117c-3.504-1.662-3.294-4.979-5.229-7.338c-1.776-0.379-1.741,3.326-3.673,2.614
		c-2.299-6.612-0.497-7.924-7.109-9.389c0.948-2.947,1.963-5.693,3.839-6.56c-3.664-2.39-3.29,4.17-7.178,1.279l3.555-9.333
		c0.169-3.586-3.962,2.548-4.671-1.778l3.561-9.333c-22.131,14.046-44.517,44.667-53.434,80.109c2.804-1.15,5.522-2.779,7.881-5.138
		c10.876-10.872,14.716-32.102,34.881-32.9c20.169-0.794,25.73,13.396,23.884,22.684c-1.852,9.296-11.544,13.794-18.972,10.62
		c-7.432-3.19-4.111-6.637-4.111-6.637s5.431,1.589,6.76,0c1.331-1.596,3.848-10.073-5.835-7.825
		c-9.682,2.257-7.425,14.059-3.973,16.056c3.442,1.984,7.956,6.489,23.213,1.722c11.071-3.471,21.354-5.162,28.255-2.649
		c6.664-9.711,10.587-21.459,10.587-34.128C124.374,31.024,97.344,4,64.002,4z"/>
</g>
<g id="Layer_1">
</g>
</svg>
