<?xml version="1.0" encoding="iso-8859-1"?>
<!-- Generator: Adobe Illustrator 16.0.0, SVG Export Plug-In . SVG Version: 6.00 Build 0)  -->
<!DOCTYPE svg PUBLIC "-//W3C//DTD SVG 1.1//EN" "http://www.w3.org/Graphics/SVG/1.1/DTD/svg11.dtd">
<svg version="1.1" xmlns="http://www.w3.org/2000/svg" xmlns:xlink="http://www.w3.org/1999/xlink" x="0px" y="0px" width="128px"
	 height="128px" viewBox="0 0 128 128" style="enable-background:new 0 0 128 128;" xml:space="preserve">
<g id="_x31_47-more-fun">
	<path style="fill:#5C5C5C;" d="M71.404,97.424c0.588,0,1.059-0.471,1.059-1.056c0-0.057-0.006-0.102-0.017-0.151
		c-0.074,0.521-0.521,0.931-1.072,0.931c-0.465,0-0.871-0.311-1.016-0.736C70.377,96.974,70.845,97.424,71.404,97.424z M64,4
		C30.867,4,4.001,30.857,4.001,64c0,33.137,26.866,60,59.999,60c33.131,0,59.999-26.863,59.999-60C123.999,30.857,97.131,4,64,4z
		 M50.386,111.914c-5.551,0-11.345-1.675-11.345-4.87c0-2.812,4.959-4.448,8.959-4.8V30.243c0-0.264-1-0.819-1-1.474v-3.381
		C47,24.485,48.137,24,49.03,24h2.708C52.634,24,53,24.485,53,25.389v3.381c0,0.654,0,1.21-1,1.474v72.001
		c5,0.352,9.355,1.988,9.355,4.8C61.355,110.239,55.944,111.914,50.386,111.914z M70.631,104.558c-3.102,0-5.62-2.518-5.62-5.614
		c0-3.106,2.519-5.618,5.62-5.618c3.097,0,5.612,2.512,5.612,5.618C76.243,102.04,73.728,104.558,70.631,104.558z M91,50.702
		c0,0.05-0.104,0.09-0.109,0.131c0.026,0.183-0.036,0.365-0.101,0.545c-0.051,0.124-1.111,3.008-4.331,4.055
		c-0.775,0.249-1.592,0.377-2.461,0.377c-2.767,0-6.024-1.284-9.719-3.832c-10.706-7.39-17.23-0.48-17.504-0.178
		c-0.337,0.363-0.697,0.491-1.164,0.308C55.14,51.929,55,51.482,55,50.976V29.444c0-0.021-0.168-0.03-0.168-0.05
		c0-0.05-0.076-0.09-0.071-0.13c0-0.029-0.041-0.053-0.036-0.079c0.027-0.243,0.083-0.492,0.261-0.68
		c0.081-0.095,8.16-8.825,20.683-0.193c4.125,2.844,7.585,3.937,10.008,3.142c2.063-0.67,2.757-2.521,2.762-2.541
		c0.198-0.562,0.859-0.898,1.455-0.794C90.479,28.209,91,28.725,91,29.315V50.702z M73.2,96.411
		c0.022,0.562,0.479,1.013,1.054,1.013c0.572,0,1.049-0.471,1.049-1.056c0-0.057-0.006-0.102-0.017-0.151
		c-0.074,0.521-0.521,0.931-1.062,0.931C73.738,97.147,73.34,96.837,73.2,96.411z M52,104.68V107h-4v-2.32
		c-4,0.343-6.524,1.738-6.524,2.354c0,0.722,3.153,2.441,8.822,2.441c5.676,0,8.572-1.72,8.572-2.441
		C58.869,106.418,57,105.026,52,104.68z M71.848,98.403c0.019,0.564,0.487,1.012,1.046,1.012c0.583,0,1.059-0.468,1.059-1.053
		c0-0.05-0.011-0.104-0.021-0.152c-0.069,0.528-0.517,0.926-1.067,0.926C72.394,99.136,71.992,98.83,71.848,98.403z M74.225,100.343
		c-0.481,0-0.885-0.302-1.024-0.736c0.022,0.562,0.479,1.014,1.054,1.014c0.572,0,1.049-0.472,1.049-1.055
		c0-0.046-0.006-0.102-0.017-0.15C75.212,99.941,74.766,100.343,74.225,100.343z M72.115,102.224c-0.481,0-0.886-0.302-1.019-0.735
		c0.021,0.562,0.479,1.008,1.048,1.008c0.574,0,1.056-0.471,1.056-1.05c0-0.05-0.008-0.102-0.019-0.15
		C73.107,101.822,72.661,102.224,72.115,102.224z M69.712,103.431c-0.477,0-0.878-0.314-1.026-0.74
		c0.021,0.566,0.485,1.014,1.053,1.014c0.585,0,1.051-0.468,1.051-1.055c0-0.048-0.006-0.097-0.013-0.153
		C70.706,103.027,70.259,103.431,69.712,103.431z M71.848,99.843c0-0.052-0.016-0.104-0.016-0.155
		c-0.075,0.527-0.521,0.928-1.067,0.928c-0.476,0-0.88-0.308-1.026-0.735c0.019,0.566,0.486,1.009,1.051,1.009
		C71.374,100.889,71.848,100.421,71.848,99.843z"/>
</g>
<g id="Layer_1">
</g>
</svg>
