<?xml version="1.0" encoding="iso-8859-1"?>
<!-- Generator: Adobe Illustrator 16.0.0, SVG Export Plug-In . SVG Version: 6.00 Build 0)  -->
<!DOCTYPE svg PUBLIC "-//W3C//DTD SVG 1.1//EN" "http://www.w3.org/Graphics/SVG/1.1/DTD/svg11.dtd">
<svg version="1.1" xmlns="http://www.w3.org/2000/svg" xmlns:xlink="http://www.w3.org/1999/xlink" x="0px" y="0px" width="128px"
	 height="128px" viewBox="0 0 128 128" style="enable-background:new 0 0 128 128;" xml:space="preserve">
<g id="_x31_48-golf">
	<path style="fill:#5C5C5C;" d="M123.876,58.126c-0.023-0.284-0.068-0.562-0.098-0.846c-0.188-1.692-0.443-3.372-0.771-5.022
		c-0.045-0.224-0.091-0.453-0.137-0.677c-1.756-8.31-5.265-15.956-10.079-22.606l-5.754,15.83c0.1,0.374,0.085,0.98-0.029,1.349
		c-0.125,0.369-0.885,2.779-1.704,5.356c-1.662,5.311-4.61,12.709-9.47,23.79c-1.217,2.771-1.664,3.638-2.785,5.277
		c-3.659,5.321-7.328,9.034-10.777,10.906c-6.58,3.58-25.253,8.769-36.246,10.056c-3.781,0.444-8.222,0.425-10.541-0.043
		c-2.421-0.489-5.043-1.87-6.899-3.62c-4.677-4.436-7.202-10.36-7.415-17.454c-0.112-3.693,0.205-5.475,1.592-8.696
		c1.576-3.662,4.681-6.312,8.591-7.353c2.935-0.779,11.865-0.008,20.338,1.762c8.518,1.779,15.284,3.595,22.381,6.008
		c4.795,1.625,6.87,2.094,8.648,1.948c1.438-0.12,2.094-0.34,3-0.997c1.797-1.308,1.857-1.428,6.335-12.34
		c6.733-16.451,7.325-17.806,7.962-18.438c0.473-0.462,0.885-1.374,2.583-5.695c1.435-3.618,3.335-8.417,5.358-13.505
		C96.973,11.376,81.371,4,64.002,4C30.799,4,3.872,30.812,3.828,63.909C3.872,97.105,30.799,124,64.002,124
		c33.199,0,60.124-26.895,60.17-60.091C124.172,61.959,124.066,60.027,123.876,58.126z M50.976,74.585
		c-4.223-0.096-9.287-1.331-13.42-0.659c-0.123,0.012-0.234,0.035-0.354,0.054c-1.743,0.329-3.307,1.021-4.557,2.312
		c-3.005,3.101-1.751,8.721-0.798,12.938c0.726,3.261,1.955,7.093,4.836,8.787c9.772,3.713,27.017-2.266,33.714-4.745
		c6.713-2.487,9.018-1.911,11.148-5.46c1.17-1.947,1.045-4.926-0.229-6.812c-1.542-2.271-4.896-2.57-7.546-3.318
		C66.393,75.601,58.639,74.742,50.976,74.585z M35.155,80.944l23.617-4.09c0.006,0,0.019-0.006,0.029-0.006
		c0.647-0.1,1.254,0.338,1.36,0.986c0.11,0.646-0.335,1.259-0.982,1.364l-23.622,4.086c-0.008,0.006-0.025,0.01-0.029,0.01
		c-0.653,0.1-1.258-0.34-1.362-0.99C34.06,81.657,34.508,81.048,35.155,80.944z M34.195,88.034c-0.01,0.004-0.023,0.004-0.029,0.004
		c-0.649,0.105-1.261-0.336-1.366-0.984c-0.093-0.653,0.344-1.259,0.995-1.36l33.545-5.754c0.006-0.005,0.019-0.005,0.029-0.005
		c0.65-0.105,1.256,0.334,1.361,0.991c0.102,0.646-0.344,1.254-0.988,1.357L34.195,88.034z M69.054,91.114l-29.131,5.013h-0.035
		c-0.647,0.105-1.252-0.332-1.355-0.984c-0.1-0.653,0.342-1.25,0.989-1.354l29.138-5.022c0.008,0,0.019-0.004,0.029-0.004
		c0.656-0.102,1.252,0.342,1.357,0.988C70.146,90.397,69.707,91.011,69.054,91.114z M75.088,84.379
		c0.1,0.643-0.344,1.255-0.986,1.354l-37.593,6.438c-0.004,0-0.019,0-0.029,0.008c-0.649,0.1-1.254-0.344-1.36-0.99
		c-0.1-0.651,0.344-1.259,0.986-1.364l37.587-6.431c0.012,0,0.022-0.004,0.035-0.004C74.377,83.285,74.984,83.729,75.088,84.379z"/>
</g>
<g id="Layer_1">
</g>
</svg>
