<?xml version="1.0" encoding="iso-8859-1"?>
<!-- Generator: Adobe Illustrator 16.0.0, SVG Export Plug-In . SVG Version: 6.00 Build 0)  -->
<!DOCTYPE svg PUBLIC "-//W3C//DTD SVG 1.1//EN" "http://www.w3.org/Graphics/SVG/1.1/DTD/svg11.dtd">
<svg version="1.1" xmlns="http://www.w3.org/2000/svg" xmlns:xlink="http://www.w3.org/1999/xlink" x="0px" y="0px" width="128px"
	 height="128px" viewBox="0 0 128 128" style="enable-background:new 0 0 128 128;" xml:space="preserve">
<g id="_x31_49-tickets">
	<path style="fill:#5C5C5C;" d="M123.104,69.18l-13.117-6.053l-0.207,0.889c-0.536,2.692-2.922,4.653-5.784,4.774
		c-0.901,0.037-1.669,0.694-1.839,1.584c-0.183,0.889,0.268,1.79,1.084,2.167c2.594,1.218,4.043,3.947,3.495,6.639l-0.512,2.558
		c-0.669,3.373-4.396,5.48-7.661,4.676c-0.913-0.219-1.852-0.389-2.776-0.571c-1.365-0.268-2.729-0.549-4.092-0.816
		c-1.804-0.364-3.606-0.719-5.408-1.083c-2.144-0.427-4.3-0.865-6.442-1.292c-2.399-0.486-4.799-0.962-7.198-1.449
		c-2.558-0.513-5.128-1.024-7.686-1.548c-2.631-0.523-5.261-1.059-7.88-1.583c-2.605-0.523-5.201-1.047-7.806-1.571l-7.454-1.498
		c-2.278-0.45-4.542-0.914-6.82-1.364c-1.973-0.39-3.946-0.791-5.907-1.182c-1.571-0.316-3.143-0.634-4.725-0.95l-3.251-0.657
		c-0.5-0.098-0.999-0.207-1.499-0.305c-0.024,0-0.049-0.012-0.073-0.012c0.268,1.266,0.146,2.618-0.438,3.885
		c-1.23,2.654-4.092,4.044-6.845,3.507c-0.816-0.159-1.705,0.146-2.058,0.901l-1.096,2.375c-0.353,0.755,0,1.633,0.645,2.155
		c0.122,0.098,87.909,40.568,88.054,40.604c0.815,0.158,1.705-0.146,2.059-0.901l1.096-2.374c0.353-0.755,0-1.632-0.646-2.155
		c-2.192-1.741-2.996-4.822-1.767-7.479c1.23-2.655,4.092-4.043,6.846-3.508c0.815,0.158,1.705-0.146,2.058-0.901l1.096-2.374
		c0.354-0.755,0-1.632-0.646-2.155c-2.191-1.741-2.996-4.822-1.767-7.478c1.23-2.654,4.092-4.043,6.846-3.508
		c0.815,0.159,1.705-0.146,2.058-0.9l1.096-2.375c0.354-0.755,0-1.632-0.646-2.156c-2.191-1.741-2.996-4.822-1.766-7.477
		c1.229-2.655,4.091-4.044,6.845-3.508c0.816,0.158,1.705-0.146,2.058-0.901l1.206-2.63C124.189,70.422,123.86,69.532,123.104,69.18
		z M102.035,80.907l0.512-2.558c0.158-0.815-0.378-1.594-1.133-1.948c-2.533-1.193-4.032-3.995-3.459-6.869s3.045-4.885,5.847-5.005
		c0.828-0.036,1.632-0.548,1.79-1.353l0.377-1.875l0.134-0.695c0.159-0.816-0.377-1.596-1.132-1.948
		c-2.533-1.193-4.032-3.994-3.459-6.868c0.572-2.875,3.044-4.884,5.846-5.006c0.827-0.037,1.632-0.548,1.791-1.352l0.512-2.558
		c0.158-0.816-0.378-1.596-1.134-1.949c-2.533-1.193-4.031-3.994-3.459-6.868c0.572-2.875,3.045-4.884,5.846-5.006
		c0.828-0.037,1.632-0.547,1.79-1.351l0.572-2.838c0.158-0.816-0.365-1.608-1.182-1.766c0,0-95.228-19.096-95.325-19.096
		c-0.707,0-1.328,0.5-1.474,1.206l-0.572,2.837c-0.158,0.816,0.378,1.596,1.132,1.949c2.532,1.193,4.031,3.995,3.459,6.869
		c-0.573,2.874-3.044,4.883-5.846,5.005c-0.828,0.037-1.632,0.548-1.791,1.352l-0.509,2.556c-0.158,0.816,0.377,1.596,1.132,1.948
		c2.533,1.193,4.032,3.994,3.459,6.869c-0.573,2.874-3.044,4.883-5.846,5.005c-0.829,0.036-1.632,0.548-1.791,1.351l-0.511,2.559
		c-0.159,0.816,0.377,1.595,1.132,1.948c2.533,1.193,4.032,3.994,3.458,6.869c-0.572,2.874-3.044,4.883-5.846,5.005
		c-0.827,0.037-1.632,0.548-1.79,1.352l-0.512,2.558c-0.17,0.816,0.366,1.583,1.122,1.936c0.146,0.073,94.91,19.084,95.068,19.084
		C101.073,82.223,101.877,81.712,102.035,80.907z M37.414,22.132l-1.389,6.906l-1.57,7.832l-1.267,6.309l-2.254,11.278
		c-0.293,1.45-1.559,2.447-2.984,2.447c-0.195,0-0.402-0.024-0.596-0.061c-0.085-0.012-0.17-0.036-0.244-0.061
		c-1.51-0.438-2.447-1.96-2.131-3.519l0.451-2.278l1.181-5.894l4.836-24.15c0.328-1.645,1.936-2.716,3.581-2.388
		C36.671,18.881,37.743,20.488,37.414,22.132z M92.316,33.153l-4.019,19.999l-2.473,12.326c-0.292,1.448-1.558,2.448-2.983,2.448
		c-0.194,0-0.401-0.024-0.597-0.062c-1.645-0.328-2.716-1.936-2.388-3.58l2.765-13.75l3.727-18.573
		c0.328-1.645,1.937-2.716,3.58-2.387C91.573,29.903,92.646,31.509,92.316,33.153z"/>
</g>
<g id="Layer_1">
</g>
</svg>
