<?xml version="1.0" encoding="iso-8859-1"?>
<!-- Generator: Adobe Illustrator 16.0.0, SVG Export Plug-In . SVG Version: 6.00 Build 0)  -->
<!DOCTYPE svg PUBLIC "-//W3C//DTD SVG 1.1//EN" "http://www.w3.org/Graphics/SVG/1.1/DTD/svg11.dtd">
<svg version="1.1" xmlns="http://www.w3.org/2000/svg" xmlns:xlink="http://www.w3.org/1999/xlink" x="0px" y="0px" width="128px"
	 height="128px" viewBox="0 0 128 128" style="enable-background:new 0 0 128 128;" xml:space="preserve">
<g id="_x31_5-instagram">
	<path style="fill:#59595C;" d="M63.974,76.202c7.081,0,12.82-5.563,12.82-12.423c0-6.862-5.739-12.423-12.82-12.423
		c-7.081,0-12.815,5.561-12.815,12.423C51.158,70.639,56.893,76.202,63.974,76.202z M79.241,50h5.725C86.224,50,87,49.39,87,48.135
		v-5.459C87,41.421,86.224,41,84.966,41h-5.725C77.983,41,77,41.421,77,42.675v5.459C77,49.39,77.983,50,79.241,50z M64,0
		C28.655,0,0,28.653,0,64c0,35.346,28.654,64,64,64c35.347,0,64-28.654,64-64C128,28.653,99.348,0,64,0z M96,87.641
		C96,92.147,92.145,96,87.636,96H40.192C35.688,96,32,92.147,32,87.641V40.195C32,35.688,35.688,32,40.192,32h47.444
		C92.145,32,96,35.688,96,40.195V87.641z M83.812,64.474c0,10.619-8.878,19.222-19.839,19.222c-10.956,0-19.839-8.604-19.839-19.222
		c0-1.902,0.286-3.475,0.815-5.475H39v26.958C39,87.355,40.229,89,41.631,89h44.446C87.47,89,89,87.355,89,85.958V59h-6.009
		C83.532,61,83.812,62.573,83.812,64.474z"/>
</g>
<g id="Layer_1">
</g>
</svg>
