<?xml version="1.0" encoding="iso-8859-1"?>
<!-- Generator: Adobe Illustrator 16.0.0, SVG Export Plug-In . SVG Version: 6.00 Build 0)  -->
<!DOCTYPE svg PUBLIC "-//W3C//DTD SVG 1.1//EN" "http://www.w3.org/Graphics/SVG/1.1/DTD/svg11.dtd">
<svg version="1.1" xmlns="http://www.w3.org/2000/svg" xmlns:xlink="http://www.w3.org/1999/xlink" x="0px" y="0px" width="128px"
	 height="128px" viewBox="0 0 128 128" style="enable-background:new 0 0 128 128;" xml:space="preserve">
<g id="_x31_53-corazon-outline">
	<path style="fill:#5C5C5C;" d="M91,20.951c11.972,0,21,9.028,21,21c0,17.334-18.842,34.424-47.375,60.306L64,102.825l-0.639-0.58
		C34.841,76.375,16,59.284,16,41.951c0-11.972,9.028-21,21-21c6.648,0,13.504,3.178,17.893,8.293L64,39.86l9.107-10.616
		C77.496,24.128,84.353,20.951,91,20.951 M91,8.951c-10.44,0-20.461,4.858-27,12.48c-6.539-7.622-16.559-12.48-27-12.48
		c-18.48,0-33,14.461-33,33c0,22.618,20.402,41.157,51.298,69.182L64,119.049l8.7-7.916C103.598,83.107,124,64.569,124,41.951
		C124,23.412,109.479,8.951,91,8.951L91,8.951z"/>
</g>
<g id="Layer_1">
</g>
</svg>
