<?xml version="1.0" encoding="iso-8859-1"?>
<!-- Generator: Adobe Illustrator 16.0.0, SVG Export Plug-In . SVG Version: 6.00 Build 0)  -->
<!DOCTYPE svg PUBLIC "-//W3C//DTD SVG 1.1//EN" "http://www.w3.org/Graphics/SVG/1.1/DTD/svg11.dtd">
<svg version="1.1" xmlns="http://www.w3.org/2000/svg" xmlns:xlink="http://www.w3.org/1999/xlink" x="0px" y="0px" width="128px"
	 height="128px" viewBox="0 0 128 128" style="enable-background:new 0 0 128 128;" xml:space="preserve">
<g id="_x31_55-hotels-near">
	<path style="fill:#5D5D5D;" d="M111.137,59C108.713,37,91,19.288,69,16.864V6H59v10.864C37,19.288,19.287,37,16.863,59H6v10h10.863
		C19.287,91,37,108.713,59,111.137V122h10v-10.863C91,108.713,108.713,91,111.137,69H122V59H111.137z M64,100.908
		c-20.403,0-36.907-16.507-36.907-36.908S43.597,27.093,64,27.093c20.402,0,36.908,16.505,36.908,36.907S84.402,100.908,64,100.908z
		 M64,42.907c-11.656,0-21.092,9.436-21.092,21.093c0,11.656,9.436,21.094,21.092,21.094S85.092,75.656,85.092,64
		C85.092,52.343,75.656,42.907,64,42.907z"/>
</g>
<g id="Layer_1">
</g>
</svg>
