<?xml version="1.0" encoding="iso-8859-1"?>
<!-- Generator: Adobe Illustrator 16.0.0, SVG Export Plug-In . SVG Version: 6.00 Build 0)  -->
<!DOCTYPE svg PUBLIC "-//W3C//DTD SVG 1.1//EN" "http://www.w3.org/Graphics/SVG/1.1/DTD/svg11.dtd">
<svg version="1.1" xmlns="http://www.w3.org/2000/svg" xmlns:xlink="http://www.w3.org/1999/xlink" x="0px" y="0px" width="128px"
	 height="128px" viewBox="0 0 128 128" style="enable-background:new 0 0 128 128;" xml:space="preserve">
<g id="_x31_56-cash">
	<path style="fill:#5D5D5D;" d="M50.023,44.808c0,2.684,0.934,4.717,2.537,6.086c1.604,1.381,3.44,2.639,7.44,3.757v-19.53
		c-3.312,0.503-5.35,1.312-7.062,2.691C51.239,39.203,50.023,41.992,50.023,44.808z M64,4.25c-33.137,0-60,26.863-60,60
		s26.863,60,60,60s60-26.863,60-60S97.137,4.25,64,4.25z M90.717,89.943c-1.947,3.385-4.637,6.144-8.42,8.288
		c-3.773,2.144-8.297,3.41-13.297,3.812v7.696c0,2.012-0.379,3.469-0.789,4.399c-0.428,0.905-2.437,1.361-3.845,1.361
		c-1.324,0-3.14-0.374-3.672-1.118c-0.512-0.746-0.694-1.9-0.694-3.468v-8.759c-5-0.448-8.1-1.37-11.289-2.797
		c-3.179-1.436-5.906-3.205-8.033-5.341c-2.125-2.116-3.735-4.325-4.752-6.628c-1.025-2.283-1.546-4.531-1.546-6.749
		c0-1.624,0.681-3.095,2.033-4.41c1.369-1.294,3.062-1.958,5.095-1.958c1.641,0,3.025,0.355,4.154,1.064
		c1.118,0.719,1.9,1.723,2.347,3.019c0.971,2.778,1.827,4.913,2.554,6.396c0.727,1.474,1.968,2.824,3.441,4.047
		C55.479,90.018,57,90.96,60,91.603V67.898c-5-1.26-9.081-2.657-12.352-4.205c-3.272-1.547-6-3.749-8.031-6.599
		c-2.051-2.854-3.094-6.526-3.094-11.011c0-5.845,2.119-10.635,6.098-14.374C46.603,27.973,52,25.791,60,25.195v-5.417
		c0-2.852,2.19-4.278,4.481-4.278c2.322,0,4.519,1.398,4.519,4.175v5.52c4,0.372,7.062,1.108,9.84,2.227
		c2.777,1.128,5.122,2.826,7.185,5.1c1.641,1.734,2.862,3.523,3.759,5.359c0.895,1.836,1.32,3.505,1.32,5.034
		c0,1.707-0.692,3.179-2.007,4.418c-1.342,1.241-2.948,1.856-4.833,1.856c-3.562,0-5.702-1.791-6.763-5.407
		C76.298,39.54,73,36.188,69,35.327v21.208c4,1.155,7.938,2.21,10.604,3.151c2.666,0.959,4.966,2.332,7.081,4.139
		c2.246,1.863,3.954,4.102,5.167,6.711c1.213,2.583,1.807,5.444,1.807,8.53C93.658,82.943,92.666,86.569,90.717,89.943z
		 M77.412,73.89C75.465,72.271,72,70.907,69,69.788v22.318c3-0.67,6.344-2.051,8.328-4.121c2.016-2.069,3.002-4.492,3.002-7.234
		C80.33,77.786,79.361,75.495,77.412,73.89z"/>
</g>
<g id="Layer_1">
</g>
</svg>
