<?xml version="1.0" encoding="UTF-8"?>
<svg width="22px" height="22px" viewBox="0 0 22 22" version="1.1" xmlns="http://www.w3.org/2000/svg" xmlns:xlink="http://www.w3.org/1999/xlink">
    <!-- Generator: Sketch 48.2 (47327) - http://www.bohemiancoding.com/sketch -->
    <title>chat (1)</title>
    <desc>Created with Sketch.</desc>
    <defs></defs>
    <g id="Tabs_expert" stroke="none" stroke-width="1" fill="none" fill-rule="evenodd" transform="translate(-207.000000, -10.000000)">
        <g id="chat-(1)" transform="translate(207.000000, 10.000000)" fill-rule="nonzero">
            <path d="M18.7718354,3.22325581 C16.6925997,1.14418605 13.93424,0 10.9944706,0 C8.05470107,0 5.2963414,1.14418605 3.21710571,3.22325581 C-0.80181967,7.24186047 -1.08091171,13.6744186 2.52402714,18.0139535 C2.17051056,18.7255814 1.60302341,19.5534884 0.761095754,19.9674419 C0.356412296,20.1674419 0.12848713,20.6 0.19826014,21.0465116 C0.26803315,21.4930233 0.612246666,21.8418605 1.05879393,21.9116279 C1.26811296,21.944186 1.56581114,21.9767442 1.92863079,21.9767442 C2.90080139,21.9767442 4.33347387,21.7488372 5.79870708,20.6930233 C7.43139551,21.572093 9.21758457,22 10.989819,22 C13.8365578,22 16.6553874,20.8976744 18.7764869,18.7767442 C20.8557226,16.6976744 22,13.9395349 22,11 C22,8.06046512 20.8510711,5.30232558 18.7718354,3.22325581 Z" id="Shape" fill="#EA6422"></path>
            <g id="Group-3" transform="translate(4.000000, 10.000000)" fill="#FFFFFF">
                <circle id="Oval" cx="7" cy="1.5" r="1.5"></circle>
                <circle id="Oval" cx="12.5" cy="1.5" r="1.5"></circle>
                <circle id="Oval" cx="1.5" cy="1.5" r="1.5"></circle>
            </g>
        </g>
    </g>
</svg>