<?xml version="1.0" encoding="iso-8859-1"?>
<!-- Generator: Adobe Illustrator 16.0.0, SVG Export Plug-In . SVG Version: 6.00 Build 0)  -->
<!DOCTYPE svg PUBLIC "-//W3C//DTD SVG 1.1//EN" "http://www.w3.org/Graphics/SVG/1.1/DTD/svg11.dtd">
<svg version="1.1" xmlns="http://www.w3.org/2000/svg" xmlns:xlink="http://www.w3.org/1999/xlink" x="0px" y="0px" width="128px"
	 height="128px" viewBox="0 0 128 128" style="enable-background:new 0 0 128 128;" xml:space="preserve">
<g id="_x31_6-linkedin">
	<path style="fill:#59595C;" d="M64,0C28.654,0,0,28.653,0,64c0,35.346,28.654,64,64,64c35.348,0,64-28.654,64-64
		C128,28.653,99.348,0,64,0z M47,94H33V51h14V94z M40.774,45.452c-4.313,0-7.812-3.493-7.812-7.813c0-4.312,3.499-7.808,7.812-7.808
		c4.314,0,7.813,3.496,7.813,7.808C48.588,41.959,45.089,45.452,40.774,45.452z M96,94H83V69.203c0,0-0.381-8.234-7.768-7.284
		c0,0-6.232-0.317-7.232,7.701V94H55V51h12v5.956c0,0,3.787-7.071,13.07-6.858c0,0,14.93-1.582,15.93,15.517V94z"/>
</g>
<g id="Layer_1">
</g>
</svg>
