<?xml version="1.0" encoding="iso-8859-1"?>
<!-- Generator: Adobe Illustrator 16.0.0, SVG Export Plug-In . SVG Version: 6.00 Build 0)  -->
<!DOCTYPE svg PUBLIC "-//W3C//DTD SVG 1.1//EN" "http://www.w3.org/Graphics/SVG/1.1/DTD/svg11.dtd">
<svg version="1.1" xmlns="http://www.w3.org/2000/svg" xmlns:xlink="http://www.w3.org/1999/xlink" x="0px" y="0px" width="128px"
	 height="128px" viewBox="0 0 128 128" style="enable-background:new 0 0 128 128;" xml:space="preserve">
<g id="_x32_0-star">
	<path style="fill:#59595C;" d="M124,51.24c0-1.776-1.348-2.886-4.043-3.318l-36.195-5.266L67.533,9.844
		C66.621,7.873,65.443,6.888,64,6.888c-1.443,0-2.622,0.985-3.534,2.956L44.24,42.656l-36.2,5.266C5.344,48.354,4,49.464,4,51.24
		c0,1.007,0.601,2.164,1.802,3.468l26.25,25.533l-6.2,36.049c-0.095,0.674-0.146,1.15-0.146,1.436c0,1.012,0.253,1.867,0.758,2.562
		c0.506,0.703,1.264,1.049,2.274,1.049c0.86,0,1.824-0.287,2.882-0.873L64,103.458l32.38,17.006c1.01,0.586,1.971,0.873,2.877,0.873
		c0.969,0,1.699-0.346,2.205-1.049c0.506-0.695,0.756-1.551,0.756-2.562c0-0.615-0.023-1.105-0.066-1.436l-6.203-36.049
		l26.176-25.533C123.371,53.452,124,52.298,124,51.24z"/>
</g>
<g id="Layer_1">
</g>
</svg>
