<?xml version="1.0" encoding="iso-8859-1"?>
<!-- Generator: Adobe Illustrator 16.0.0, SVG Export Plug-In . SVG Version: 6.00 Build 0)  -->
<!DOCTYPE svg PUBLIC "-//W3C//DTD SVG 1.1//EN" "http://www.w3.org/Graphics/SVG/1.1/DTD/svg11.dtd">
<svg version="1.1" xmlns="http://www.w3.org/2000/svg" xmlns:xlink="http://www.w3.org/1999/xlink" x="0px" y="0px" width="128px"
	 height="128px" viewBox="0 0 128 128" style="enable-background:new 0 0 128 128;" xml:space="preserve">
<g id="_x32_1-half-star">
	<path style="fill:#555555;" d="M64,6.779c0,0-0.002,0-0.003,0.001C64,6.781,64,6.783,64,6.783V6.779z M63.996,6.779
		C63.992,6.779,63.999,6.78,63.996,6.779C63.997,6.78,63.997,6.78,63.996,6.779C63.996,6.78,63.998,6.779,63.996,6.779z M64,6.785
		v0.006C64.018,6.79,64.011,6.787,64,6.785z M123.729,51.136c0-1.783-1.333-2.893-4.028-3.328L83.491,42.53L67.273,9.738
		C66.424,7.883,65,6.922,64,6.803V7c-0.001,0,0,0-0.001,0c-0.02,0-0.017-0.108-0.014-0.11l-0.13-0.034
		c-1.306,0.121-2.479,1.056-3.326,2.908L44.273,42.543L8.047,47.814c-2.694,0.436-4.036,1.542-4.036,3.325
		c0,0.996,0.582,2.148,1.798,3.466l26.246,25.523l-6.212,36.055c-0.065,0.674-0.118,1.143-0.118,1.436
		c0,1.003,0.234,1.859,0.755,2.548c0.49,0.703,1.259,1.055,2.248,1.055c0.864,0,1.831-0.293,2.908-0.864l32.229-16.942
		l32.237,16.942c1.069,0.571,2.036,0.864,2.9,0.864c0.996,0,1.758-0.352,2.256-1.055c0.513-0.688,0.747-1.545,0.747-2.548
		c0-0.293-0.044-0.762-0.117-1.436l-6.211-36.056l26.249-25.523C123.143,53.285,123.729,52.132,123.729,51.136z M94.98,79.41
		c-0.236,0.229-0.345,0.562-0.288,0.887l6.205,36.024c0.057,0.521,0.108,1.035,0.108,1.297c0,0.816-0.18,1.454-0.563,1.97
		c-0.192,0.271-0.551,0.633-1.439,0.633c-0.686,0-1.502-0.251-2.436-0.749l-32.371-17.013c-0.013-0.007-0.029-0.014-0.042-0.02
		L64,102.347V8.417l0.292-0.554c0.791,0.244,1.49,1.016,2.086,2.318l16.216,32.792c0.146,0.294,0.428,0.499,0.753,0.546
		l36.193,5.275c3.188,0.515,3.188,1.841,3.188,2.341c0,0.73-0.525,1.688-1.519,2.77L94.98,79.41z M64,6.785V6.783l-0.003,0
		C63.998,6.784,63.999,6.784,64,6.785z M63.996,6.78c-0.003,0.001-0.008,0.002-0.011,0.005l0.012-0.001
		C63.99,6.782,63.99,6.781,63.996,6.78z"/>
</g>
<g id="Layer_1">
</g>
</svg>
