<?xml version="1.0" encoding="iso-8859-1"?>
<!-- Generator: Adobe Illustrator 16.0.0, SVG Export Plug-In . SVG Version: 6.00 Build 0)  -->
<!DOCTYPE svg PUBLIC "-//W3C//DTD SVG 1.1//EN" "http://www.w3.org/Graphics/SVG/1.1/DTD/svg11.dtd">
<svg version="1.1" xmlns="http://www.w3.org/2000/svg" xmlns:xlink="http://www.w3.org/1999/xlink" x="0px" y="0px" width="128px"
	 height="128px" viewBox="0 0 128 128" style="enable-background:new 0 0 128 128;" xml:space="preserve">
<g id="_x32_2-question">
	<path style="fill:#5B5B5C;" d="M64,3C30.331,3,3,30.328,3,64c0,33.669,27.331,61,61,61s61-27.331,61-61C125,30.328,97.669,3,64,3z
		 M70,107H58V95h12V107z M82.729,59.425l-5.492,5.461C72.846,69.342,70.1,73,70.1,82H58v-2.75c0-6.708,2.696-12.808,7.086-17.264
		l7.541-7.685c2.252-2.198,3.586-5.248,3.586-8.602c0-6.711-5.499-12.05-12.207-12.05C57.298,33.65,51.8,39,51.8,46H39.6
		c0-14,10.919-24.55,24.4-24.55s24.4,10.844,24.4,24.326C88.4,51.143,86.208,55.949,82.729,59.425z"/>
</g>
<g id="Layer_1">
</g>
</svg>
