<?xml version="1.0" encoding="iso-8859-1"?>
<!-- Generator: Adobe Illustrator 16.0.0, SVG Export Plug-In . SVG Version: 6.00 Build 0)  -->
<!DOCTYPE svg PUBLIC "-//W3C//DTD SVG 1.1//EN" "http://www.w3.org/Graphics/SVG/1.1/DTD/svg11.dtd">
<svg version="1.1" xmlns="http://www.w3.org/2000/svg" xmlns:xlink="http://www.w3.org/1999/xlink" x="0px" y="0px" width="128px"
	 height="128px" viewBox="0 0 128 128" style="enable-background:new 0 0 128 128;" xml:space="preserve">
<g id="_x32_3-exclamation-circle">
	<path style="fill:#59595C;" d="M115.957,33.883c-5.367-9.191-12.648-16.473-21.84-21.834C84.926,6.681,74.883,4,64,4
		c-10.887,0-20.926,2.681-30.117,8.049C24.691,17.41,17.41,24.691,12.046,33.883C6.681,43.074,4,53.116,4,64
		c0,10.883,2.681,20.926,8.046,30.117c5.364,9.191,12.646,16.473,21.837,21.834C43.074,121.32,53.113,124,64,124
		c10.883,0,20.926-2.68,30.117-8.049c9.191-5.361,16.473-12.643,21.84-21.834C121.32,84.926,124,74.883,124,64
		C124,53.116,121.32,43.074,115.957,33.883z M74,101.42c0,0.732-0.232,1.35-0.701,1.838c-0.469,0.5-1.045,0.742-1.725,0.742H56.578
		c-0.678,0-1.275-0.258-1.795-0.777C54.26,102.703,54,102.102,54,101.42V86.58c0-0.682,0.26-1.275,0.783-1.803
		C55.303,84.258,55.9,84,56.578,84h14.996c0.68,0,1.256,0.25,1.725,0.742C73.768,85.238,74,85.848,74,86.58V101.42z M73.844,74.547
		c-0.051,0.52-0.322,0.723-0.82,1.117C72.525,76.055,71.918,76,71.189,76H56.734c-0.729,0-1.355,0.055-1.875-0.336
		c-0.52-0.395-0.779-0.723-0.779-1.242l-1.33-48.453c0-0.623,0.26-1.062,0.781-1.376C54.051,24.175,54.676,24,55.406,24h17.191
		c0.727,0,1.348,0.206,1.875,0.624c0.514,0.314,0.777,0.784,0.777,1.407L73.844,74.547z"/>
</g>
<g id="Layer_1">
</g>
</svg>
