<?xml version="1.0" encoding="iso-8859-1"?>
<!-- Generator: Adobe Illustrator 16.0.0, SVG Export Plug-In . SVG Version: 6.00 Build 0)  -->
<!DOCTYPE svg PUBLIC "-//W3C//DTD SVG 1.1//EN" "http://www.w3.org/Graphics/SVG/1.1/DTD/svg11.dtd">
<svg version="1.1" xmlns="http://www.w3.org/2000/svg" xmlns:xlink="http://www.w3.org/1999/xlink" x="0px" y="0px" width="128px"
	 height="128px" viewBox="0 0 128 128" style="enable-background:new 0 0 128 128;" xml:space="preserve">
<g id="_x32_4-check-circle">
	<path style="fill:#59595C;" d="M115.957,33.883c-5.383-9.191-12.648-16.473-21.832-21.841C84.918,6.681,74.883,4,63.996,4
		c-10.879,0-20.918,2.681-30.113,8.042c-9.195,5.368-16.476,12.649-21.841,21.841C6.677,43.082,4,53.116,4,64
		c0,10.891,2.677,20.934,8.042,30.125s12.646,16.465,21.841,21.826C43.078,121.32,53.117,124,63.996,124
		c10.887,0,20.922-2.68,30.129-8.049c9.184-5.361,16.449-12.635,21.832-21.826C121.312,84.934,124,74.891,124,64
		C124,53.116,121.312,43.082,115.957,33.883z M102.898,54.859L60.484,97.281c-0.988,0.988-2.186,1.494-3.6,1.494
		c-1.355,0-2.527-0.506-3.508-1.494L25.086,69.002c-0.934-0.938-1.398-2.109-1.398-3.522c0-1.45,0.465-2.651,1.398-3.589
		l7.113-7.031c0.988-0.988,2.164-1.479,3.52-1.479c1.354,0,2.529,0.491,3.518,1.479l17.648,17.666L88.77,40.724
		c0.982-0.996,2.168-1.494,3.51-1.494c1.348,0,2.525,0.498,3.508,1.494l7.111,7.031c0.93,0.931,1.414,2.124,1.414,3.589
		C104.312,52.75,103.828,53.93,102.898,54.859z"/>
</g>
<g id="Layer_1">
</g>
</svg>
