<?xml version="1.0" encoding="iso-8859-1"?>
<!-- Generator: Adobe Illustrator 16.0.0, SVG Export Plug-In . SVG Version: 6.00 Build 0)  -->
<!DOCTYPE svg PUBLIC "-//W3C//DTD SVG 1.1//EN" "http://www.w3.org/Graphics/SVG/1.1/DTD/svg11.dtd">
<svg version="1.1" xmlns="http://www.w3.org/2000/svg" xmlns:xlink="http://www.w3.org/1999/xlink" x="0px" y="0px" width="128px"
	 height="128px" viewBox="0 0 128 128" style="enable-background:new 0 0 128 128;" xml:space="preserve">
<g id="_x32_5-close-circle">
	<path style="fill:#59595C;" d="M64,4C30.863,4,4,30.863,4,64c0,33.139,26.863,60,60,60c33.137,0,60-26.861,60-60
		C124,30.863,97.137,4,64,4z M92.426,78.77c0.938,0.938,1.406,2.078,1.406,3.41c0,1.34-0.469,2.477-1.406,3.414L85.6,92.426
		c-0.938,0.938-2.08,1.406-3.414,1.406c-1.34,0-2.475-0.469-3.412-1.406L64.008,77.66L49.242,92.426
		c-0.938,0.938-2.08,1.406-3.42,1.406c-1.342,0-2.477-0.469-3.414-1.406l-6.834-6.832c-0.938-0.938-1.406-2.074-1.406-3.414
		c0-1.332,0.469-2.473,1.406-3.41l14.766-14.767L35.574,49.236c-0.938-0.938-1.406-2.076-1.406-3.417
		c0-1.34,0.469-2.476,1.406-3.416l6.834-6.83c0.938-0.938,2.072-1.406,3.414-1.406c1.34,0,2.482,0.469,3.42,1.406l14.766,14.766
		l14.766-14.766c0.938-0.938,2.072-1.406,3.412-1.406c1.334,0,2.477,0.469,3.414,1.406l6.826,6.83
		c0.938,0.94,1.406,2.076,1.406,3.416c0,1.341-0.469,2.479-1.406,3.417L77.66,64.003L92.426,78.77z"/>
</g>
<g id="Layer_1">
</g>
</svg>
