<?xml version="1.0" encoding="iso-8859-1"?>
<!-- Generator: Adobe Illustrator 16.0.0, SVG Export Plug-In . SVG Version: 6.00 Build 0)  -->
<!DOCTYPE svg PUBLIC "-//W3C//DTD SVG 1.1//EN" "http://www.w3.org/Graphics/SVG/1.1/DTD/svg11.dtd">
<svg version="1.1" xmlns="http://www.w3.org/2000/svg" xmlns:xlink="http://www.w3.org/1999/xlink" x="0px" y="0px" width="128px"
	 height="128px" viewBox="0 0 128 128" style="enable-background:new 0 0 128 128;" xml:space="preserve">
<g id="_x32_6-wifi">
	<path style="fill:#59595C;" d="M65.078,84.21c-7.433,0-13.451,5.523-13.451,12.355s6.018,12.359,13.451,12.359
		c7.41,0,13.441-5.527,13.441-12.359S72.488,84.21,65.078,84.21z M62.26,19.302C19.342,19.427,0,50.675,0,50.675l13.938,9.002
		c0,0,18.348-24.912,48.732-24.537c34.9,0.43,53.4,22.988,53.4,22.988L128,48.899C128,48.899,107.609,19.167,62.26,19.302z
		 M64.608,50.632C38.04,50.337,28.231,69.55,28.231,69.55l12.281,8.973c0,0,8.408-12.588,24.56-12.305
		C81.41,66.515,92.23,77.472,92.23,77.472l11.285-10.395C103.516,67.077,90.348,50.927,64.608,50.632z"/>
</g>
<g id="Layer_1">
</g>
</svg>
