<?xml version="1.0" encoding="iso-8859-1"?>
<!-- Generator: Adobe Illustrator 16.0.0, SVG Export Plug-In . SVG Version: 6.00 Build 0)  -->
<!DOCTYPE svg PUBLIC "-//W3C//DTD SVG 1.1//EN" "http://www.w3.org/Graphics/SVG/1.1/DTD/svg11.dtd">
<svg version="1.1" xmlns="http://www.w3.org/2000/svg" xmlns:xlink="http://www.w3.org/1999/xlink" x="0px" y="0px" width="128px"
	 height="128px" viewBox="0 0 128 128" style="enable-background:new 0 0 128 128;" xml:space="preserve">
<g id="_x32_7-iso-almundo">
	<path style="fill:#5D5D5D;" d="M64,4.5C31.139,4.5,4.5,31.139,4.5,64c0,32.856,26.639,59.5,59.5,59.5s59.5-26.644,59.5-59.5
		C123.5,31.139,96.861,4.5,64,4.5z M90.457,90.267l-26.081,22.371l-13.612-12.358c0,0,27.925-23.388,28.072-23.508
		c4.976-4.208,6.796-9.135,7.261-14.936c0.464-5.782-1.407-11.378-5.271-15.748c-4.221-4.77-10.254-7.51-16.556-7.51
		c-5.324,0-10.577,1.974-14.792,5.555c-9.214,7.834-9.813,22.078-1.428,31.84c1.14,1.328,10.628,8.726,10.628,8.726L46.283,94.967
		c-3.822-1.77-8.852-5.939-13.526-11.22C19.231,68.449,21.529,44.694,37.882,30.8c7.412-6.303,16.682-9.771,26.106-9.771
		c21.716,0,34.312,15.042,38.421,27.758C106.187,60.476,105.834,76.126,90.457,90.267z"/>
</g>
<g id="Layer_1">
</g>
</svg>
