<?xml version="1.0" encoding="iso-8859-1"?>
<!-- Generator: Adobe Illustrator 16.0.0, SVG Export Plug-In . SVG Version: 6.00 Build 0)  -->
<!DOCTYPE svg PUBLIC "-//W3C//DTD SVG 1.1//EN" "http://www.w3.org/Graphics/SVG/1.1/DTD/svg11.dtd">
<svg version="1.1" xmlns="http://www.w3.org/2000/svg" xmlns:xlink="http://www.w3.org/1999/xlink" x="0px" y="0px" width="128px"
	 height="128px" viewBox="0 0 128 128" style="enable-background:new 0 0 128 128;" xml:space="preserve">
<g id="_x32_8-ico-google">
	<path style="fill:#59595C;" d="M40.926,58.249c-0.019,4.567,0,9.132,0.019,13.7c7.655,0.249,15.329,0.134,22.983,0.249
		c-3.376,16.978-26.474,22.483-38.694,11.396c-12.566-9.727-11.971-31.06,1.093-40.096c9.132-7.29,22.121-5.486,31.251,0.825
		c3.588-3.319,6.946-6.868,10.188-10.552c-7.598-6.062-16.921-10.378-26.839-9.918c-20.7-0.69-39.73,17.439-40.075,38.139
		c-1.325,16.92,9.802,33.515,25.514,39.5c15.654,6.023,35.721,1.918,45.715-12.145c6.601-8.881,8.02-20.315,7.252-31.059
		C66.518,58.192,53.723,58.211,40.926,58.249z M115.656,58.333c-0.04-3.818,0.069-7.333,0.051-11.333h-11.416
		c-0.037,4,0.063,7.495,0.045,11.333C100.498,58.352,97,58.23,93,58.269v11.415c4,0.039,7.517-0.049,11.336-0.012
		C104.373,73.49,104.234,77,104.272,81h11.435c0.019-4-0.091-7.51-0.051-11.346c3.835-0.039,7.344,0.068,11.344,0.029V58.269
		C123,58.23,119.473,58.37,115.656,58.333z"/>
</g>
<g id="Layer_1">
</g>
</svg>
