<?xml version="1.0" encoding="iso-8859-1"?>
<!-- Generator: Adobe Illustrator 16.0.0, SVG Export Plug-In . SVG Version: 6.00 Build 0)  -->
<!DOCTYPE svg PUBLIC "-//W3C//DTD SVG 1.1//EN" "http://www.w3.org/Graphics/SVG/1.1/DTD/svg11.dtd">
<svg version="1.1" xmlns="http://www.w3.org/2000/svg" xmlns:xlink="http://www.w3.org/1999/xlink" x="0px" y="0px" width="128px"
	 height="128px" viewBox="0 0 128 128" style="enable-background:new 0 0 128 128;" xml:space="preserve">
<g id="_x32_9-ico-face">
	<path style="fill:#59595C;" d="M117.375,3H10.625C6.418,3,3,6.416,3,10.625v106.75C3,121.582,6.418,125,10.625,125H68V79H53V60h15
		V48.75C68,33.046,76.678,22,90.688,22H106v19h-7.688C90.695,41,87,44.938,87,52.562V60h18.938l-3.812,19H87v46h30.375
		c4.207,0,7.625-3.418,7.625-7.625V10.625C125,6.416,121.582,3,117.375,3z"/>
</g>
<g id="Layer_1">
</g>
</svg>
