<?xml version="1.0" encoding="iso-8859-1"?>
<!-- Generator: Adobe Illustrator 16.0.0, SVG Export Plug-In . SVG Version: 6.00 Build 0)  -->
<!DOCTYPE svg PUBLIC "-//W3C//DTD SVG 1.1//EN" "http://www.w3.org/Graphics/SVG/1.1/DTD/svg11.dtd">
<svg version="1.1" xmlns="http://www.w3.org/2000/svg" xmlns:xlink="http://www.w3.org/1999/xlink" x="0px" y="0px" width="128px"
	 height="128px" viewBox="0 0 128 128" style="enable-background:new 0 0 128 128;" xml:space="preserve">
<g id="_x33_0-ico-twitter">
	<path style="fill:#59595C;" d="M114.873,37.994c0.052,1.134,0.103,2.264,0.103,3.412c0,34.72-26.407,74.738-74.708,74.738
		c-14.833,0-28.634-4.352-40.267-11.812c2.051,0.257,4.139,0.385,6.271,0.385c12.292,0,23.609-4.197,32.619-11.255
		c-11.508-0.205-21.203-7.805-24.546-18.247c1.622,0.308,3.252,0.476,4.94,0.476c2.396,0,4.729-0.325,6.919-0.912
		c-11.999-2.417-21.06-13.039-21.06-25.77c0-0.114,0-0.22,0-0.337c3.534,1.978,7.582,3.157,11.885,3.282
		C9.984,47.25,5.37,39.207,5.37,30.101c0-4.816,1.282-9.327,3.538-13.212C21.874,32.78,41.205,43.241,63.041,44.338
		c-0.454-1.927-0.681-3.934-0.681-6.001c0-14.502,11.742-26.256,26.26-26.256c7.545,0,14.372,3.194,19.162,8.3
		c5.978-1.187,11.604-3.377,16.673-6.386c-1.949,6.125-6.132,11.29-11.56,14.526c5.325-0.612,10.395-2.046,15.104-4.123
		C124.455,29.669,120.045,34.302,114.873,37.994z"/>
</g>
<g id="Layer_1">
</g>
</svg>
