<?xml version="1.0" encoding="iso-8859-1"?>
<!-- Generator: Adobe Illustrator 16.0.0, SVG Export Plug-In . SVG Version: 6.00 Build 0)  -->
<!DOCTYPE svg PUBLIC "-//W3C//DTD SVG 1.1//EN" "http://www.w3.org/Graphics/SVG/1.1/DTD/svg11.dtd">
<svg version="1.1" xmlns="http://www.w3.org/2000/svg" xmlns:xlink="http://www.w3.org/1999/xlink" x="0px" y="0px" width="128px"
	 height="128px" viewBox="0 0 128 128" style="enable-background:new 0 0 128 128;" xml:space="preserve">
<g id="_x33_1-summer">
	<path style="fill:#59595C;" d="M111.362,63.967l12.766-17.589c0.428-0.612,0.521-1.295,0.288-2.056
		c-0.195-0.705-0.812-1.179-1.564-1.418L102,36.094V14.402c0-0.756-0.166-1.373-0.777-1.846c-0.707-0.473-1.324-0.566-1.984-0.283
		l-20.671,6.666L65.828,1.354C65.402,0.787,64.798,0.5,63.991,0.5c-0.807,0-1.415,0.287-1.842,0.854L49.394,18.939l-20.706-6.666
		c-0.667-0.284-1.204-0.19-1.91,0.283C26.158,13.029,26,13.646,26,14.402v21.692L5.148,42.903c-0.752,0.24-1.297,0.713-1.491,1.418
		c-0.233,0.761-0.175,1.443,0.251,2.056l12.747,17.589L3.881,81.549c-0.426,0.566-0.524,1.256-0.292,2.056
		c0.194,0.713,0.81,1.186,1.562,1.418L26,91.833v21.691c0,0.761,0.159,1.373,0.779,1.846c0.706,0.473,1.316,0.566,1.982,0.287
		l20.671-6.67l12.739,17.59c0.474,0.612,1.077,0.923,1.837,0.923c0.753,0,1.369-0.311,1.842-0.923l12.755-17.59l20.706,6.67
		c0.66,0.279,1.205,0.186,1.911-0.287c0.612-0.473,0.777-1.085,0.777-1.846V91.833l20.852-6.811
		c0.752-0.232,1.297-0.705,1.492-1.418c0.232-0.8,0.176-1.489-0.252-2.056L111.362,63.967z M101.615,79.812
		c-2.149,5.033-5.058,9.384-8.718,13.045c-3.668,3.668-8.011,6.577-13.054,8.725c-5.032,2.149-10.314,3.227-15.844,3.227
		c-5.53,0-10.812-1.077-15.845-3.227c-5.041-2.147-9.384-5.057-13.052-8.725c-3.66-3.661-6.569-8.012-8.717-13.045
		c-2.156-5.033-3.226-10.314-3.226-15.845c0-5.537,1.07-10.818,3.226-15.852c2.148-5.034,5.057-9.385,8.717-13.045
		c3.668-3.66,8.011-6.569,13.052-8.725C53.188,24.197,58.47,23.119,64,23.119c5.529,0,10.812,1.078,15.844,3.226
		c5.043,2.156,9.386,5.065,13.054,8.725c3.66,3.661,6.568,8.012,8.718,13.045c2.155,5.033,3.226,10.314,3.226,15.852
		C104.841,69.497,103.771,74.778,101.615,79.812z"/>
</g>
<g id="Layer_1">
</g>
</svg>
