<?xml version="1.0" encoding="iso-8859-1"?>
<!-- Generator: Adobe Illustrator 16.0.0, SVG Export Plug-In . SVG Version: 6.00 Build 0)  -->
<!DOCTYPE svg PUBLIC "-//W3C//DTD SVG 1.1//EN" "http://www.w3.org/Graphics/SVG/1.1/DTD/svg11.dtd">
<svg version="1.1" xmlns="http://www.w3.org/2000/svg" xmlns:xlink="http://www.w3.org/1999/xlink" x="0px" y="0px" width="128px"
	 height="128px" viewBox="0 0 128 128" style="enable-background:new 0 0 128 128;" xml:space="preserve">
<g id="_x33_2-spring">
	<path style="fill:#59595C;" d="M126.287,69.392c-0.883-1.896-2.044-3.242-3.508-4.081c-0.786-0.485-2.426-1.418-4.896-2.838
		c2.75-2.066,4.478-4.551,5.206-7.478c0.64-2.5,0.396-4.912-0.706-7.257c-0.971-2.029-0.633-6.772,1-14.213
		c1.676-7.581,1.515-14.191-0.493-19.831l-1.367-0.493l-9.831,4.655c-10.118,6.86-16.471,11.544-19.029,13.985
		C86.081,38.105,80.059,46.921,74.64,58.26l-1.162,0.272c-0.36,0.066-1,0.309-1.184-0.14c-0.037-0.147-0.022-1.03-0.412-1.846
		c-0.302-12.125,3.604-23.471,4.883-26.875c0.316,0.493,0.838,0.809,1.448,0.662c0.743-0.169,1.198-0.927,1.008-1.684
		c-0.177-0.75-0.941-1.213-1.691-1.044c-0.427,0.118-0.721,0.441-0.897,0.838c-0.279,0.677-5.478,13.354-5.323,27.294
		c-0.397-0.375-0.956-0.662-1.779-0.713c-0.89-0.066-1.324,0.485-1.559,1.213c-7-8.529-14.971-13.941-15.765-14.493
		c-0.368-0.221-0.765-0.331-1.206-0.176c-0.735,0.272-1.103,1.073-0.838,1.794c0.257,0.721,1.074,1.103,1.809,0.846
		c0.566-0.228,0.823-0.779,0.801-1.368c2.471,1.757,9.147,6.846,15.037,14.103c-0.162,1.103-0.029,2.272-0.147,2.331
		c0,0-1.867-0.456-2.448-0.559c-1.522-0.243-2.919-0.993-4.61-2.551c-2.397-2.302-5.397-4.088-8.971-5.353
		c-1.61-0.596-3.838-1.346-6.662-2.287c-4.309-1.426-7.919-2.485-10.831-3.213c-8.177-1.757-13.28-2.735-15.272-2.949
		c-6.985-0.618-15.779-2.39-18.559,2.882c-0.853,1.677,0.235,5.838,1.221,7.456c0.478,0.75,1.765,1.978,2.382,2.61
		c1.64,1.669,2.427,3.154,3.059,3.993c0.919,1.279,2.338,2.096,3.551,3.044c0.169,0.11,2.309,2.706,6.625,7.61
		c2.53,2.897,4.162,5.191,4.949,6.831c2.427,5.162,6.625,7.565,12.581,7.242c-0.301,1.177-0.801,2.339-1.537,3.434
		c-1.882,2.839-2.515,2.5-2.882,4.501c-0.346,1.948-0.28,3.779-0.088,6.794c0.132,1.934,3.331,7.021,3.331,7.021
		c1.772,3.75,6.463,6.405,14.081,7.941c7,1.471,12.133,1.435,15.405-0.103c1.721-0.831,3-2.522,3.875-5.125
		c1.117-3.309,2.154-5.56,3.117-6.779c1.735-2.147,3.081-4.235,4.059-6.214c1.243-2.404,2-4.771,2.243-7.081
		c0.5,0.044,0.985,0.066,1.456,0.029c0.632,0.758,1.221,1.581,1.735,2.479l2.485,3.419c-0.045-0.272,0.132-0.742,0.485-1.397
		c0.323-0.713,0.426-1.286,0.323-1.72c-0.029-0.456-0.229-1.28-0.573-2.441c-0.816-1.897-1.25-3.133-1.316-3.685
		c-0.066-0.544,0.015-1.059,0.265-1.551c0.213-0.588,0.375-1.133,0.492-1.662c4.008,4.206,6.941,7.088,8.81,8.581
		c3.286,2.735,6.721,4.75,10.286,6.008c2.522,0.934,5.633,1.117,9.295,0.617c3.64-0.566,7.5-1.802,11.573-3.721
		c3.265-1.552,5.302-5.228,6.096-11.051C128.383,77.142,127.912,72.811,126.287,69.392z"/>
</g>
<g id="Layer_1">
</g>
</svg>
