<?xml version="1.0" encoding="iso-8859-1"?>
<!-- Generator: Adobe Illustrator 16.0.0, SVG Export Plug-In . SVG Version: 6.00 Build 0)  -->
<!DOCTYPE svg PUBLIC "-//W3C//DTD SVG 1.1//EN" "http://www.w3.org/Graphics/SVG/1.1/DTD/svg11.dtd">
<svg version="1.1" xmlns="http://www.w3.org/2000/svg" xmlns:xlink="http://www.w3.org/1999/xlink" x="0px" y="0px" width="128px"
	 height="128px" viewBox="0 0 128 128" style="enable-background:new 0 0 128 128;" xml:space="preserve">
<g id="_x33_3-autumn">
	<path style="fill:#59595C;" d="M127.43,33.855c-0.383-2.758-0.953-5.711-1.719-8.859c-0.758-3.141-1.891-5.805-3.391-7.996
		s-3.18-3.285-5.031-3.285c-1.148,0-2.18,0.105-3.109,0.32s-1.797,0.598-2.609,1.145s-1.453,1.023-1.93,1.426
		c-0.477,0.406-1.18,1.074-2.102,2c-0.93,0.93-1.633,1.633-2.109,2.109c-1.859,1.758-4.562,3.109-8.109,4.031
		c-3.547,0.93-7.438,1.5-11.68,1.719c-4.234,0.211-8.484,0.359-12.75,0.43c-4.258,0.07-8.531,0.281-12.82,0.641
		c-4.281,0.359-7.734,0.961-10.359,1.82c-5.188,1.719-10.047,3.992-14.57,6.82c-4.523,2.836-8.578,6.148-12.18,9.93
		c-3.594,3.789-6.422,8.18-8.5,13.18c-2.07,5-3.102,10.242-3.102,15.711c0,2.531,0.211,5,0.641,7.43
		c0.094,0.477,0.477,1.523,1.141,3.148c0.672,1.617,1,2.523,1,2.711c0,0.906-0.734,2.047-2.211,3.43s-3.094,2.711-4.859,4
		c-1.758,1.281-3.383,2.844-4.859,4.68C0.734,102.223,0,103.973,0,105.645c0,0.328,0.039,0.656,0.109,0.961
		c0.07,0.312,0.141,0.539,0.211,0.68s0.203,0.383,0.391,0.711c0.195,0.336,0.336,0.602,0.43,0.789c0.812,1.383,1.453,2.383,1.93,3
		s1.219,1.188,2.219,1.711c1,0.531,2.211,0.789,3.641,0.789c1.383,0,2.805-0.758,4.281-2.289c1.477-1.523,2.727-3.188,3.75-5
		c1.023-1.805,2.102-3.469,3.219-5c1.117-1.523,2.055-2.281,2.82-2.281c1.094,0,3.383,0.883,6.859,2.641
		c3.477,1.766,5.57,2.766,6.281,3c6.57,2.242,13.383,3.359,20.43,3.359c10.664,0,21.094-2.57,31.289-7.719
		c10.43-5.188,18.938-11.57,25.531-19.141s10.992-16.688,13.18-27.359c0.953-4.664,1.43-9.258,1.43-13.781
		C128,38.902,127.812,36.621,127.43,33.855z M90.07,58.074c-0.906,0.898-1.977,1.352-3.211,1.352
		c-8.672,0-16.133,1.242-22.398,3.719c-6.258,2.477-12.648,6.664-19.172,12.57c-0.953,0.906-2.555,2.477-4.789,4.711
		c-2.242,2.242-4,3.93-5.289,5.07c-1,0.906-2.07,1.359-3.211,1.359c-1.242,0-2.312-0.453-3.211-1.359
		c-0.906-0.898-1.359-1.969-1.359-3.211c0-1.141,0.453-2.211,1.359-3.211c5.805-6.43,11.414-11.656,16.82-15.68
		c5.398-4.023,11.578-7.219,18.531-9.57c6.953-2.359,14.523-3.539,22.719-3.539c1.234,0,2.305,0.453,3.211,1.359
		s1.359,1.977,1.359,3.211C91.43,56.098,90.977,57.168,90.07,58.074z"/>
</g>
<g id="Layer_1">
</g>
</svg>
