<?xml version="1.0" encoding="iso-8859-1"?>
<!-- Generator: Adobe Illustrator 16.0.0, SVG Export Plug-In . SVG Version: 6.00 Build 0)  -->
<!DOCTYPE svg PUBLIC "-//W3C//DTD SVG 1.1//EN" "http://www.w3.org/Graphics/SVG/1.1/DTD/svg11.dtd">
<svg version="1.1" xmlns="http://www.w3.org/2000/svg" xmlns:xlink="http://www.w3.org/1999/xlink" x="0px" y="0px" width="128px"
	 height="128px" viewBox="0 0 128 128" style="enable-background:new 0 0 128 128;" xml:space="preserve">
<g id="_x33_4-winter">
	<path style="fill:#59595C;" d="M47.523,29.67c4.459-3.749,10.208-6.015,16.478-6.015c6.271,0,12.016,2.266,16.475,6.015
		c3.933-1.373,6.441-3.227,6.441-5.269c0-2.472-3.917-4.663-8.917-6.051V4.625C78,2.823,76.374,1,74.574,1H53.428
		C51.626,1,50,2.823,50,4.625v13.726c-5,1.388-8.914,3.579-8.914,6.051C41.086,26.444,43.594,28.298,47.523,29.67z M76.542,30.771
		c-3.575-2.428-7.892-3.851-12.541-3.851c-4.649,0-8.964,1.422-12.543,3.851c-5.938,4.018-9.842,10.825-9.842,18.533
		c0,7.037,3.243,13.3,8.314,17.404c3.845,3.113,8.737,4.986,14.07,4.986c5.332,0,10.221-1.873,14.067-4.986
		c5.076-4.104,8.318-10.368,8.318-17.404C86.387,41.596,82.484,34.79,76.542,30.771z M54.506,48.163
		c-2.455,0-4.439-1.985-4.439-4.441c0-2.451,1.984-4.443,4.439-4.443c2.454,0,4.445,1.992,4.445,4.443
		C58.952,46.177,56.96,48.163,54.506,48.163z M73.493,48.163c-2.453,0-4.438-1.985-4.438-4.441c0-2.451,1.985-4.443,4.438-4.443
		c2.456,0,4.441,1.992,4.441,4.443C77.935,46.177,75.949,48.163,73.493,48.163z M119.567,90.434l-12.404-5.32l12.47-5.857
		c1.088-0.511,1.556-1.802,1.045-2.894c-0.509-1.088-1.811-1.556-2.895-1.045l-5.395,2.53l2.401-5.248
		c0.497-1.095,0.02-2.384-1.072-2.888c-1.092-0.5-2.39-0.016-2.89,1.078l-4.441,9.71c-0.029,0.065-0.043,0.129-0.065,0.194
		L94.39,86.289c-2.138-7.446-6.936-13.767-13.308-17.866c-4.54,4.062-10.523,6.537-17.081,6.537s-12.543-2.476-17.083-6.537
		c-6.368,4.1-11.168,10.42-13.306,17.866l-11.932-5.595c-0.024-0.065-0.038-0.129-0.066-0.194l-4.445-9.71
		c-0.497-1.094-1.785-1.578-2.883-1.078c-1.092,0.504-1.575,1.793-1.077,2.888l2.406,5.248l-5.396-2.53
		c-1.091-0.511-2.387-0.043-2.896,1.045c-0.511,1.092-0.043,2.383,1.044,2.894l12.474,5.857l-12.405,5.32
		c-1.106,0.477-1.618,1.759-1.145,2.862c0.355,0.825,1.159,1.316,2.003,1.316c0.286,0,0.577-0.057,0.858-0.175l15.962-6.851
		l6.571,3.079c-0.198,1.43-0.304,2.884-0.304,4.357c0,17.473,14.153,31.616,31.621,31.616c17.463,0,31.62-14.144,31.62-31.616
		c0-1.474-0.105-2.928-0.305-4.357l6.571-3.079l15.964,6.851c0.282,0.118,0.572,0.175,0.859,0.175c0.844,0,1.646-0.491,2.001-1.316
		C121.18,92.192,120.674,90.91,119.567,90.434z M64.001,117.825c-2.625,0-4.751-2.123-4.751-4.753c0-2.623,2.125-4.746,4.751-4.746
		c2.625,0,4.753,2.123,4.753,4.746C68.754,115.702,66.626,117.825,64.001,117.825z M64.001,104.682
		c-2.625,0-4.751-2.124-4.751-4.742c0-2.623,2.125-4.753,4.751-4.753c2.625,0,4.753,2.13,4.753,4.753
		C68.754,102.558,66.626,104.682,64.001,104.682z M64.001,91.354c-2.625,0-4.751-2.132-4.751-4.751c0-2.627,2.125-4.753,4.751-4.753
		c2.625,0,4.753,2.126,4.753,4.753C68.754,89.222,66.626,91.354,64.001,91.354z"/>
</g>
<g id="Layer_1">
</g>
</svg>
