<?xml version="1.0" encoding="iso-8859-1"?>
<!-- Generator: Adobe Illustrator 16.0.0, SVG Export Plug-In . SVG Version: 6.00 Build 0)  -->
<!DOCTYPE svg PUBLIC "-//W3C//DTD SVG 1.1//EN" "http://www.w3.org/Graphics/SVG/1.1/DTD/svg11.dtd">
<svg version="1.1" xmlns="http://www.w3.org/2000/svg" xmlns:xlink="http://www.w3.org/1999/xlink" x="0px" y="0px" width="128px"
	 height="128px" viewBox="0 0 128 128" style="enable-background:new 0 0 128 128;" xml:space="preserve">
<g id="_x33_5-reservations">
	<path style="fill:#59595C;" d="M122,52.4V29.2c0-6.438-5.223-11.601-11.601-11.601H17.6c-6.378,0-11.544,5.163-11.544,11.601v23.2
		c6.377,0,11.544,5.22,11.544,11.601c0,6.377-5.167,11.6-11.6,11.6V98.8c0,6.378,5.222,11.601,11.6,11.601h92.799
		c6.378,0,11.601-5.223,11.601-11.601V75.601c-6.378,0-11.601-5.223-11.601-11.6C110.399,57.62,115.622,52.4,122,52.4z M69.8,95.899
		H58.2V84.301h11.6V95.899z M69.8,69.8H58.2V58.2h11.6V69.8z M69.8,43.699H58.2V32.1h11.6V43.699z"/>
</g>
<g id="Layer_1">
</g>
</svg>
