<?xml version="1.0" encoding="iso-8859-1"?>
<!-- Generator: Adobe Illustrator 16.0.0, SVG Export Plug-In . SVG Version: 6.00 Build 0)  -->
<!DOCTYPE svg PUBLIC "-//W3C//DTD SVG 1.1//EN" "http://www.w3.org/Graphics/SVG/1.1/DTD/svg11.dtd">
<svg version="1.1" xmlns="http://www.w3.org/2000/svg" xmlns:xlink="http://www.w3.org/1999/xlink" x="0px" y="0px" width="128px"
	 height="128px" viewBox="0 0 128 128" style="enable-background:new 0 0 128 128;" xml:space="preserve">
<g id="_x33_6-label">
	<path style="fill:#59595C;" d="M120.442,61.478L66.438,7.487C64.246,5.327,61.24,4,57.927,4H15.893C9.268,4,4,9.317,4,15.952
		v42.042c0,3.329,1.293,6.334,3.487,8.495l54.025,54.044c2.159,2.168,5.149,3.516,8.447,3.516s6.328-1.348,8.49-3.516l42.029-42.034
		c2.159-2.192,3.521-5.197,3.521-8.494C124,66.667,122.635,63.662,120.442,61.478z M27.426,37.523
		c-5.552,0-10.033-4.486-10.033-10.039c0-5.546,4.48-10.032,10.033-10.032c5.553,0,10.031,4.485,10.031,10.032
		C37.457,33.037,32.979,37.523,27.426,37.523z"/>
</g>
<g id="Layer_1">
</g>
</svg>
