<?xml version="1.0" encoding="iso-8859-1"?>
<!-- Generator: Adobe Illustrator 16.0.0, SVG Export Plug-In . SVG Version: 6.00 Build 0)  -->
<!DOCTYPE svg PUBLIC "-//W3C//DTD SVG 1.1//EN" "http://www.w3.org/Graphics/SVG/1.1/DTD/svg11.dtd">
<svg version="1.1" xmlns="http://www.w3.org/2000/svg" xmlns:xlink="http://www.w3.org/1999/xlink" x="0px" y="0px" width="128px"
	 height="128px" viewBox="0 0 128 128" style="enable-background:new 0 0 128 128;" xml:space="preserve">
<g id="_x33_7-cup">
	<path style="fill:#59595C;" d="M36.362,84h43.433c3.783,0,7.228-1.464,9.942-4.177C92.45,77.108,94,73.754,94,69.969V68h3.562
		c6.539,0,12.123-2.315,16.75-6.943c4.627-4.627,6.939-10.211,6.939-16.75c0-6.54-2.312-11.931-6.939-16.558S104.102,21,97.562,21
		H26.491c-1.07,0-1.767,0.198-2.548,0.979C23.161,22.761,23,23.494,23,24.562v45.406c0,3.785,1.129,7.14,3.843,9.854
		C29.558,82.536,32.577,84,36.362,84z M94,33h3.562c3.291,0,6.086,0.882,8.391,3.185c2.305,2.304,3.455,4.965,3.455,8.255
		c0,3.291-1.15,5.945-3.455,8.248c-2.305,2.304-5.1,3.312-8.391,3.312H94V33z M11.375,103.27c3.085,3.086,6.807,4.73,11.167,4.73
		h78.97c4.357,0,8.082-1.646,11.166-4.73S117.305,96,117.305,92H6.748C6.748,96,8.291,100.186,11.375,103.27z"/>
</g>
<g id="Layer_1">
</g>
</svg>
