<?xml version="1.0" encoding="iso-8859-1"?>
<!-- Generator: Adobe Illustrator 16.0.0, SVG Export Plug-In . SVG Version: 6.00 Build 0)  -->
<!DOCTYPE svg PUBLIC "-//W3C//DTD SVG 1.1//EN" "http://www.w3.org/Graphics/SVG/1.1/DTD/svg11.dtd">
<svg version="1.1" xmlns="http://www.w3.org/2000/svg" xmlns:xlink="http://www.w3.org/1999/xlink" x="0px" y="0px" width="128px"
	 height="128px" viewBox="0 0 128 128" style="enable-background:new 0 0 128 128;" xml:space="preserve">
<g id="_x34_0-van">
	<path style="fill:#59595C;" d="M64,3C35.619,3,13,6.211,13,28.685v64.21c0,5.649,2,10.723,6,14.254v11.431
		c0,3.53,2.943,6.421,6.474,6.421h6.421c3.531,0,6.105-2.891,6.105-6.421V112h52v6.579c0,3.53,2.575,6.421,6.105,6.421h6.421
		c3.53,0,6.474-2.891,6.474-6.421v-11.431c4-3.531,6-8.604,6-14.254v-64.21C115,6.211,92.381,3,64,3z M35.105,99.315
		c-5.33,0-9.632-4.302-9.632-9.631c0-5.33,4.302-9.632,9.632-9.632s9.632,4.302,9.632,9.632
		C44.737,95.014,40.436,99.315,35.105,99.315z M92.895,99.315c-5.329,0-9.632-4.302-9.632-9.631c0-5.33,4.303-9.632,9.632-9.632
		c5.33,0,9.632,4.302,9.632,9.632C102.526,95.014,98.225,99.315,92.895,99.315z M103,61H25V29h78V61z"/>
</g>
<g id="Layer_1">
</g>
</svg>
