<?xml version="1.0" encoding="iso-8859-1"?>
<!-- Generator: Adobe Illustrator 16.0.0, SVG Export Plug-In . SVG Version: 6.00 Build 0)  -->
<!DOCTYPE svg PUBLIC "-//W3C//DTD SVG 1.1//EN" "http://www.w3.org/Graphics/SVG/1.1/DTD/svg11.dtd">
<svg version="1.1" xmlns="http://www.w3.org/2000/svg" xmlns:xlink="http://www.w3.org/1999/xlink" x="0px" y="0px" width="128px"
	 height="128px" viewBox="0 0 128 128" style="enable-background:new 0 0 128 128;" xml:space="preserve">
<g id="_x34_1-card">
	<path style="fill:#59595C;" d="M121.564,20H6.435C3.816,20,2,21.984,2,24.604V40h124V24.604C126,21.984,124.184,20,121.564,20z
		 M2,103.372C2,106.006,3.827,108,6.458,108h114.938c2.632,0,4.604-1.994,4.604-4.628V55H2V103.372z M45.138,87h43.744
		c1.31,0,2.372,1.999,2.372,3.997c0,2.008-1.062,4.003-2.372,4.003H45.138c-1.309,0-2.372-1.995-2.372-4.003
		C42.767,88.999,43.829,87,45.138,87z M11.935,87h18.446c1.31,0,2.372,1.961,2.372,3.998c0,2.041-1.062,4.002-2.372,4.002H11.935
		c-1.309,0-2.372-1.961-2.372-4.002C9.563,88.961,10.626,87,11.935,87z"/>
</g>
<g id="Layer_1">
</g>
</svg>
