<?xml version="1.0" encoding="iso-8859-1"?>
<!-- Generator: Adobe Illustrator 16.0.0, SVG Export Plug-In . SVG Version: 6.00 Build 0)  -->
<!DOCTYPE svg PUBLIC "-//W3C//DTD SVG 1.1//EN" "http://www.w3.org/Graphics/SVG/1.1/DTD/svg11.dtd">
<svg version="1.1" xmlns="http://www.w3.org/2000/svg" xmlns:xlink="http://www.w3.org/1999/xlink" x="0px" y="0px" width="128px"
	 height="128px" viewBox="0 0 128 128" style="enable-background:new 0 0 128 128;" xml:space="preserve">
<g id="_x34_4-moon">
	<path style="fill:#59595C;" d="M78.979,8.831c-16.215-5.397-29.766-1.917-37.278,1.299c-16.503,6.92-29.635,19.698-35.253,36.685
		c-10.18,30.781,6.564,64.183,37.434,74.362c13.947,4.582,29.083,3.769,42.566-2.314c2.998-1.301,4.981-2.598,9.232-5.553
		c15.731-11.477,19.434-24.081,21.153-29.41C127.144,52.764,110.112,19.097,78.979,8.831z M47.521,106.344
		c-12.025-5.543-20.417-16.565-23.811-27.952c-4.572-11.51-4.504-24.813,1.317-36.707c5.844-11.944,15.784-20.458,27.598-23.593
		c3.23-0.857,6.488-1.415,7.211,0.139c1.171,3.034-4.811,9.54-7.032,15.08c-6.536,16.3-2.111,29.178,0.658,36.194
		c3.421,8.666,10.488,17.622,20.665,25.017C78,97.334,89.167,99.5,89.364,103.108C89.834,108,68.834,116.167,47.521,106.344z"/>
</g>
<g id="Layer_1">
</g>
</svg>
