<?xml version="1.0" encoding="iso-8859-1"?>
<!-- Generator: Adobe Illustrator 16.0.0, SVG Export Plug-In . SVG Version: 6.00 Build 0)  -->
<!DOCTYPE svg PUBLIC "-//W3C//DTD SVG 1.1//EN" "http://www.w3.org/Graphics/SVG/1.1/DTD/svg11.dtd">
<svg version="1.1" xmlns="http://www.w3.org/2000/svg" xmlns:xlink="http://www.w3.org/1999/xlink" x="0px" y="0px" width="128px"
	 height="128px" viewBox="0 0 128 128" style="enable-background:new 0 0 128 128;" xml:space="preserve">
<g id="_x34_5-dawn">
	<path style="fill:#59595C;" d="M28.077,69.231L33.104,72h11.93c4.013-6,10.971-10.378,18.911-10.378S78.844,66,82.852,72H95.07
		l6.603-2.769c1.959-1.129,2.633-3.571,1.499-5.531c-1.129-1.954-3.629-2.594-5.593-1.465l-5.934,3.441
		c-1.755-2.581-3.86-4.892-6.247-6.893l4.075-7.054c1.134-1.954,0.46-4.461-1.499-5.59c-1.954-1.133-4.459-0.459-5.593,1.5
		l-3.996,6.712C75.208,52.806,72,51.748,68,51.279v-8.154c0-2.263-1.739-4.098-4.002-4.098c-2.258,0-3.998,1.835-3.998,4.098v8.092
		c-3,0.37-6.164,1.162-8.996,2.353l-3.411-5.934c-1.129-1.954-3.632-2.627-5.586-1.499c-1.959,1.133-2.629,3.638-1.496,5.592
		l3.436,5.943c-2.737,2.049-5.151,4.497-7.143,7.276l-4.633-2.675c-1.959-1.134-4.458-0.527-5.592,1.427
		C25.444,65.66,26.118,68.097,28.077,69.231z M122.234,81H5.765c-2.263,0-4.098,1.736-4.098,3.998C1.667,87.266,3.502,89,5.765,89
		h116.47c2.263,0,4.099-1.734,4.099-4.002C126.333,82.736,124.497,81,122.234,81z"/>
</g>
<g id="Layer_1">
</g>
</svg>
