<?xml version="1.0" encoding="iso-8859-1"?>
<!-- Generator: Adobe Illustrator 16.0.0, SVG Export Plug-In . SVG Version: 6.00 Build 0)  -->
<!DOCTYPE svg PUBLIC "-//W3C//DTD SVG 1.1//EN" "http://www.w3.org/Graphics/SVG/1.1/DTD/svg11.dtd">
<svg version="1.1" xmlns="http://www.w3.org/2000/svg" xmlns:xlink="http://www.w3.org/1999/xlink" x="0px" y="0px" width="128px"
	 height="128px" viewBox="0 0 128 128" style="enable-background:new 0 0 128 128;" xml:space="preserve">
<g id="_x34_6-morning">
	<path style="fill:#59595C;" d="M85.519,47.727c0.622,0.361,1.3,0.53,1.972,0.53c1.363,0,2.689-0.709,3.421-1.976l5.266-9.116
		c1.093-1.885,0.443-4.304-1.446-5.393c-1.884-1.093-4.299-0.443-5.392,1.446l-5.265,9.116
		C82.984,44.223,83.63,46.638,85.519,47.727z M103.88,65.117c0.668,0,1.349-0.168,1.972-0.53l9.116-5.261
		c1.889-1.088,2.539-3.508,1.445-5.397c-1.089-1.885-3.499-2.535-5.393-1.446l-9.121,5.265c-1.89,1.088-2.535,3.503-1.445,5.393
		C101.186,64.409,102.512,65.117,103.88,65.117z M64.998,41.845c2.182,0,4.002-1.766,4.002-3.948v-10.53
		c0-2.182-1.82-3.952-4.002-3.952c-2.177,0-3.998,1.77-3.998,3.952v10.53C61,40.079,62.821,41.845,64.998,41.845z M105.687,84.003
		c0,2.176,1.766,3.997,3.947,3.997h10.525c2.182,0,3.952-1.821,3.952-3.997c0-2.183-1.771-4.003-3.952-4.003h-10.525
		C107.452,80,105.687,81.82,105.687,84.003z M14.134,58.188l9.117,5.265c0.622,0.356,1.304,0.526,1.971,0.526
		c1.368,0,2.694-0.704,3.422-1.972c1.094-1.889,0.443-4.304-1.44-5.393l-9.121-5.265c-1.89-1.093-4.3-0.444-5.393,1.441
		C11.596,54.68,12.245,57.095,14.134,58.188z M8.284,87h10.529c2.182,0,3.952-1.818,3.952-4.001c0-2.182-1.771-3.999-3.952-3.999
		H8.284c-2.182,0-3.947,1.817-3.947,3.999C4.337,85.182,6.103,87,8.284,87z M120.159,97H7.84c-2.182,0-3.951,1.816-3.951,3.996
		c0,2.188,1.77,4.004,3.951,4.004h112.319c2.182,0,3.952-1.816,3.952-4.004C124.111,98.816,122.341,97,120.159,97z M42.893,87
		c-0.247-1-0.389-2.477-0.389-3.846c0-11.975,9.748-21.64,21.722-21.64c11.976,0,21.719,9.627,21.719,21.602
		c0,1.368-0.143,2.884-0.389,3.884h10.644c0.16-1,0.275-2.486,0.275-3.846c0-17.783-14.469-32.17-32.249-32.17
		c-17.784,0-32.252,14.349-32.252,32.132c0,1.359,0.114,2.884,0.274,3.884H42.893z M38.67,45.623
		c0.732,1.272,2.059,1.977,3.423,1.977c0.672,0,1.348-0.169,1.971-0.531c1.889-1.089,2.533-3.504,1.445-5.393l-5.265-9.116
		c-1.09-1.885-3.509-2.534-5.394-1.446c-1.889,1.093-2.538,3.509-1.445,5.393L38.67,45.623z"/>
</g>
<g id="Layer_1">
</g>
</svg>
