<?xml version="1.0" encoding="iso-8859-1"?>
<!-- Generator: Adobe Illustrator 16.0.0, SVG Export Plug-In . SVG Version: 6.00 Build 0)  -->
<!DOCTYPE svg PUBLIC "-//W3C//DTD SVG 1.1//EN" "http://www.w3.org/Graphics/SVG/1.1/DTD/svg11.dtd">
<svg version="1.1" xmlns="http://www.w3.org/2000/svg" xmlns:xlink="http://www.w3.org/1999/xlink" x="0px" y="0px" width="128px"
	 height="128px" viewBox="0 0 128 128" style="enable-background:new 0 0 128 128;" xml:space="preserve">
<g id="_x34_7-sun">
	<path style="fill:#59595C;" d="M104.135,45.591c0.678,0,1.367-0.174,2-0.539l9.225-5.329c1.912-1.106,2.568-3.547,1.463-5.457
		c-1.096-1.911-3.541-2.569-5.457-1.462l-9.232,5.329c-1.908,1.097-2.568,3.546-1.461,5.457
		C101.412,44.869,102.756,45.591,104.135,45.591z M21.863,82.947l-9.232,5.33c-1.911,1.096-2.569,3.545-1.463,5.457
		c0.74,1.279,2.084,2.002,3.464,2.002c0.681,0,1.371-0.174,1.997-0.541l9.228-5.328c1.911-1.105,2.568-3.545,1.462-5.457
		C26.218,82.5,23.773,81.842,21.863,82.947z M26.524,36.981l-9.231-5.329c-1.911-1.106-4.351-0.457-5.458,1.462
		c-1.106,1.911-0.448,4.351,1.463,5.457l9.231,5.329c0.626,0.366,1.316,0.54,1.993,0.54c1.38,0,2.724-0.723,3.465-2.002
		C29.092,40.527,28.435,38.087,26.524,36.981z M38.133,25.857c0.74,1.28,2.084,2.001,3.464,2.001c0.676,0,1.366-0.173,1.993-0.54
		c1.915-1.105,2.569-3.546,1.463-5.456l-5.329-9.232c-1.097-1.911-3.547-2.569-5.457-1.463c-1.911,1.106-2.569,3.546-1.462,5.457
		L38.133,25.857z M65.002,22.027c2.204,0,3.998-1.782,3.998-3.994V7.375c0-2.203-1.794-3.994-3.998-3.994
		C62.79,3.38,61,5.172,61,7.375v10.658C61,20.245,62.79,22.027,65.002,22.027z M22.032,62.995c0-2.203-1.787-3.995-3.999-3.995
		H7.375c-2.207,0-3.994,1.792-3.994,3.995C3.38,65.207,5.168,67,7.375,67h10.658C20.245,67,22.032,65.207,22.032,62.995z
		 M62.999,105.965c-2.203,0-3.999,1.791-3.999,4.004v10.656c0,2.203,1.796,3.994,3.999,3.994c2.212,0,4.001-1.791,4.001-3.994
		v-10.656C67,107.756,65.211,105.965,62.999,105.965z M114.703,89.418l-9.232-5.318c-1.912-1.105-4.355-0.447-5.457,1.461
		c-1.107,1.912-0.449,4.354,1.463,5.459l9.23,5.328c0.627,0.357,1.318,0.531,1.994,0.531c1.379,0,2.723-0.713,3.463-1.992
		C117.271,92.967,116.611,90.525,114.703,89.418z M120.617,61h-10.654c-2.207,0-3.998,1.793-3.998,3.994
		c0,2.214,1.791,4.006,3.998,4.006h10.654c2.211,0,4.002-1.792,4.002-4.006C124.619,62.793,122.828,61,120.617,61z M94.877,11.835
		c-1.91-1.106-4.352-0.448-5.457,1.463l-5.33,9.231c-1.105,1.911-0.447,4.351,1.463,5.458c0.631,0.365,1.316,0.539,1.994,0.539
		c1.385,0,2.725-0.722,3.463-2.002l5.328-9.231C97.445,15.382,96.795,12.941,94.877,11.835z M42.438,100.014
		c-1.911-1.107-4.355-0.449-5.457,1.463l-5.329,9.23c-1.106,1.91-0.448,4.352,1.462,5.457c0.631,0.367,1.317,0.539,1.993,0.539
		c1.384,0,2.728-0.721,3.469-2l5.324-9.232C45.006,103.559,44.348,101.119,42.438,100.014z M89.867,102.143
		c-1.105-1.91-3.545-2.568-5.457-1.463c-1.914,1.098-2.568,3.547-1.463,5.459l5.33,9.221c0.74,1.289,2.084,2.002,3.465,2.002
		c0.676,0,1.361-0.174,1.992-0.539c1.91-1.096,2.568-3.545,1.461-5.457L89.867,102.143z M64,31.359
		c-17.998,0-32.641,14.643-32.641,32.64c0,17.999,14.643,32.641,32.641,32.641c17.998,0,32.64-14.643,32.64-32.641
		C96.641,46.002,81.998,31.359,64,31.359z M64,85.982c-12.121,0-21.983-9.863-21.983-21.983c0-12.12,9.863-21.982,21.983-21.982
		c12.119,0,21.982,9.862,21.982,21.982C85.982,76.119,76.119,85.982,64,85.982z"/>
</g>
<g id="Layer_1">
</g>
</svg>
