<?xml version="1.0" encoding="iso-8859-1"?>
<!-- Generator: Adobe Illustrator 16.0.0, SVG Export Plug-In . SVG Version: 6.00 Build 0)  -->
<!DOCTYPE svg PUBLIC "-//W3C//DTD SVG 1.1//EN" "http://www.w3.org/Graphics/SVG/1.1/DTD/svg11.dtd">
<svg version="1.1" xmlns="http://www.w3.org/2000/svg" xmlns:xlink="http://www.w3.org/1999/xlink" x="0px" y="0px" width="128px"
	 height="128px" viewBox="0 0 128 128" style="enable-background:new 0 0 128 128;" xml:space="preserve">
<g id="_x34_8-night">
	<path style="fill:#59595C;" d="M55.612,53.347c2.36-0.366,4.727-0.729,7.092-1.096c0.041,0.045,0.041,0.041,0.094,0.095
		c0.725,0.766,1.454,1.536,2.179,2.3c0.95,1.005,1.9,2.011,2.847,3.012c0.834,0.882,2.699,0.542,2.908-0.766
		c0.403-2.486,0.806-4.971,1.198-7.462c0.083-0.041,0.092-0.054,0.205-0.108c0.955-0.453,1.911-0.905,2.861-1.358
		c1.25-0.593,2.499-1.187,3.748-1.779c1.16-0.552,1.104-2.436,0-3.006c-2.217-1.137-4.437-2.278-6.665-3.414
		c-0.13-0.992-0.262-1.988-0.389-2.979c-0.181-1.372-0.357-2.743-0.539-4.116c0-0.005-0.004-0.009-0.004-0.013
		c-0.055-1.114-1.313-2.074-2.437-1.562c-0.398,0.104-0.728,0.349-0.904,0.729c-1.621,1.607-3.237,3.219-4.855,4.831
		c-1.013-0.19-2.023-0.381-3.032-0.57c-1.358-0.258-2.722-0.512-4.081-0.766c-1.517-0.285-2.681,1.137-1.96,2.554
		c1.096,2.164,2.191,4.324,3.288,6.488c-0.01,0.009-0.004,0.005-0.01,0.014c-0.506,0.929-1.013,1.856-1.521,2.781
		c-0.661,1.213-1.322,2.426-1.983,3.64C52.859,52.237,54.141,53.573,55.612,53.347z M120.419,58.563
		c1.435-1.975,2.874-3.949,4.31-5.922c0.534-0.734,0.35-1.435-0.131-1.916c-0.272-0.417-0.711-0.72-1.368-0.702
		c-4.591,0.113-9.182,0.227-13.769,0.34c-0.108-0.131-0.244-0.299-0.398-0.516c-1.096-1.513-2.191-3.024-3.287-4.538
		c-1.431-1.979-2.866-3.958-4.301-5.936c-0.859-1.191-2.717-1.123-3.175,0.417c-1.304,4.369-2.604,8.734-3.907,13.104
		c-0.172,0.072-0.39,0.154-0.712,0.258c-1.773,0.575-3.548,1.15-5.323,1.725c-2.323,0.752-4.651,1.504-6.974,2.255
		c-1.49,0.479-1.66,2.317-0.415,3.177c3.725,2.563,7.447,5.136,11.169,7.702c0.019,0.195,0.036,0.454,0.036,0.848
		c0,1.865-0.004,3.73-0.01,5.596c0,2.445-0.004,4.891-0.008,7.331c0,1.194,1.53,2.331,2.616,1.503
		c3.672-2.812,7.354-5.623,11.021-8.435c0.189,0.031,0.476,0.1,0.924,0.244c1.774,0.575,3.545,1.154,5.319,1.733
		c2.322,0.757,4.642,1.513,6.964,2.27c1.214,0.397,2.571-0.901,2.137-2.137c-1.524-4.334-3.047-8.663-4.567-12.991
		c0.062-0.146,0.189-0.394,0.553-0.887C118.219,61.578,119.318,60.07,120.419,58.563z M103.646,96.755
		c-3.354,0.315-6.709,0.638-10.064,0.955C48.019,95.256,24.829,46.895,51.098,9.649c0.923-1.318-0.593-2.894-1.964-2.554
		C10.031,16.745-8.337,57.123,10.226,92.951c19.279,37.209,70.049,35.141,95.115,6.706
		C106.563,98.271,105.346,96.505,103.646,96.755z M69.341,108.921c-1.934,0.385-37.866,7.34-51.964-24.152
		c-12.212-27.274,6.565-50.61,6.565-50.61s3.744-4.429,5.216-2.708c1.158,1.354,0.58,4.832,0.58,4.832s-2.897,19.51,7.149,38.25
		c10.047,18.741,33.418,28.593,33.418,28.593s3.478,0.96,3.672,3.088C74.171,108.342,69.341,108.921,69.341,108.921z"/>
</g>
<g id="Layer_1">
</g>
</svg>
