<?xml version="1.0" encoding="iso-8859-1"?>
<!-- Generator: Adobe Illustrator 16.0.0, SVG Export Plug-In . SVG Version: 6.00 Build 0)  -->
<!DOCTYPE svg PUBLIC "-//W3C//DTD SVG 1.1//EN" "http://www.w3.org/Graphics/SVG/1.1/DTD/svg11.dtd">
<svg version="1.1" xmlns="http://www.w3.org/2000/svg" xmlns:xlink="http://www.w3.org/1999/xlink" x="0px" y="0px" width="128px"
	 height="128px" viewBox="0 0 128 128" style="enable-background:new 0 0 128 128;" xml:space="preserve">
<g id="_x34_9-suitcase">
	<path style="fill:#5D5D5D;" d="M51.639,7H55v10.88c0,0.761,0.981,1.369,2.001,1.369c1.02,0,1.999-0.608,1.999-1.369V7h10v10.88
		c0,0.761,0.482,1.369,1.501,1.369c1.021,0,1.499-0.608,1.499-1.369V7h4.361c0.957,0,1.731-1.286,1.731-2.503
		C78.093,3.294,77.318,2,76.361,2H51.639c-0.957,0-1.731,1.294-1.731,2.497C49.907,5.714,50.682,7,51.639,7z M89.84,24H38.16
		C31.175,24,26,29.701,26,36.738v66.373c0,7.03,5.175,12.89,12.16,12.89H39v6.873c0,1.568,0.843,3.127,2.412,3.127h4.97
		c1.573,0,2.619-1.559,2.619-3.127V116h29v6.873c0,1.568,1.682,3.127,3.255,3.127h4.97c1.569,0,2.775-1.559,2.775-3.127V116h0.84
		c6.984,0,12.16-5.859,12.16-12.89V36.738C102,29.701,96.824,24,89.84,24z M78,44.334C78,46.754,76.554,49,74.304,49H53.695
		C51.449,49,50,46.754,50,44.334V37h28V44.334z"/>
</g>
<g id="Layer_1">
</g>
</svg>
