<?xml version="1.0" encoding="iso-8859-1"?>
<!-- Generator: Adobe Illustrator 16.0.0, SVG Export Plug-In . SVG Version: 6.00 Build 0)  -->
<!DOCTYPE svg PUBLIC "-//W3C//DTD SVG 1.1//EN" "http://www.w3.org/Graphics/SVG/1.1/DTD/svg11.dtd">
<svg version="1.1" xmlns="http://www.w3.org/2000/svg" xmlns:xlink="http://www.w3.org/1999/xlink" x="0px" y="0px" width="128px"
	 height="128px" viewBox="0 0 128 128" style="enable-background:new 0 0 128 128;" xml:space="preserve">
<g id="_x35_0-child">
	<path style="fill:#5D5D5D;" d="M54.699,56.134c8.505,0,15.396-6.893,15.396-15.397c0-8.503-6.891-15.396-15.396-15.396
		c-8.503,0-15.396,6.893-15.396,15.396C39.303,49.241,46.195,56.134,54.699,56.134z M100.387,16.367
		c0-8.559-5.675-15.498-12.669-15.498c-6.999,0-12.67,6.938-12.67,15.498c0,8.038,5.002,14.645,11.408,15.419
		c-0.017,0.148-0.706,1.568-0.706,1.568c-0.161,0.367,0.093,0.857,0.458,1.021c0.366,0.163,1.291,0.044,1.291,0.044
		c0.367,1.158,0.529,2.332,0.529,3.531c0.011,4.097-1.926,8.503-3.923,12.926c-1.987,4.426-4.043,8.866-4.054,13.234
		c0,1.266,0.178,2.524,0.589,3.759c0.66,1.979,1.399,3.868,2.151,5.717c-6.427-7.315-15.734-16.048-20.724-15.992
		c-0.272,0.003-14.467,0.09-14.737,0.124c-15.41,2.056-19.292,27.545-19.682,30.45c-0.294,2.184,1.235,4.16,3.42,4.457
		c0.178,0.023,0.359,0.021,0.539,0.021c1.965,0,3.744-1.463,4.019-3.465C36.162,85.252,38,76.27,42,70.559V122
		c0,2.832,2.167,5.131,4.997,5.131c2.839,0,5.003-2.299,5.003-5.131V98h5v24c0,2.832,2.664,5.131,5.503,5.131
		c2.833,0,5.497-2.299,5.497-5.131V70.559c1,1.625,7.175,6.727,10.854,10.482c1.412,1.445,5.034,6.551,7.001,6.551
		c0.178,0,0.297-0.012,0.478-0.035c2.187-0.297,3.689-2.307,3.396-4.49c-0.106-0.782-1.598-3.001-3.846-5.816
		c-1.313-3.213-2.718-6.417-3.856-9.842c-0.359-1.07-0.52-2.166-0.52-3.298c-0.01-3.896,1.921-8.213,3.925-12.639
		c1.987-4.429,4.042-8.971,4.053-13.521c0-1.123-0.275-2.693-0.566-3.805c0,0,1.132-0.258,1.416-0.542
		c0.284-0.283,0.284-0.743,0-1.026l-1.989-0.752C95.045,31.424,100.387,24.668,100.387,16.367z"/>
</g>
<g id="Layer_1">
</g>
</svg>
