<?xml version="1.0" encoding="iso-8859-1"?>
<!-- Generator: Adobe Illustrator 16.0.0, SVG Export Plug-In . SVG Version: 6.00 Build 0)  -->
<!DOCTYPE svg PUBLIC "-//W3C//DTD SVG 1.1//EN" "http://www.w3.org/Graphics/SVG/1.1/DTD/svg11.dtd">
<svg version="1.1" xmlns="http://www.w3.org/2000/svg" xmlns:xlink="http://www.w3.org/1999/xlink" x="0px" y="0px" width="128px"
	 height="128px" viewBox="0 0 128 128" style="enable-background:new 0 0 128 128;" xml:space="preserve">
<g id="_x35_1-adult">
	<path style="fill:#5D5D5D;" d="M95.897,76.693C94.075,63.428,84.552,37.412,76.41,32.982c-8.14-4.43-19.682-3.646-27.646,0.282
		c-7.625,3.76-13.665,30.021-16.617,43.429c-0.965,6.752,8.782,8.07,9.544,0C42.479,72.218,48,52.555,50,49.044v73.991
		c-1,5.488,10,6.122,10,0V80h7v43c0,6,10,6,10,0V48.473c2,4.187,8.275,24.025,9.221,28.221
		C87.154,85.166,96.446,82.941,95.897,76.693z M63.503,29.58c8.134,0,14.736-6.509,14.736-14.534l-0.004-0.348
		c-0.19-7.895-6.732-14.192-14.732-14.192c-8.138,0-14.737,6.51-14.737,14.541C48.766,23.071,55.365,29.58,63.503,29.58z"/>
</g>
<g id="Layer_1">
</g>
</svg>
