<?xml version="1.0" encoding="iso-8859-1"?>
<!-- Generator: Adobe Illustrator 16.0.0, SVG Export Plug-In . SVG Version: 6.00 Build 0)  -->
<!DOCTYPE svg PUBLIC "-//W3C//DTD SVG 1.1//EN" "http://www.w3.org/Graphics/SVG/1.1/DTD/svg11.dtd">
<svg version="1.1" xmlns="http://www.w3.org/2000/svg" xmlns:xlink="http://www.w3.org/1999/xlink" x="0px" y="0px" width="128px"
	 height="128px" viewBox="0 0 128 128" style="enable-background:new 0 0 128 128;" xml:space="preserve">
<g id="_x35_3-breakfast">
	<path style="fill:#4E4D4D;" d="M74.671,29.921c2.638,0,4.786-2.144,4.786-4.786V10.543c0-2.643-2.148-4.786-4.786-4.786
		c-2.639,0-4.786,2.144-4.786,4.786v14.591C69.885,27.777,72.032,29.921,74.671,29.921z M51.104,29.921
		c2.639,0,4.778-2.144,4.778-4.786V10.543c0-2.643-2.14-4.786-4.778-4.786c-2.646,0-4.793,2.144-4.793,4.786v14.591
		C46.311,27.777,48.458,29.921,51.104,29.921z M27.531,29.921c2.639,0,4.786-2.144,4.786-4.786V10.543
		c0-2.643-2.147-4.786-4.786-4.786c-2.646,0-4.786,2.144-4.786,4.786v14.591C22.745,27.777,24.885,29.921,27.531,29.921z
		 M121.365,46.675c-3.735-3.924-10.32-7.217-21.17-2.941v-1.051c0-1.088-0.432-2.136-1.202-2.907
		c-0.764-0.771-1.814-1.205-2.903-1.205H6.104c-1.088,0-2.132,0.434-2.903,1.205c-0.764,0.771-1.194,1.819-1.194,2.907l0.03,22.251
		c0,7.054,1.293,24.764,13.299,36.771c1.595,1.591,3.19,3.225,4.559,4.626l0.219,0.217c2.791,2.854,3.222,3.28,3.706,3.646H7.548
		c-2.39,0-4.325,2.145-4.325,4.786c0,2.646,1.935,4.79,4.325,4.79h6.646l0.99,2.473h71.833L88,119.771h6.653
		c2.382,0,4.317-2.144,4.317-4.79c0-2.642-1.936-4.786-4.317-4.786H78.383c0.499-0.374,0.923-0.805,3.704-3.64l0.189-0.197
		c1.354-1.383,2.972-3.038,4.59-4.656c3.78-3.777,6.479-8.404,8.414-13.08c20.52-3.243,27.195-15.469,29.154-20.772
		C127.33,59.974,126.128,51.661,121.365,46.675z M90.594,60.545H11.6l-0.015-12.399h79.031L90.594,60.545z M115.444,64.545
		c-1.201,3.277-5.141,10.335-16.928,13.589c1.603-7.353,1.648-13.083,1.648-13.197l0.015-10.664
		c6.76-3.626,11.432-3.958,14.259-0.99C116.231,55.158,117.305,59.482,115.444,64.545z"/>
</g>
<g id="Layer_1">
</g>
</svg>
