<?xml version="1.0" encoding="iso-8859-1"?>
<!-- Generator: Adobe Illustrator 16.0.0, SVG Export Plug-In . SVG Version: 6.00 Build 0)  -->
<!DOCTYPE svg PUBLIC "-//W3C//DTD SVG 1.1//EN" "http://www.w3.org/Graphics/SVG/1.1/DTD/svg11.dtd">
<svg version="1.1" xmlns="http://www.w3.org/2000/svg" xmlns:xlink="http://www.w3.org/1999/xlink" x="0px" y="0px" width="128px"
	 height="128px" viewBox="0 0 128 128" style="enable-background:new 0 0 128 128;" xml:space="preserve">
<g id="_x35_4-all-inclusive">
	<path style="fill:#5A5959;" d="M86.453,10.569L86.477,11H114V1H85.943l0.496,9.312l-0.084-0.053l-3.227-9.03
		c-1.28,0.143-2.425,0.799-3.205,1.807l6.054,6.984l-7.444-4.694L69.55,22H17.576c-3.223,0-4.198,2.215-2.145,4.711l13.771,16.571
		L57,76.929V111h11V76.929l27.795-33.56l13.651-16.658c2.061-2.496,1.177-4.711-2.053-4.711H80.217l6.173-11.504L86.453,10.569z
		 M86.444,10.395l0.007,0.13l-0.031-0.085L86.444,10.395z M58.338,43H38.142L26.643,29h39.15L58.338,43z M98.332,29L86.84,43H68.997
		l7.456-14H98.332z M68.367,117.382l-11.765,0.08C42.029,118.34,31.038,122,31.038,127h63.434
		C94.472,122,83.207,118.194,68.367,117.382z"/>
</g>
<g id="Layer_1">
</g>
</svg>
