<?xml version="1.0" encoding="iso-8859-1"?>
<!-- Generator: Adobe Illustrator 16.0.0, SVG Export Plug-In . SVG Version: 6.00 Build 0)  -->
<!DOCTYPE svg PUBLIC "-//W3C//DTD SVG 1.1//EN" "http://www.w3.org/Graphics/SVG/1.1/DTD/svg11.dtd">
<svg version="1.1" xmlns="http://www.w3.org/2000/svg" xmlns:xlink="http://www.w3.org/1999/xlink" x="0px" y="0px" width="128px"
	 height="128px" viewBox="0 0 128 128" style="enable-background:new 0 0 128 128;" xml:space="preserve">
<g id="_x35_5-half-board">
	<path style="fill:#5A5959;" d="M67.336,20.167c-0.065,0-0.13-0.167-0.307-0.167H67v0.383c-24,0.438-43.078,19.895-43.078,43.619
		c0,23.759,19.113,43.42,42.831,43.799L66.639,108h0.504c0.063,0,0.128-0.171,0.193-0.171c24.066,0,43.646-19.762,43.646-43.829
		C110.982,39.932,91.402,20.167,67.336,20.167z M67.267,96.605C49.446,96.44,34.714,81.814,34.714,64
		c0-17.812,14.732-32.435,32.553-32.6L68,31.396v-0.007C85,31.496,100.423,46.081,100.423,64C100.423,81.921,85,96.51,68,96.616
		v-0.007L67.267,96.605z M68,106.641V97.63c18-0.106,33.431-15.152,33.431-33.63C101.431,45.524,86,30.482,68,30.376v-9.017
		c23,0.108,42.442,19.196,42.442,42.643C110.442,87.447,91,106.532,68,106.641z M16,32.185c-0.931,0-2,0.755-2,1.682V46h-3V33.884
		c0-0.925-0.571-1.681-1.499-1.681C8.572,32.203,8,32.958,8,33.884V46H5V33.867c0-0.927-0.57-1.682-1.5-1.682S2,32.94,2,33.867
		v21.766c0,3.242,2,6.029,4,7.309v29.489c0,1.868,1.632,3.384,3.5,3.384c1.866,0,3.5-1.516,3.5-3.384V62.941
		c3-1.279,5-4.067,5-7.309V33.867C18,32.94,16.93,32.185,16,32.185z M94.376,64.065c0-14.823-12.131-26.884-27.042-26.884
		c-0.067,0,0.104,0.004-0.077,0.016L67,37.206v0.071C52,37.71,40.811,49.521,40.811,64.001c0,14.506,11.488,26.332,25.9,26.73
		l-0.013,0.202l0.435,0.01c0.067,0.006,0.134,0.01,0.201,0.01C82.245,90.953,94.376,78.891,94.376,64.065z M68,89.945V38.188
		c14,0.108,25.835,11.675,25.835,25.876C93.835,78.271,82,89.837,68,89.945z M126.244,35.042c0,0,0.099-2.857-1.846-2.857
		c-2.711,0-6.561,7.357-6.62,14.594c-0.046,5.383,0.099,20.751,0.099,20.751s0.275,1.904,1.484,3.291
		c-0.711,0.655-1.361,1.586-1.361,2.63v18.773c0,1.982,2.018,3.59,4,3.59c1.98,0,4-1.607,4-3.59V73.451
		c0-0.875-0.54-1.666-1.061-2.289c0.769-0.763,1.343-2.061,1.411-4.301C126.521,61.481,126.244,35.042,126.244,35.042z"/>
</g>
<g id="Layer_1">
</g>
</svg>
