<?xml version="1.0" encoding="iso-8859-1"?>
<!-- Generator: Adobe Illustrator 16.0.0, SVG Export Plug-In . SVG Version: 6.00 Build 0)  -->
<!DOCTYPE svg PUBLIC "-//W3C//DTD SVG 1.1//EN" "http://www.w3.org/Graphics/SVG/1.1/DTD/svg11.dtd">
<svg version="1.1" xmlns="http://www.w3.org/2000/svg" xmlns:xlink="http://www.w3.org/1999/xlink" x="0px" y="0px" width="128px"
	 height="128px" viewBox="0 0 128 128" style="enable-background:new 0 0 128 128;" xml:space="preserve">
<g id="_x35_6-full-board">
	<path style="fill:#5A5959;" d="M67.325,37.752c-0.103,0-0.305,0.015-0.305,0.015c-15.333,0-26.387,11.622-26.387,26.234
		c0,14.615,10.222,26.364,26.387,26.364c0,0,0.202,0.016,0.305,0.016c14.596,0,26.47-11.805,26.47-26.316
		C93.795,49.556,81.921,37.752,67.325,37.752z M16.5,32.267c-0.929,0-1.5,0.753-1.5,1.678V46h-3V33.961
		c0-0.923-1.074-1.677-1.999-1.677C9.075,32.285,8,33.038,8,33.961V46H5V33.945c0-0.924-0.572-1.678-1.5-1.678S2,33.021,2,33.945
		v21.709c0,3.233,2,6.013,5,7.29v29.413c0,1.863,1.137,3.375,3,3.375c1.862,0,3-1.512,3-3.375V62.944c3-1.276,5-4.057,5-7.29V33.945
		C18,33.021,17.427,32.267,16.5,32.267z M126.084,35.117c0,0,0.098-2.85-1.841-2.85c-2.704,0-6.544,7.338-6.604,14.557
		c-0.046,5.369,0.099,20.698,0.099,20.698s0.344,1.899,1.55,3.282c-0.709,0.653-1.288,1.582-1.288,2.623v18.726
		c0,1.978,1.522,3.58,3.5,3.58c1.976,0,3.5-1.603,3.5-3.58V73.427c0-0.873-0.118-1.662-0.638-2.283
		c0.767-0.76,1.549-2.055,1.618-4.289C126.149,61.487,126.084,35.117,126.084,35.117z M67.327,20.967
		c-0.104,0-0.203,0.015-0.307,0.015c-23.625,0.167-42.729,19.355-42.729,43.02c0,23.662,19.103,42.849,42.729,43.016
		c0.104,0.001,0.203,0.016,0.307,0.016c23.767,0,43.032-19.266,43.032-43.031C110.359,40.233,91.094,20.967,67.327,20.967z
		 M67.328,97.04c-0.104,0-0.204-0.015-0.308-0.016c-18.077-0.167-32.733-14.909-32.733-33.023c0-18.112,14.657-32.853,32.733-33.02
		c0.104-0.001,0.204-0.016,0.308-0.016c18.217,0,33.037,14.82,33.037,33.036C100.365,82.219,85.545,97.04,67.328,97.04z"/>
</g>
<g id="Layer_1">
</g>
</svg>
