<?xml version="1.0" encoding="iso-8859-1"?>
<!-- Generator: Adobe Illustrator 16.0.0, SVG Export Plug-In . SVG Version: 6.00 Build 0)  -->
<!DOCTYPE svg PUBLIC "-//W3C//DTD SVG 1.1//EN" "http://www.w3.org/Graphics/SVG/1.1/DTD/svg11.dtd">
<svg version="1.1" xmlns="http://www.w3.org/2000/svg" xmlns:xlink="http://www.w3.org/1999/xlink" x="0px" y="0px" width="128px"
	 height="128px" viewBox="0 0 128 128" style="enable-background:new 0 0 128 128;" xml:space="preserve">
<g id="_x35_7-mealplan">
	<g>
		<path style="fill-rule:evenodd;clip-rule:evenodd;fill:#585858;" d="M43.395,65.223l1.716,51.902
			c0,12.76-19.539,12.76-19.539-0.038l1.717-51.864c0.076-2.904-1.188-5.442-3.583-7.11c-8.091-5.705-12.108-16.616-12.108-26.291
			c0-11.825,6.035-25.593,18.219-29.252c1.791-0.538,3.64-0.811,5.526-0.811c1.867,0,3.734,0.273,5.526,0.811
			c12.165,3.659,18.219,17.427,18.219,29.252c0,9.675-4.018,20.585-12.109,26.291C44.583,59.781,43.319,62.318,43.395,65.223
			L43.395,65.223z"/>
		<path style="fill-rule:evenodd;clip-rule:evenodd;fill:#585858;" d="M99.296,66.638l1.622,50.487
			c0,13.052-18.955,12.485-18.955-0.038l1.679-50.449c0.133-3.66-1.357-6.857-4.187-9.11c-7.411-5.902-10.977-16.559-10.977-25.706
			c0-8.516,2.074-18.907,4.187-27.149c0.452-1.708,1.943-2.914,3.698-2.914h0.168c2.15,0,3.904,1.744,3.904,3.923v24.075v0.047
			c-0.339,3.961,5.923,3.848,5.923-0.113l1.056-24.103c0.02-2.085,1.659-3.829,3.772-3.829h0.565c2.112,0,3.735,1.744,3.753,3.829
			L96.542,29.7c0,3.951,6.281,4.064,5.96,0.103v-0.047V5.682c0-2.179,1.754-3.923,3.903-3.923h0.151
			c1.754,0,3.225,1.207,3.658,2.914c2.15,8.242,4.226,18.633,4.226,27.149c0,9.147-3.564,19.803-10.958,25.706
			C100.635,59.781,99.146,62.978,99.296,66.638L99.296,66.638z"/>
	</g>
</g>
<g id="Layer_1">
</g>
</svg>
