<?xml version="1.0" encoding="iso-8859-1"?>
<!-- Generator: Adobe Illustrator 16.0.0, SVG Export Plug-In . SVG Version: 6.00 Build 0)  -->
<!DOCTYPE svg PUBLIC "-//W3C//DTD SVG 1.1//EN" "http://www.w3.org/Graphics/SVG/1.1/DTD/svg11.dtd">
<svg version="1.1" xmlns="http://www.w3.org/2000/svg" xmlns:xlink="http://www.w3.org/1999/xlink" x="0px" y="0px" width="128px"
	 height="128px" viewBox="0 0 128 128" style="enable-background:new 0 0 128 128;" xml:space="preserve">
<g id="_x35_8-iso-am-nocircle">
	<path style="fill:#5C5C5C;" d="M112.215,41.241C107.034,25.206,91.148,6.236,63.763,6.236c-11.886,0-23.576,4.375-32.923,12.322
		C10.219,36.082,7.32,66.038,24.377,85.33c5.895,6.658,12.237,11.918,17.057,14.149L57.066,86.53c0,0-11.965-9.329-13.403-11.005
		c-10.574-12.31-9.818-30.272,1.801-40.152c5.315-4.516,11.939-7.004,18.653-7.004c7.947,0,15.556,3.455,20.879,9.47
		c4.873,5.511,7.233,12.568,6.647,19.86c-0.586,7.315-2.882,13.528-9.157,18.835c-0.185,0.152-35.4,29.646-35.4,29.646
		l17.166,15.584l32.891-28.211C116.534,75.719,116.979,55.982,112.215,41.241z"/>
</g>
<g id="Layer_1">
</g>
</svg>
