<?xml version="1.0" encoding="iso-8859-1"?>
<!-- Generator: Adobe Illustrator 16.0.0, SVG Export Plug-In . SVG Version: 6.00 Build 0)  -->
<!DOCTYPE svg PUBLIC "-//W3C//DTD SVG 1.1//EN" "http://www.w3.org/Graphics/SVG/1.1/DTD/svg11.dtd">
<svg version="1.1" xmlns="http://www.w3.org/2000/svg" xmlns:xlink="http://www.w3.org/1999/xlink" x="0px" y="0px" width="128px"
	 height="128px" viewBox="0 0 128 128" style="enable-background:new 0 0 128 128;" xml:space="preserve">
<g id="_x35_9-logo-calm">
	<g>
		<g>
			<path style="fill:#5C5C5C;" d="M50.014,60.199h-0.078c-3.214,0-5.687,2.47-5.722,5.745c-0.035,3.17,2.344,5.777,5.281,5.815
				l0.116,0.001c0.936,0,1.818-0.132,2.409-0.358l0.068-0.029l-0.003-4.437l-0.177,0.267l-1.361,2.044l-0.007,0.006
				c-0.222,0.042-0.441,0.065-0.655,0.065c-0.793,0-1.511-0.298-2.066-0.866c-0.629-0.636-0.997-1.553-0.989-2.453
				c0.021-1.785,1.371-3.182,3.074-3.182h0.04c1.701,0.023,3.037,1.45,3.037,3.255l-0.008,5.413h2.67l-0.004-5.402
				C55.679,62.768,53.455,60.199,50.014,60.199z M37.553,60.26c-2.548,0-3.468,1.841-3.468,1.841h-0.043c0,0,0.043-0.385,0.043-0.92
				v-4.941h-2.078v15.108h1.97v-0.792c0-0.472-0.043-0.813-0.043-0.813h0.043c0,0,0.985,1.862,3.402,1.862
				c2.845,0,4.924-2.226,4.924-5.674C42.304,62.571,40.462,60.26,37.553,60.26z M37.081,69.826c-2.054,0-3.061-1.927-3.061-3.852
				c0-2.763,1.5-3.896,3.125-3.896c1.796,0,3.061,1.519,3.061,3.873C40.206,68.415,38.794,69.826,37.081,69.826z M27.752,65.589
				c0,2.141-1.305,4.088-3.508,4.088c-1.732,0-2.033-1.198-2.033-2.696v-6.463h-2.076v6.934c0,2.867,1.266,4.152,3.705,4.152
				c2.116,0,3.529-1.414,3.976-2.486h0.044c0,0-0.044,0.346-0.044,0.794v1.436h2.015V60.518h-2.078V65.589z M17.632,68.029V56.239
				h-2.076v12.154c0,2.718,1.733,3.038,2.912,3.038c0.364,0,0.683-0.042,0.683-0.042v-1.841c0,0-0.167,0.021-0.363,0.021
				C18.147,69.569,17.632,69.334,17.632,68.029z M10.229,69.805c-2.244,0-3.831-1.692-3.831-3.897c0-2.222,1.587-3.847,3.767-3.847
				c1.839,0,2.996,1.239,2.996,1.239l0.983-1.456c0,0-1.346-1.583-4.064-1.583c-3.402,0-5.8,2.46-5.8,5.67
				c0,3.255,2.398,5.674,5.8,5.674c2.825,0,4.324-1.734,4.324-1.734l-0.834-1.519C13.57,68.351,12.242,69.805,10.229,69.805z
				 M118.153,60.249c-3.071,0-5.572,2.578-5.572,5.75c0,3.164,2.501,5.743,5.572,5.743c3.07,0,5.567-2.579,5.567-5.743
				C123.721,62.826,121.224,60.249,118.153,60.249z M118.153,69.14c-1.685,0-3.054-1.41-3.054-3.142
				c0-1.736,1.369-3.147,3.054-3.147c1.682,0,3.053,1.411,3.053,3.147C121.206,67.729,119.835,69.14,118.153,69.14z M109.077,65.888
				c0,1.806-1.333,3.232-3.035,3.256h-0.036c-1.704,0-3.055-1.398-3.075-3.184c-0.01-0.903,0.357-1.82,0.984-2.451
				c0.561-0.569,1.275-0.869,2.068-0.869c0.212,0,0.436,0.022,0.653,0.066l0.012,0.002l1.361,2.045l0.172,0.269l0.007-4.435
				l-0.071-0.03c-0.594-0.228-1.469-0.358-2.406-0.358h-0.113c-2.938,0.036-5.297,2.643-5.263,5.813
				c0.039,3.277,2.486,5.748,5.7,5.748h0.002l0.075-0.001c3.244-0.039,5.661-2.57,5.626-5.883l0.005-9.519h-2.673L109.077,65.888z
				 M94.543,60.227c-2.815,0-4.785,2.014-4.785,4.894v6.38h2.545v-6.443c0-1.331,0.921-2.262,2.24-2.262
				c2.018,0,2.179,1.731,2.179,2.262V71.5h2.543v-6.38C99.265,62.151,97.413,60.227,94.543,60.227z M57.08,71.478h2.626V56.392
				H57.08V71.478z M73.001,60.227c-1.337,0-2.537,0.55-3.378,1.549l-0.095,0.114l-0.094-0.117c-0.795-0.996-1.997-1.546-3.374-1.546
				c-2.818,0-4.785,2.014-4.785,4.894v6.38h2.543v-6.443c0-1.331,0.923-2.262,2.242-2.262c1.943,0,2.154,1.582,2.154,2.262V71.5
				h2.543v-6.443c0-1.331,0.922-2.262,2.243-2.262c2.017,0,2.176,1.731,2.176,2.262V71.5h2.548v-6.38
				C77.725,62.151,75.871,60.227,73.001,60.227z M85.947,66.957c0,1.306-0.942,2.257-2.239,2.257c-2.02,0-2.176-1.73-2.176-2.257
				v-6.444h-2.545v6.354c0,2.972,1.853,4.894,4.721,4.894c2.818,0,4.786-2.014,4.786-4.894v-6.354h-2.547V66.957z"/>
		</g>
	</g>
</g>
<g id="Layer_1">
</g>
</svg>
