<?xml version="1.0" encoding="iso-8859-1"?>
<!-- Generator: Adobe Illustrator 16.0.0, SVG Export Plug-In . SVG Version: 6.00 Build 0)  -->
<!DOCTYPE svg PUBLIC "-//W3C//DTD SVG 1.1//EN" "http://www.w3.org/Graphics/SVG/1.1/DTD/svg11.dtd">
<svg version="1.1" xmlns="http://www.w3.org/2000/svg" xmlns:xlink="http://www.w3.org/1999/xlink" x="0px" y="0px" width="128px"
	 height="128px" viewBox="0 0 128 128" style="enable-background:new 0 0 128 128;" xml:space="preserve">
<g id="_x36_2-contact">
	<path style="fill:#5C5C5C;" d="M113.777,85.839c-7.717,0-15.245-1.24-22.215-3.549c-2.176-0.741-4.667-0.183-6.344,1.495
		l-13.69,13.689c-17.609-9.023-32.041-23.394-41.003-41.003l13.69-13.69c1.738-1.738,2.236-4.168,1.556-6.344
		c-2.303-6.97-3.549-14.438-3.549-22.215C42.222,10.801,39.421,8,36,8H14.222C10.801,8,8,10.801,8,14.223
		C8,72.652,55.348,120,113.777,120c3.422,0,6.223-2.801,6.223-6.223V92.061C120,88.64,117.199,85.839,113.777,85.839z"/>
</g>
<g id="Layer_1">
</g>
</svg>
