<?xml version="1.0" encoding="iso-8859-1"?>
<!-- Generator: Adobe Illustrator 16.0.0, SVG Export Plug-In . SVG Version: 6.00 Build 0)  -->
<!DOCTYPE svg PUBLIC "-//W3C//DTD SVG 1.1//EN" "http://www.w3.org/Graphics/SVG/1.1/DTD/svg11.dtd">
<svg version="1.1" xmlns="http://www.w3.org/2000/svg" xmlns:xlink="http://www.w3.org/1999/xlink" x="0px" y="0px" width="128px"
	 height="128px" viewBox="0 0 128 128" style="enable-background:new 0 0 128 128;" xml:space="preserve">
<g id="_x36_3-settings">
	<path style="fill:#5C5C5C;" d="M120.898,79.682l-12.584-9.835c0.246-1.91,0.42-3.82,0.42-5.847s-0.174-3.937-0.42-5.847
		l12.584-9.835c1.135-0.896,1.428-2.504,0.717-3.813l-11.926-20.637c-0.717-1.311-2.33-1.788-3.639-1.311l-14.844,5.963
		c-3.104-2.382-6.439-4.35-10.08-5.84L78.863,6.69C78.682,5.258,77.43,4,75.939,4H52.088c-1.49,0-2.742,1.258-2.923,2.69
		L46.9,22.587c-3.639,1.49-6.976,3.563-10.08,5.886l-14.843-5.939c-1.368-0.535-2.923,0.012-3.639,1.322L6.414,44.499
		c-0.774,1.31-0.419,2.92,0.716,3.816l12.583,9.836c-0.244,1.91-0.419,3.88-0.419,5.848c0,1.967,0.175,3.937,0.419,5.847
		L7.13,79.682c-1.136,0.896-1.427,2.504-0.716,3.813l11.925,20.637c0.716,1.311,2.329,1.788,3.639,1.311l14.843-5.963
		c3.104,2.382,6.44,4.35,10.08,5.84l2.265,15.99c0.181,1.433,1.433,2.69,2.923,2.69h23.851c1.49,0,2.742-1.258,2.924-2.69
		l2.264-15.897c3.641-1.49,6.977-3.562,10.08-5.886l14.844,5.939c1.367,0.535,2.922-0.012,3.639-1.322l11.926-20.643
		C122.326,82.191,122.033,80.578,120.898,79.682z M64.014,84.869c-11.506,0-20.87-9.363-20.87-20.869s9.364-20.869,20.87-20.869
		c11.505,0,20.869,9.363,20.869,20.869S75.52,84.869,64.014,84.869z"/>
</g>
<g id="Layer_1">
</g>
</svg>
