<?xml version="1.0" encoding="iso-8859-1"?>
<!-- Generator: Adobe Illustrator 16.0.0, SVG Export Plug-In . SVG Version: 6.00 Build 0)  -->
<!DOCTYPE svg PUBLIC "-//W3C//DTD SVG 1.1//EN" "http://www.w3.org/Graphics/SVG/1.1/DTD/svg11.dtd">
<svg version="1.1" xmlns="http://www.w3.org/2000/svg" xmlns:xlink="http://www.w3.org/1999/xlink" x="0px" y="0px" width="128px"
	 height="128px" viewBox="0 0 128 128" style="enable-background:new 0 0 128 128;" xml:space="preserve">
<g id="_x37_3-search">
	<path style="fill:#5C5C5C;" d="M90.191,80h-5.511l-1.955-2.016c6.839-7.956,10.953-18.351,10.953-29.577
		c0-25.041-20.299-45.374-45.339-45.374C23.299,3.034,3,23.316,3,48.357c0,25.04,20.299,45.331,45.34,45.331
		c11.226,0,21.688-4.119,29.645-10.958L80,84.681v5.511L114.741,125l10.327-10.259L90.191,80z M48.34,79.729
		c-17.371,0-31.389-14.019-31.389-31.389c0-17.371,14.019-31.389,31.389-31.389c17.37,0,31.389,14.019,31.389,31.389
		C79.729,65.71,65.71,79.729,48.34,79.729z"/>
</g>
<g id="Layer_1">
</g>
</svg>
