<?xml version="1.0" encoding="iso-8859-1"?>
<!-- Generator: Adobe Illustrator 16.0.0, SVG Export Plug-In . SVG Version: 6.00 Build 0)  -->
<!DOCTYPE svg PUBLIC "-//W3C//DTD SVG 1.1//EN" "http://www.w3.org/Graphics/SVG/1.1/DTD/svg11.dtd">
<svg version="1.1" xmlns="http://www.w3.org/2000/svg" xmlns:xlink="http://www.w3.org/1999/xlink" x="0px" y="0px" width="128px"
	 height="128px" viewBox="0 0 128 128" style="enable-background:new 0 0 128 128;" xml:space="preserve">
<g id="_x37_7-less-outline">
	<path style="fill:#5C5C5C;" d="M33,70h61V58H33V70z M64,3C30.331,3,3,30.328,3,64c0,33.669,27.331,61,61,61s61-27.331,61-61
		C125,30.328,97.669,3,64,3z M64,112.8c-26.902,0-48.8-21.897-48.8-48.8c0-26.902,21.898-48.8,48.8-48.8
		c26.902,0,48.8,21.898,48.8,48.8C112.8,90.902,90.902,112.8,64,112.8z"/>
</g>
<g id="Layer_1">
</g>
</svg>
