<?xml version="1.0" encoding="iso-8859-1"?>
<!-- Generator: Adobe Illustrator 16.0.0, SVG Export Plug-In . SVG Version: 6.00 Build 0)  -->
<!DOCTYPE svg PUBLIC "-//W3C//DTD SVG 1.1//EN" "http://www.w3.org/Graphics/SVG/1.1/DTD/svg11.dtd">
<svg version="1.1" xmlns="http://www.w3.org/2000/svg" xmlns:xlink="http://www.w3.org/1999/xlink" x="0px" y="0px" width="128px"
	 height="128px" viewBox="0 0 128 128" style="enable-background:new 0 0 128 128;" xml:space="preserve">
<g id="_x37_8-camera">
	<path style="fill:#5C5C5C;" d="M64,50.579c-10.782,0-19.521,8.739-19.521,19.521c0,10.782,8.739,19.521,19.521,19.521
		S83.521,80.882,83.521,70.1C83.521,59.318,74.782,50.579,64,50.579z M112.8,21H93.464L82.3,9H45.7L34.537,21H15.2
		C8.492,21,3,26.79,3,33.5v73.2c0,6.707,5.492,12.3,12.2,12.3h97.6c6.708,0,12.2-5.593,12.2-12.3V33.5
		C125,26.79,119.508,21,112.8,21z M64,100.6c-16.835,0-30.5-13.665-30.5-30.5c0-16.834,13.665-30.5,30.5-30.5s30.5,13.666,30.5,30.5
		C94.5,86.935,80.835,100.6,64,100.6z"/>
</g>
<g id="Layer_1">
</g>
</svg>
