<?xml version="1.0" encoding="iso-8859-1"?>
<!-- Generator: Adobe Illustrator 16.0.0, SVG Export Plug-In . SVG Version: 6.00 Build 0)  -->
<!DOCTYPE svg PUBLIC "-//W3C//DTD SVG 1.1//EN" "http://www.w3.org/Graphics/SVG/1.1/DTD/svg11.dtd">
<svg version="1.1" xmlns="http://www.w3.org/2000/svg" xmlns:xlink="http://www.w3.org/1999/xlink" x="0px" y="0px" width="128px"
	 height="128px" viewBox="0 0 128 128" style="enable-background:new 0 0 128 128;" xml:space="preserve">
<g id="_x37_9-passengers">
	<path style="fill:#5C5C5C;" d="M91.45,64c8.417,0,15.19-6.833,15.19-15.25S99.867,33.5,91.45,33.5S76.2,40.333,76.2,48.75
		S83.033,64,91.45,64z M45.7,57.9c10.127,0,18.24-8.173,18.24-18.3S55.827,21.3,45.7,21.3s-18.3,8.173-18.3,18.3
		S35.573,57.9,45.7,57.9z M45.7,70.1C31.486,70.1,3,77.236,3,91.45V107h43V92.975c0-5.183,1.864-14.272,14.308-21.165
		C55,70.708,49.727,70.1,45.7,70.1z M91.5,76.2C80.336,76.2,58,81.812,58,92.975V107h67V92.975C125,81.812,102.663,76.2,91.5,76.2z"
		/>
</g>
<g id="Layer_1">
</g>
</svg>
