<?xml version="1.0" encoding="iso-8859-1"?>
<!-- Generator: Adobe Illustrator 16.0.0, SVG Export Plug-In . SVG Version: 6.00 Build 0)  -->
<!DOCTYPE svg PUBLIC "-//W3C//DTD SVG 1.1//EN" "http://www.w3.org/Graphics/SVG/1.1/DTD/svg11.dtd">
<svg version="1.1" xmlns="http://www.w3.org/2000/svg" xmlns:xlink="http://www.w3.org/1999/xlink" x="0px" y="0px" width="128px"
	 height="128px" viewBox="0 0 128 128" style="enable-background:new 0 0 128 128;" xml:space="preserve">
<g id="_x38_4-more">
	<path style="fill:#59595C;" d="M64,33.5c8.385,0,15.25-6.862,15.25-15.25S72.385,3,64,3S48.75,9.862,48.75,18.25
		S55.615,33.5,64,33.5z M64,94.5c-8.385,0-15.25,6.865-15.25,15.25S55.615,125,64,125s15.25-6.865,15.25-15.25S72.385,94.5,64,94.5z
		 M64,48.75c-8.385,0-15.25,6.862-15.25,15.25c0,8.385,6.865,15.25,15.25,15.25S79.25,72.385,79.25,64
		C79.25,55.612,72.385,48.75,64,48.75z"/>
</g>
<g id="Layer_1">
</g>
</svg>
