<?xml version="1.0" encoding="iso-8859-1"?>
<!-- Generator: Adobe Illustrator 16.0.0, SVG Export Plug-In . SVG Version: 6.00 Build 0)  -->
<!DOCTYPE svg PUBLIC "-//W3C//DTD SVG 1.1//EN" "http://www.w3.org/Graphics/SVG/1.1/DTD/svg11.dtd">
<svg version="1.1" xmlns="http://www.w3.org/2000/svg" xmlns:xlink="http://www.w3.org/1999/xlink" x="0px" y="0px" width="128px"
	 height="128px" viewBox="0 0 128 128" style="enable-background:new 0 0 128 128;" xml:space="preserve">
<g id="_x38_5-list">
	<path style="fill:#5C5C5C;" d="M33.21,18.625h90.749V31.59H33.21V18.625 M33.21,70.482V57.518h90.749v12.965H33.21 M13.764,15.385
		c5.368,0,9.723,4.355,9.723,9.723s-4.355,9.723-9.723,9.723s-9.723-4.355-9.723-9.723S8.396,15.385,13.764,15.385 M13.764,54.277
		c5.368,0,9.723,4.355,9.723,9.723c0,5.368-4.355,9.723-9.723,9.723S4.041,69.368,4.041,64C4.041,58.632,8.396,54.277,13.764,54.277
		 M33.21,109.374V96.411h90.749v12.963H33.21 M13.764,93.169c5.368,0,9.723,4.354,9.723,9.724c0,5.367-4.355,9.723-9.723,9.723
		s-9.723-4.355-9.723-9.723C4.041,97.523,8.396,93.169,13.764,93.169z"/>
</g>
<g id="Layer_1">
</g>
</svg>
