<?xml version="1.0" encoding="iso-8859-1"?>
<!-- Generator: Adobe Illustrator 16.0.0, SVG Export Plug-In . SVG Version: 6.00 Build 0)  -->
<!DOCTYPE svg PUBLIC "-//W3C//DTD SVG 1.1//EN" "http://www.w3.org/Graphics/SVG/1.1/DTD/svg11.dtd">
<svg version="1.1" xmlns="http://www.w3.org/2000/svg" xmlns:xlink="http://www.w3.org/1999/xlink" x="0px" y="0px" width="128px"
	 height="128px" viewBox="0 0 128 128" style="enable-background:new 0 0 128 128;" xml:space="preserve">
<g id="_x39_1-password">
	<path style="fill:#59595C;" d="M98.857,44H93V32.048C93,16.015,80.033,3,64,3S35,16.015,35,32.048V44h-5.857
		C22.752,44,18,48.895,18,55.286v58.095C18,119.77,22.752,125,29.143,125h69.715c6.388,0,11.143-5.23,11.143-11.619V55.286
		C110,48.895,105.245,44,98.857,44z M64,95.952c-6.389,0-11.619-5.23-11.619-11.619c0-6.388,5.23-11.619,11.619-11.619
		s11.619,5.231,11.619,11.619C75.619,90.722,70.389,95.952,64,95.952z M82,44H46V32.048c0-9.935,8.067-18.01,18.001-18.01
		c9.934,0,17.999,8.076,17.999,18.01V44z"/>
</g>
<g id="Layer_1">
</g>
</svg>
