<?xml version="1.0" encoding="iso-8859-1"?>
<!-- Generator: Adobe Illustrator 16.0.0, SVG Export Plug-In . SVG Version: 6.00 Build 0)  -->
<!DOCTYPE svg PUBLIC "-//W3C//DTD SVG 1.1//EN" "http://www.w3.org/Graphics/SVG/1.1/DTD/svg11.dtd">
<svg version="1.1" xmlns="http://www.w3.org/2000/svg" xmlns:xlink="http://www.w3.org/1999/xlink" x="0px" y="0px" width="128px"
	 height="128px" viewBox="0 0 128 128" style="enable-background:new 0 0 128 128;" xml:space="preserve">
<g id="_x39_3-gender">
	<path style="fill:#59595C;" d="M67,3v12h20.703L65.452,37.061c-4.589-3.081-10.167-4.917-15.976-4.917
		c-16.042,0-28.88,12.958-28.88,29C20.596,75.202,30,86.887,44,89.564V102H32v11h12v12h11v-12h12v-11H55V89.564
		c14-2.678,23.381-14.41,23.381-28.469c0-5.81-1.709-11.443-4.728-16.033L96,22.812V44h12V3H67z M49.476,78.523
		c-9.625,0-17.428-7.807-17.428-17.428c0-9.622,7.804-17.429,17.428-17.429c9.622,0,17.428,7.807,17.428,17.429
		C66.904,70.717,59.098,78.523,49.476,78.523z"/>
</g>
<g id="Layer_1">
</g>
</svg>
